<mxfile host="65bd71144e">
    <diagram id="EbJKy2AbN1PmDcqDbLFm" name="Admin">
        <mxGraphModel dx="1508" dy="3326" grid="1" gridSize="10" guides="1" tooltips="1" connect="1" arrows="1" fold="1" page="1" pageScale="1" pageWidth="850" pageHeight="1100" math="0" shadow="0">
            <root>
                <mxCell id="0"/>
                <mxCell id="1" parent="0"/>
                <mxCell id="2" style="edgeStyle=orthogonalEdgeStyle;rounded=0;orthogonalLoop=1;jettySize=auto;html=1;exitX=0.5;exitY=1;exitDx=0;exitDy=0;entryX=0.5;entryY=0;entryDx=0;entryDy=0;" edge="1" parent="1" source="3" target="85">
                    <mxGeometry relative="1" as="geometry"/>
                </mxCell>
                <mxCell id="3" value="Start" style="html=1;overflow=block;blockSpacing=1;whiteSpace=wrap;fontSize=9;align=center;spacing=3.8;strokeOpacity=100;fillOpacity=100;rounded=1;absoluteArcSize=1;arcSize=9;fillColor=#ffffff;strokeWidth=1.5;lucidId=eaGehq-Vtr1e;shape=ellipse;perimeter=ellipsePerimeter;container=0;" vertex="1" parent="1">
                    <mxGeometry x="361.58823529411757" y="-1129" width="74.82352941176472" height="40.071856287425156" as="geometry"/>
                </mxCell>
                <mxCell id="4" value="End" style="html=1;overflow=block;blockSpacing=1;whiteSpace=wrap;fontSize=9;align=center;spacing=3.8;strokeOpacity=100;fillOpacity=100;rounded=1;absoluteArcSize=1;arcSize=9;fillColor=#ffffff;strokeWidth=1.5;lucidId=nLIe3R4C9lbF;shape=ellipse;perimeter=ellipsePerimeter;container=0;" vertex="1" parent="1">
                    <mxGeometry x="357.37317647058813" y="-137.57185628742502" width="74.82352941176472" height="40.071856287425156" as="geometry"/>
                </mxCell>
                <mxCell id="5" style="edgeStyle=orthogonalEdgeStyle;rounded=0;orthogonalLoop=1;jettySize=auto;html=1;fontFamily=Helvetica;fontSize=9;fontColor=default;entryX=0.5;entryY=0;entryDx=0;entryDy=0;" edge="1" parent="1" source="63" target="50">
                    <mxGeometry relative="1" as="geometry">
                        <mxPoint x="399.0366782006922" y="-749.6694610778443" as="targetPoint"/>
                    </mxGeometry>
                </mxCell>
                <mxCell id="6" value="Review Volunteer Participation" style="html=1;overflow=block;blockSpacing=1;whiteSpace=wrap;fontSize=9;align=center;spacing=9;strokeOpacity=100;fillOpacity=100;rounded=1;absoluteArcSize=1;arcSize=9;fillColor=#ffffff;strokeWidth=1.5;lucidId=3yIeO27-Vfd.;container=0;" vertex="1" parent="1">
                    <mxGeometry x="174.82247058823532" y="-477.5147704590818" width="112.85882352941178" height="38.73612774451097" as="geometry"/>
                </mxCell>
                <mxCell id="7" style="edgeStyle=orthogonalEdgeStyle;rounded=0;orthogonalLoop=1;jettySize=auto;html=1;entryX=1;entryY=0.5;entryDx=0;entryDy=0;fontFamily=Helvetica;fontSize=9;fontColor=default;" edge="1" parent="1" source="11" target="14">
                    <mxGeometry relative="1" as="geometry"/>
                </mxCell>
                <mxCell id="8" value="Yes" style="edgeLabel;html=1;align=center;verticalAlign=middle;resizable=0;points=[];rounded=1;strokeColor=default;strokeWidth=1.5;spacing=3.8;arcSize=9;absoluteArcSize=1;fontFamily=Helvetica;fontSize=9;fontColor=default;fillColor=#ffffff;container=0;" vertex="1" connectable="0" parent="7">
                    <mxGeometry x="-0.0477" relative="1" as="geometry">
                        <mxPoint x="-1" as="offset"/>
                    </mxGeometry>
                </mxCell>
                <mxCell id="9" style="edgeStyle=orthogonalEdgeStyle;rounded=0;orthogonalLoop=1;jettySize=auto;html=1;fontFamily=Helvetica;fontSize=9;fontColor=default;exitX=0.5;exitY=1;exitDx=0;exitDy=0;entryX=0;entryY=0.5;entryDx=0;entryDy=0;" edge="1" parent="1" source="11" target="61">
                    <mxGeometry relative="1" as="geometry"/>
                </mxCell>
                <mxCell id="10" value="No" style="edgeLabel;html=1;align=center;verticalAlign=middle;resizable=0;points=[];rounded=1;strokeColor=default;strokeWidth=1.5;spacing=3.8;arcSize=9;absoluteArcSize=1;fontFamily=Helvetica;fontSize=9;fontColor=default;fillColor=#ffffff;container=0;" vertex="1" connectable="0" parent="9">
                    <mxGeometry x="-0.3745" y="-2" relative="1" as="geometry">
                        <mxPoint x="3" y="-86" as="offset"/>
                    </mxGeometry>
                </mxCell>
                <mxCell id="11" value="Is user qualified&lt;div&gt;&amp;nbsp;to be a member?&lt;/div&gt;" style="html=1;overflow=block;blockSpacing=1;whiteSpace=wrap;rhombus;fontSize=9;align=center;spacing=3.8;strokeOpacity=100;fillOpacity=100;rounded=1;absoluteArcSize=1;arcSize=9;fillColor=#ffffff;strokeWidth=1.5;lucidId=fCIegl_HYYZc;container=0;" vertex="1" parent="1">
                    <mxGeometry x="185.7529411764706" y="-413.06586826347313" width="89.78823529411767" height="79.47584830339324" as="geometry"/>
                </mxCell>
                <mxCell id="12" value="" style="html=1;jettySize=18;whiteSpace=wrap;fontSize=9;strokeColor=#3a414a;strokeOpacity=100;strokeWidth=1.5;rounded=1;arcSize=12;edgeStyle=orthogonalEdgeStyle;startArrow=none;endArrow=block;endFill=1;exitX=0.5;exitY=1;exitPerimeter=0;entryX=0.5;entryY=0;entryPerimeter=0;lucidId=fMIe9KTRvWDF;" edge="1" parent="1" source="6" target="11">
                    <mxGeometry width="100" height="100" relative="1" as="geometry">
                        <Array as="points"/>
                    </mxGeometry>
                </mxCell>
                <mxCell id="13" style="edgeStyle=orthogonalEdgeStyle;rounded=0;orthogonalLoop=1;jettySize=auto;html=1;entryX=0;entryY=0.5;entryDx=0;entryDy=0;fontFamily=Helvetica;fontSize=9;fontColor=default;" edge="1" parent="1" source="14" target="61">
                    <mxGeometry relative="1" as="geometry">
                        <Array as="points">
                            <mxPoint x="84.7411764705881" y="-183.98842315369257"/>
                        </Array>
                    </mxGeometry>
                </mxCell>
                <mxCell id="14" value="Send Membership Invitation" style="html=1;overflow=block;blockSpacing=1;whiteSpace=wrap;fontSize=9;align=center;spacing=9;strokeOpacity=100;fillOpacity=100;rounded=1;absoluteArcSize=1;arcSize=9;fillColor=#ffffff;strokeWidth=1.5;lucidId=wMIe6l~bxrtQ;container=0;" vertex="1" parent="1">
                    <mxGeometry x="28" y="-392.6960079840319" width="112.85882352941178" height="38.73612774451097" as="geometry"/>
                </mxCell>
                <mxCell id="15" style="edgeStyle=orthogonalEdgeStyle;rounded=0;orthogonalLoop=1;jettySize=auto;html=1;fontFamily=Helvetica;fontSize=9;fontColor=default;" edge="1" parent="1" source="16" target="21">
                    <mxGeometry relative="1" as="geometry"/>
                </mxCell>
                <mxCell id="16" value="&amp;nbsp;Manage Testimonials&amp;nbsp;&amp;nbsp;" style="html=1;overflow=block;blockSpacing=1;whiteSpace=wrap;fontSize=9;align=center;spacing=9;strokeOpacity=100;fillOpacity=100;rounded=1;absoluteArcSize=1;arcSize=9;fillColor=#ffffff;strokeWidth=1.5;lucidId=waGefKhzuSeb;container=0;" vertex="1" parent="1">
                    <mxGeometry x="508.1176470588235" y="-718.2798403193613" width="93.52941176470588" height="40.071856287425156" as="geometry"/>
                </mxCell>
                <mxCell id="17" style="edgeStyle=orthogonalEdgeStyle;rounded=0;orthogonalLoop=1;jettySize=auto;html=1;entryX=0;entryY=0.5;entryDx=0;entryDy=0;fontFamily=Helvetica;fontSize=9;fontColor=default;" edge="1" parent="1" source="21" target="23">
                    <mxGeometry relative="1" as="geometry"/>
                </mxCell>
                <mxCell id="18" value="Yes" style="edgeLabel;html=1;align=center;verticalAlign=middle;resizable=0;points=[];rounded=1;strokeColor=default;strokeWidth=1.5;spacing=3.8;arcSize=9;absoluteArcSize=1;fontFamily=Helvetica;fontSize=9;fontColor=default;fillColor=#ffffff;container=0;" vertex="1" connectable="0" parent="17">
                    <mxGeometry x="-0.0891" relative="1" as="geometry">
                        <mxPoint as="offset"/>
                    </mxGeometry>
                </mxCell>
                <mxCell id="19" style="edgeStyle=orthogonalEdgeStyle;rounded=0;orthogonalLoop=1;jettySize=auto;html=1;fontFamily=Helvetica;fontSize=9;fontColor=default;" edge="1" parent="1" source="21" target="36">
                    <mxGeometry relative="1" as="geometry"/>
                </mxCell>
                <mxCell id="20" value="No" style="edgeLabel;html=1;align=center;verticalAlign=middle;resizable=0;points=[];rounded=1;strokeColor=default;strokeWidth=1.5;spacing=3.8;arcSize=9;absoluteArcSize=1;fontFamily=Helvetica;fontSize=9;fontColor=default;fillColor=#ffffff;container=0;" vertex="1" connectable="0" parent="19">
                    <mxGeometry x="-0.4658" y="-1" relative="1" as="geometry">
                        <mxPoint as="offset"/>
                    </mxGeometry>
                </mxCell>
                <mxCell id="21" value="Are there new testimonials?&amp;nbsp;&amp;nbsp;" style="html=1;overflow=block;blockSpacing=1;whiteSpace=wrap;fontSize=9;align=center;spacing=9;strokeOpacity=100;fillOpacity=100;rounded=1;absoluteArcSize=1;arcSize=9;fillColor=#ffffff;strokeWidth=1.5;lucidId=waGefKhzuSeb;shape=rhombus;perimeter=rhombusPerimeter;container=0;" vertex="1" parent="1">
                    <mxGeometry x="508.1176470588235" y="-654.164870259481" width="93.52941176470588" height="64.78283433133734" as="geometry"/>
                </mxCell>
                <mxCell id="22" style="edgeStyle=orthogonalEdgeStyle;rounded=0;orthogonalLoop=1;jettySize=auto;html=1;entryX=1;entryY=0.5;entryDx=0;entryDy=0;fontSize=9;" edge="1" parent="1" target="59">
                    <mxGeometry relative="1" as="geometry">
                        <mxPoint x="738.8235294117646" y="-634.461366170884" as="sourcePoint"/>
                        <mxPoint x="620.3529411764705" y="-186.99381237524938" as="targetPoint"/>
                        <Array as="points">
                            <mxPoint x="770" y="-634.4628742514969"/>
                            <mxPoint x="770" y="-183.654491017964"/>
                        </Array>
                    </mxGeometry>
                </mxCell>
                <mxCell id="23" value="&amp;nbsp;Approve/Testimonial Display&amp;nbsp;&amp;nbsp;" style="html=1;overflow=block;blockSpacing=1;whiteSpace=wrap;fontSize=9;align=center;spacing=9;strokeOpacity=100;fillOpacity=100;rounded=1;absoluteArcSize=1;arcSize=9;fillColor=#ffffff;strokeWidth=1.5;lucidId=waGefKhzuSeb;container=0;" vertex="1" parent="1">
                    <mxGeometry x="645.2941176470588" y="-641.8093812375248" width="93.52941176470588" height="40.071856287425156" as="geometry"/>
                </mxCell>
                <mxCell id="24" style="edgeStyle=orthogonalEdgeStyle;rounded=0;orthogonalLoop=1;jettySize=auto;html=1;fontFamily=Helvetica;fontSize=9;fontColor=default;" edge="1" parent="1" source="25" target="6">
                    <mxGeometry relative="1" as="geometry"/>
                </mxCell>
                <mxCell id="25" value="&amp;nbsp;Manage Volunteers/Members" style="html=1;overflow=block;blockSpacing=1;whiteSpace=wrap;fontSize=9;align=center;spacing=9;strokeOpacity=100;fillOpacity=100;rounded=1;absoluteArcSize=1;arcSize=9;fillColor=#ffffff;strokeWidth=1.5;lucidId=waGefKhzuSeb;container=0;" vertex="1" parent="1">
                    <mxGeometry x="184.487176470588" y="-553.3173652694611" width="93.52941176470588" height="40.071856287425156" as="geometry"/>
                </mxCell>
                <mxCell id="26" style="edgeStyle=orthogonalEdgeStyle;rounded=0;orthogonalLoop=1;jettySize=auto;html=1;entryX=0.5;entryY=0;entryDx=0;entryDy=0;fontFamily=Helvetica;fontSize=9;fontColor=default;" edge="1" parent="1" source="27" target="32">
                    <mxGeometry relative="1" as="geometry"/>
                </mxCell>
                <mxCell id="27" value="&amp;nbsp;Assign Roles to Users&amp;nbsp;&amp;nbsp;" style="html=1;overflow=block;blockSpacing=1;whiteSpace=wrap;fontSize=9;align=center;spacing=9;strokeOpacity=100;fillOpacity=100;rounded=1;absoluteArcSize=1;arcSize=9;fillColor=#ffffff;strokeWidth=1.5;lucidId=ZaGe6Q326o~I;container=0;" vertex="1" parent="1">
                    <mxGeometry x="184.48717647058828" y="-713.9387225548902" width="93.52941176470588" height="31.38962075848303" as="geometry"/>
                </mxCell>
                <mxCell id="28" style="edgeStyle=orthogonalEdgeStyle;rounded=0;orthogonalLoop=1;jettySize=auto;html=1;fontFamily=Helvetica;fontSize=9;fontColor=default;" edge="1" parent="1" source="32" target="34">
                    <mxGeometry relative="1" as="geometry"/>
                </mxCell>
                <mxCell id="29" value="Yes" style="edgeLabel;html=1;align=center;verticalAlign=middle;resizable=0;points=[];rounded=1;strokeColor=default;strokeWidth=1.5;spacing=3.8;arcSize=9;absoluteArcSize=1;fontFamily=Helvetica;fontSize=9;fontColor=default;fillColor=#ffffff;container=0;" vertex="1" connectable="0" parent="28">
                    <mxGeometry x="-0.0234" relative="1" as="geometry">
                        <mxPoint as="offset"/>
                    </mxGeometry>
                </mxCell>
                <mxCell id="30" style="edgeStyle=orthogonalEdgeStyle;rounded=0;orthogonalLoop=1;jettySize=auto;html=1;fontFamily=Helvetica;fontSize=9;fontColor=default;" edge="1" parent="1" source="32" target="25">
                    <mxGeometry relative="1" as="geometry"/>
                </mxCell>
                <mxCell id="31" value="No" style="edgeLabel;html=1;align=center;verticalAlign=middle;resizable=0;points=[];rounded=1;strokeColor=default;strokeWidth=1.5;spacing=3.8;arcSize=9;absoluteArcSize=1;fontFamily=Helvetica;fontSize=9;fontColor=default;fillColor=#ffffff;container=0;" vertex="1" connectable="0" parent="30">
                    <mxGeometry x="0.2848" y="1" relative="1" as="geometry">
                        <mxPoint x="-1" y="-6" as="offset"/>
                    </mxGeometry>
                </mxCell>
                <mxCell id="32" value="Need to assign&amp;nbsp;&lt;div&gt;new role?&amp;nbsp;&amp;nbsp;&lt;/div&gt;" style="html=1;overflow=block;blockSpacing=1;whiteSpace=wrap;rhombus;fontSize=9;align=center;spacing=3.8;strokeOpacity=100;fillOpacity=100;rounded=1;absoluteArcSize=1;arcSize=9;fillColor=#ffffff;strokeWidth=1.5;lucidId=fCIegl_HYYZc;container=0;" vertex="1" parent="1">
                    <mxGeometry x="192.4309411764702" y="-660.1756487025948" width="77.64811764705884" height="70.12574850299403" as="geometry"/>
                </mxCell>
                <mxCell id="33" style="edgeStyle=orthogonalEdgeStyle;rounded=0;orthogonalLoop=1;jettySize=auto;html=1;entryX=0;entryY=0.5;entryDx=0;entryDy=0;fontFamily=Helvetica;fontSize=9;fontColor=default;" edge="1" parent="1" source="34" target="25">
                    <mxGeometry relative="1" as="geometry">
                        <Array as="points">
                            <mxPoint x="105.9411764705881" y="-533.2814371257484"/>
                        </Array>
                    </mxGeometry>
                </mxCell>
                <mxCell id="34" value="Assign Role&amp;nbsp;" style="html=1;overflow=block;blockSpacing=1;whiteSpace=wrap;fontSize=9;align=center;spacing=9;strokeOpacity=100;fillOpacity=100;rounded=1;absoluteArcSize=1;arcSize=9;fillColor=#ffffff;strokeWidth=1.5;lucidId=ZaGe6Q326o~I;container=0;" vertex="1" parent="1">
                    <mxGeometry x="59.176470588235446" y="-640.8075848303392" width="93.52941176470588" height="31.38962075848303" as="geometry"/>
                </mxCell>
                <mxCell id="35" style="edgeStyle=orthogonalEdgeStyle;rounded=0;orthogonalLoop=1;jettySize=auto;html=1;fontFamily=Helvetica;fontSize=9;fontColor=default;" edge="1" parent="1" source="36" target="41">
                    <mxGeometry relative="1" as="geometry"/>
                </mxCell>
                <mxCell id="36" value="Manage Partners/Collaborations&amp;nbsp;&amp;nbsp;" style="html=1;overflow=block;blockSpacing=1;whiteSpace=wrap;fontSize=9;align=center;spacing=9;strokeOpacity=100;fillOpacity=100;rounded=1;absoluteArcSize=1;arcSize=9;fillColor=#ffffff;strokeWidth=1.5;lucidId=3yIeO27-Vfd.;container=0;" vertex="1" parent="1">
                    <mxGeometry x="498.1411764705884" y="-557.9924151696607" width="112.85882352941178" height="38.73612774451097" as="geometry"/>
                </mxCell>
                <mxCell id="37" style="edgeStyle=orthogonalEdgeStyle;rounded=0;orthogonalLoop=1;jettySize=auto;html=1;fontFamily=Helvetica;fontSize=9;fontColor=default;" edge="1" parent="1" source="41" target="43">
                    <mxGeometry relative="1" as="geometry"/>
                </mxCell>
                <mxCell id="38" value="Yes" style="edgeLabel;html=1;align=center;verticalAlign=middle;resizable=0;points=[];rounded=1;strokeColor=default;strokeWidth=1.5;spacing=3.8;arcSize=9;absoluteArcSize=1;fontFamily=Helvetica;fontSize=9;fontColor=default;fillColor=#ffffff;container=0;" vertex="1" connectable="0" parent="37">
                    <mxGeometry x="-0.2391" y="-3" relative="1" as="geometry">
                        <mxPoint as="offset"/>
                    </mxGeometry>
                </mxCell>
                <mxCell id="39" style="edgeStyle=orthogonalEdgeStyle;rounded=0;orthogonalLoop=1;jettySize=auto;html=1;fontFamily=Helvetica;fontSize=9;fontColor=default;" edge="1" parent="1" source="41" target="45">
                    <mxGeometry relative="1" as="geometry"/>
                </mxCell>
                <mxCell id="40" value="No" style="edgeLabel;html=1;align=center;verticalAlign=middle;resizable=0;points=[];rounded=1;strokeColor=default;strokeWidth=1.5;spacing=3.8;arcSize=9;absoluteArcSize=1;fontFamily=Helvetica;fontSize=9;fontColor=default;fillColor=#ffffff;container=0;" vertex="1" connectable="0" parent="39">
                    <mxGeometry x="-0.2116" y="-2" relative="1" as="geometry">
                        <mxPoint as="offset"/>
                    </mxGeometry>
                </mxCell>
                <mxCell id="41" value="Is there a new&amp;nbsp;&lt;div&gt;partner collaboration?&amp;nbsp;&amp;nbsp;&lt;/div&gt;" style="html=1;overflow=block;blockSpacing=1;whiteSpace=wrap;rhombus;fontSize=9;align=center;spacing=3.8;strokeOpacity=100;fillOpacity=100;rounded=1;absoluteArcSize=1;arcSize=9;fillColor=#ffffff;strokeWidth=1.5;lucidId=fCIegl_HYYZc;container=0;" vertex="1" parent="1">
                    <mxGeometry x="511.235294117647" y="-496.8828343313373" width="87.29411764705884" height="77.47225548902195" as="geometry"/>
                </mxCell>
                <mxCell id="42" style="edgeStyle=orthogonalEdgeStyle;rounded=0;orthogonalLoop=1;jettySize=auto;html=1;fontFamily=Helvetica;fontSize=9;fontColor=default;exitX=1;exitY=0.5;exitDx=0;exitDy=0;entryX=1;entryY=0.5;entryDx=0;entryDy=0;" edge="1" parent="1" source="43" target="59">
                    <mxGeometry relative="1" as="geometry">
                        <mxPoint x="857.2941176470589" y="-164.28642714570844" as="targetPoint"/>
                        <Array as="points">
                            <mxPoint x="770" y="-458.1467065868263"/>
                            <mxPoint x="770" y="-184.322355289421"/>
                        </Array>
                    </mxGeometry>
                </mxCell>
                <mxCell id="43" value="Approve/Display Partner&amp;nbsp;&amp;nbsp;" style="html=1;overflow=block;blockSpacing=1;whiteSpace=wrap;fontSize=9;align=center;spacing=9;strokeOpacity=100;fillOpacity=100;rounded=1;absoluteArcSize=1;arcSize=9;fillColor=#ffffff;strokeWidth=1.5;lucidId=3yIeO27-Vfd.;container=0;" vertex="1" parent="1">
                    <mxGeometry x="645.294117647059" y="-477.5147704590818" width="112.85882352941178" height="38.73612774451097" as="geometry"/>
                </mxCell>
                <mxCell id="44" style="edgeStyle=orthogonalEdgeStyle;rounded=0;orthogonalLoop=1;jettySize=auto;html=1;entryX=0.5;entryY=0;entryDx=0;entryDy=0;fontFamily=Helvetica;fontSize=9;fontColor=default;" edge="1" parent="1" source="45" target="55">
                    <mxGeometry relative="1" as="geometry"/>
                </mxCell>
                <mxCell id="45" value="&amp;nbsp;Manage Program Feedback&amp;nbsp;&amp;nbsp;" style="html=1;overflow=block;blockSpacing=1;whiteSpace=wrap;fontSize=9;align=center;spacing=9;strokeOpacity=100;fillOpacity=100;rounded=1;absoluteArcSize=1;arcSize=9;fillColor=#ffffff;strokeWidth=1.5;lucidId=3yIeO27-Vfd.;container=0;" vertex="1" parent="1">
                    <mxGeometry x="498.4529411764707" y="-381.00838323353287" width="112.85882352941178" height="38.73612774451097" as="geometry"/>
                </mxCell>
                <mxCell id="46" style="edgeStyle=orthogonalEdgeStyle;rounded=0;orthogonalLoop=1;jettySize=auto;html=1;entryX=0;entryY=0.5;entryDx=0;entryDy=0;fontFamily=Helvetica;fontSize=9;fontColor=default;" edge="1" parent="1" source="50" target="16">
                    <mxGeometry relative="1" as="geometry"/>
                </mxCell>
                <mxCell id="47" value="Website" style="edgeLabel;html=1;align=center;verticalAlign=middle;resizable=0;points=[];rounded=1;strokeColor=default;strokeWidth=1.5;spacing=3.8;arcSize=9;absoluteArcSize=1;fontFamily=Helvetica;fontSize=9;fontColor=default;fillColor=#ffffff;fontStyle=1;container=0;" vertex="1" connectable="0" parent="46">
                    <mxGeometry x="-0.3057" y="-4" relative="1" as="geometry">
                        <mxPoint x="5" y="-4" as="offset"/>
                    </mxGeometry>
                </mxCell>
                <mxCell id="48" style="edgeStyle=orthogonalEdgeStyle;rounded=0;orthogonalLoop=1;jettySize=auto;html=1;fontFamily=Helvetica;fontSize=9;fontColor=default;" edge="1" parent="1" source="50" target="27">
                    <mxGeometry relative="1" as="geometry"/>
                </mxCell>
                <mxCell id="49" value="User" style="edgeLabel;html=1;align=center;verticalAlign=middle;resizable=0;points=[];fontSize=9;fontStyle=1;container=0;" vertex="1" connectable="0" parent="48">
                    <mxGeometry x="0.2074" y="-3" relative="1" as="geometry">
                        <mxPoint x="12" y="3" as="offset"/>
                    </mxGeometry>
                </mxCell>
                <mxCell id="50" value="Is it about the website or the user?&amp;nbsp;&amp;nbsp;" style="html=1;overflow=block;blockSpacing=1;whiteSpace=wrap;fontSize=9;align=center;spacing=9;strokeOpacity=100;fillOpacity=100;rounded=1;absoluteArcSize=1;arcSize=9;fillColor=#ffffff;strokeWidth=1.5;lucidId=waGefKhzuSeb;shape=rhombus;perimeter=rhombusPerimeter;container=0;" vertex="1" parent="1">
                    <mxGeometry x="352.2352941176469" y="-730.6353293413174" width="93.52941176470588" height="64.78283433133734" as="geometry"/>
                </mxCell>
                <mxCell id="51" style="edgeStyle=orthogonalEdgeStyle;rounded=0;orthogonalLoop=1;jettySize=auto;html=1;fontFamily=Helvetica;fontSize=9;fontColor=default;" edge="1" parent="1" source="55" target="57">
                    <mxGeometry relative="1" as="geometry"/>
                </mxCell>
                <mxCell id="52" value="Yes" style="edgeLabel;html=1;align=center;verticalAlign=middle;resizable=0;points=[];rounded=1;strokeColor=default;strokeWidth=1.5;spacing=3.8;arcSize=9;absoluteArcSize=1;fontFamily=Helvetica;fontSize=9;fontColor=default;fillColor=#ffffff;container=0;" vertex="1" connectable="0" parent="51">
                    <mxGeometry x="0.1447" y="4" relative="1" as="geometry">
                        <mxPoint x="-13" y="4" as="offset"/>
                    </mxGeometry>
                </mxCell>
                <mxCell id="53" style="edgeStyle=orthogonalEdgeStyle;rounded=0;orthogonalLoop=1;jettySize=auto;html=1;entryX=0.5;entryY=0;entryDx=0;entryDy=0;fontSize=9;" edge="1" parent="1" source="55" target="61">
                    <mxGeometry relative="1" as="geometry">
                        <mxPoint x="458.23529411764684" y="-271.4786427145709" as="targetPoint"/>
                    </mxGeometry>
                </mxCell>
                <mxCell id="54" value="No" style="edgeLabel;html=1;align=center;verticalAlign=middle;resizable=0;points=[];fontSize=9;container=0;" vertex="1" connectable="0" parent="53">
                    <mxGeometry x="-0.506" relative="1" as="geometry">
                        <mxPoint as="offset"/>
                    </mxGeometry>
                </mxCell>
                <mxCell id="55" value="Is there a positive&amp;nbsp;&lt;div&gt;program feedback ?&amp;nbsp;&amp;nbsp;&lt;/div&gt;" style="html=1;overflow=block;blockSpacing=1;whiteSpace=wrap;rhombus;fontSize=9;align=center;spacing=3.8;strokeOpacity=100;fillOpacity=100;rounded=1;absoluteArcSize=1;arcSize=9;fillColor=#ffffff;strokeWidth=1.5;lucidId=fCIegl_HYYZc;container=0;" vertex="1" parent="1">
                    <mxGeometry x="503.4411764705882" y="-314.8898203592813" width="102.88235294117649" height="86.82235528942117" as="geometry"/>
                </mxCell>
                <mxCell id="56" style="edgeStyle=orthogonalEdgeStyle;rounded=0;orthogonalLoop=1;jettySize=auto;html=1;entryX=1;entryY=0.5;entryDx=0;entryDy=0;fontFamily=Helvetica;fontSize=9;fontColor=default;exitX=0.5;exitY=1;exitDx=0;exitDy=0;" edge="1" parent="1" source="57" target="59">
                    <mxGeometry relative="1" as="geometry"/>
                </mxCell>
                <mxCell id="57" value="Approve/Display&amp;nbsp;&lt;div&gt;Program Feedback&amp;nbsp;&amp;nbsp;&lt;/div&gt;" style="html=1;overflow=block;blockSpacing=1;whiteSpace=wrap;fontSize=9;align=center;spacing=9;strokeOpacity=100;fillOpacity=100;rounded=1;absoluteArcSize=1;arcSize=9;fillColor=#ffffff;strokeWidth=1.5;lucidId=3yIeO27-Vfd.;container=0;" vertex="1" parent="1">
                    <mxGeometry x="645.2941176470588" y="-290.8467065868264" width="99.76470588235296" height="38.73612774451097" as="geometry"/>
                </mxCell>
                <mxCell id="58" style="edgeStyle=orthogonalEdgeStyle;rounded=0;orthogonalLoop=1;jettySize=auto;html=1;entryX=1;entryY=0.5;entryDx=0;entryDy=0;fontFamily=Helvetica;fontSize=9;fontColor=default;" edge="1" parent="1" source="59" target="61">
                    <mxGeometry relative="1" as="geometry"/>
                </mxCell>
                <mxCell id="59" value="Display Content on Website&amp;nbsp;&amp;nbsp;" style="html=1;overflow=block;blockSpacing=1;whiteSpace=wrap;fontSize=9;align=center;spacing=9;strokeOpacity=100;fillOpacity=100;rounded=1;absoluteArcSize=1;arcSize=9;fillColor=#ffffff;strokeWidth=1.5;lucidId=3yIeO27-Vfd.;container=0;" vertex="1" parent="1">
                    <mxGeometry x="503.4411764705882" y="-203.35648702594813" width="112.85882352941178" height="38.73612774451097" as="geometry"/>
                </mxCell>
                <mxCell id="60" style="edgeStyle=orthogonalEdgeStyle;rounded=0;orthogonalLoop=1;jettySize=auto;html=1;entryX=0.5;entryY=0;entryDx=0;entryDy=0;fontFamily=Helvetica;fontSize=9;fontColor=default;" edge="1" parent="1" source="61" target="4">
                    <mxGeometry relative="1" as="geometry"/>
                </mxCell>
                <mxCell id="61" value="Review and Confirm Admin Actions" style="html=1;overflow=block;blockSpacing=1;whiteSpace=wrap;fontSize=9;align=center;spacing=9;strokeOpacity=100;fillOpacity=100;rounded=1;absoluteArcSize=1;arcSize=9;fillColor=#ffffff;strokeWidth=1.5;lucidId=AIIeBV2GiUl_;container=0;" vertex="1" parent="1">
                    <mxGeometry x="339.76470588235287" y="-199.68323353293397" width="110.03423529411765" height="31.38962075848303" as="geometry"/>
                </mxCell>
                <mxCell id="62" value="" style="group" vertex="1" connectable="0" parent="1">
                    <mxGeometry x="154.70529411764687" y="-1070.0035728542914" width="431.9694117647059" height="318.96604790419156" as="geometry"/>
                </mxCell>
                <mxCell id="63" value="View Admin Dashboard" style="html=1;overflow=block;blockSpacing=1;whiteSpace=wrap;fontSize=9;align=center;spacing=9;strokeOpacity=100;fillOpacity=100;rounded=1;absoluteArcSize=1;arcSize=9;fillColor=#ffffff;strokeWidth=1.5;lucidId=waGefKhzuSeb;container=0;" vertex="1" parent="62">
                    <mxGeometry x="197.53000000000003" y="278.8941916167664" width="93.52941176470588" height="40.071856287425156" as="geometry"/>
                </mxCell>
                <mxCell id="64" value="" style="group" vertex="1" connectable="0" parent="62">
                    <mxGeometry width="431.9694117647059" height="315.07185628742513" as="geometry"/>
                </mxCell>
                <mxCell id="65" style="edgeStyle=orthogonalEdgeStyle;rounded=0;orthogonalLoop=1;jettySize=auto;html=1;exitX=0.5;exitY=1;exitDx=0;exitDy=0;entryX=0.5;entryY=0;entryDx=0;entryDy=0;" edge="1" parent="64" target="80">
                    <mxGeometry relative="1" as="geometry">
                        <mxPoint x="244.2947058823529" y="65.8618562874251" as="sourcePoint"/>
                    </mxGeometry>
                </mxCell>
                <mxCell id="66" value="Login as Administrator" style="html=1;overflow=block;blockSpacing=1;whiteSpace=wrap;fontSize=9;align=center;spacing=9;strokeOpacity=100;fillOpacity=100;rounded=1;absoluteArcSize=1;arcSize=9;fillColor=#ffffff;strokeWidth=1.5;lucidId=waGefKhzuSeb;container=0;" vertex="1" parent="64">
                    <mxGeometry x="197.53000000000003" y="55.789999999999964" width="93.52941176470588" height="40.071856287425156" as="geometry"/>
                </mxCell>
                <mxCell id="67" style="edgeStyle=orthogonalEdgeStyle;rounded=0;orthogonalLoop=1;jettySize=auto;html=1;exitX=0.5;exitY=1;exitDx=0;exitDy=0;entryX=0.5;entryY=0;entryDx=0;entryDy=0;" edge="1" parent="64" source="68" target="71">
                    <mxGeometry relative="1" as="geometry">
                        <mxPoint x="101.05470588235289" y="203.0082435129741" as="targetPoint"/>
                    </mxGeometry>
                </mxCell>
                <mxCell id="68" value="Enter Account&amp;nbsp; Credential" style="html=1;overflow=block;blockSpacing=1;whiteSpace=wrap;fontSize=9;align=center;spacing=9;strokeOpacity=100;fillOpacity=100;rounded=1;absoluteArcSize=1;arcSize=9;fillColor=#ffffff;strokeWidth=1.5;lucidId=waGefKhzuSeb;container=0;" vertex="1" parent="64">
                    <mxGeometry x="53.29000000000002" y="136.78999999999996" width="93.52941176470588" height="40.071856287425156" as="geometry"/>
                </mxCell>
                <mxCell id="69" style="edgeStyle=orthogonalEdgeStyle;rounded=0;orthogonalLoop=1;jettySize=auto;html=1;exitX=0;exitY=0.5;exitDx=0;exitDy=0;" edge="1" parent="64" source="71" target="73">
                    <mxGeometry relative="1" as="geometry">
                        <mxPoint x="44.29470588235313" y="248.0035728542914" as="targetPoint"/>
                        <Array as="points">
                            <mxPoint x="45.29470588235313" y="226.0035728542914"/>
                        </Array>
                    </mxGeometry>
                </mxCell>
                <mxCell id="70" value="No" style="edgeLabel;html=1;align=center;verticalAlign=middle;resizable=0;points=[];" vertex="1" connectable="0" parent="69">
                    <mxGeometry x="-0.7008" y="-2" relative="1" as="geometry">
                        <mxPoint as="offset"/>
                    </mxGeometry>
                </mxCell>
                <mxCell id="71" value="Is the credentials correct?" style="html=1;overflow=block;blockSpacing=1;whiteSpace=wrap;fontSize=9;align=center;spacing=9;strokeOpacity=100;fillOpacity=100;rounded=1;absoluteArcSize=1;arcSize=9;fillColor=#ffffff;strokeWidth=1.5;lucidId=waGefKhzuSeb;shape=rhombus;perimeter=rhombusPerimeter;container=0;" vertex="1" parent="64">
                    <mxGeometry x="54.29000000000002" y="194.008243512974" width="93.52941176470588" height="64.78283433133734" as="geometry"/>
                </mxCell>
                <mxCell id="72" style="edgeStyle=orthogonalEdgeStyle;rounded=0;orthogonalLoop=1;jettySize=auto;html=1;exitX=0;exitY=0.5;exitDx=0;exitDy=0;entryX=0;entryY=0.5;entryDx=0;entryDy=0;" edge="1" parent="64" source="73" target="68">
                    <mxGeometry relative="1" as="geometry"/>
                </mxCell>
                <mxCell id="73" value="Error Message" style="html=1;overflow=block;blockSpacing=1;whiteSpace=wrap;fontSize=9;align=center;spacing=9;strokeOpacity=100;fillOpacity=100;rounded=1;absoluteArcSize=1;arcSize=9;fillColor=#ffffff;strokeWidth=1.5;lucidId=waGefKhzuSeb;container=0;" vertex="1" parent="64">
                    <mxGeometry y="275" width="93.52941176470588" height="40.071856287425156" as="geometry"/>
                </mxCell>
                <mxCell id="74" style="edgeStyle=orthogonalEdgeStyle;rounded=0;orthogonalLoop=1;jettySize=auto;html=1;exitX=0.5;exitY=1;exitDx=0;exitDy=0;entryX=0.5;entryY=0;entryDx=0;entryDy=0;" edge="1" parent="64" target="83">
                    <mxGeometry relative="1" as="geometry">
                        <mxPoint x="385.204705882353" y="175.8618562874251" as="sourcePoint"/>
                    </mxGeometry>
                </mxCell>
                <mxCell id="75" value="Login with Google" style="html=1;overflow=block;blockSpacing=1;whiteSpace=wrap;fontSize=9;align=center;spacing=9;strokeOpacity=100;fillOpacity=100;rounded=1;absoluteArcSize=1;arcSize=9;fillColor=#ffffff;strokeWidth=1.5;lucidId=waGefKhzuSeb;container=0;" vertex="1" parent="64">
                    <mxGeometry x="338.44" y="134.78999999999996" width="93.52941176470588" height="40.071856287425156" as="geometry"/>
                </mxCell>
                <mxCell id="76" style="edgeStyle=orthogonalEdgeStyle;rounded=0;orthogonalLoop=1;jettySize=auto;html=1;exitX=1;exitY=0.5;exitDx=0;exitDy=0;entryX=0;entryY=0.5;entryDx=0;entryDy=0;" edge="1" parent="64" source="80" target="75">
                    <mxGeometry relative="1" as="geometry"/>
                </mxCell>
                <mxCell id="77" value="Google" style="edgeLabel;html=1;align=center;verticalAlign=middle;resizable=0;points=[];" vertex="1" connectable="0" parent="76">
                    <mxGeometry x="-0.4962" y="-2" relative="1" as="geometry">
                        <mxPoint x="6" y="-4" as="offset"/>
                    </mxGeometry>
                </mxCell>
                <mxCell id="78" style="edgeStyle=orthogonalEdgeStyle;rounded=0;orthogonalLoop=1;jettySize=auto;html=1;exitX=0;exitY=0.5;exitDx=0;exitDy=0;entryX=1;entryY=0.5;entryDx=0;entryDy=0;" edge="1" parent="64" source="80" target="68">
                    <mxGeometry relative="1" as="geometry"/>
                </mxCell>
                <mxCell id="79" value="Manual" style="edgeLabel;html=1;align=center;verticalAlign=middle;resizable=0;points=[];" vertex="1" connectable="0" parent="78">
                    <mxGeometry x="-0.1394" y="-2" relative="1" as="geometry">
                        <mxPoint as="offset"/>
                    </mxGeometry>
                </mxCell>
                <mxCell id="80" value="How do you want to log in?" style="html=1;overflow=block;blockSpacing=1;whiteSpace=wrap;fontSize=9;align=center;spacing=9;strokeOpacity=100;fillOpacity=100;rounded=1;absoluteArcSize=1;arcSize=9;fillColor=#ffffff;strokeWidth=1.5;lucidId=waGefKhzuSeb;shape=rhombus;perimeter=rhombusPerimeter;container=0;" vertex="1" parent="64">
                    <mxGeometry x="197.53000000000003" y="125.22824351297402" width="93.52941176470588" height="64.78283433133734" as="geometry"/>
                </mxCell>
                <mxCell id="81" style="edgeStyle=orthogonalEdgeStyle;rounded=0;orthogonalLoop=1;jettySize=auto;html=1;exitX=1;exitY=0.5;exitDx=0;exitDy=0;entryX=1;entryY=0.5;entryDx=0;entryDy=0;" edge="1" parent="64" source="83" target="85">
                    <mxGeometry relative="1" as="geometry"/>
                </mxCell>
                <mxCell id="82" value="No" style="edgeLabel;html=1;align=center;verticalAlign=middle;resizable=0;points=[];" vertex="1" connectable="0" parent="81">
                    <mxGeometry x="-0.9319" y="1" relative="1" as="geometry">
                        <mxPoint as="offset"/>
                    </mxGeometry>
                </mxCell>
                <mxCell id="83" value="Is email registered?" style="html=1;overflow=block;blockSpacing=1;whiteSpace=wrap;fontSize=9;align=center;spacing=9;strokeOpacity=100;fillOpacity=100;rounded=1;absoluteArcSize=1;arcSize=9;fillColor=#ffffff;strokeWidth=1.5;lucidId=waGefKhzuSeb;shape=rhombus;perimeter=rhombusPerimeter;container=0;" vertex="1" parent="64">
                    <mxGeometry x="338.44" y="196.008243512974" width="93.52941176470588" height="64.78283433133734" as="geometry"/>
                </mxCell>
                <mxCell id="84" style="edgeStyle=orthogonalEdgeStyle;rounded=0;orthogonalLoop=1;jettySize=auto;html=1;exitX=0.5;exitY=1;exitDx=0;exitDy=0;entryX=0.5;entryY=0;entryDx=0;entryDy=0;" edge="1" parent="64" source="85" target="66">
                    <mxGeometry relative="1" as="geometry"/>
                </mxCell>
                <mxCell id="85" value="Login Page" style="html=1;overflow=block;blockSpacing=1;whiteSpace=wrap;fontSize=9;align=center;spacing=9;strokeOpacity=100;fillOpacity=100;rounded=1;absoluteArcSize=1;arcSize=9;fillColor=#ffffff;strokeWidth=1.5;lucidId=waGefKhzuSeb;container=0;" vertex="1" parent="64">
                    <mxGeometry x="197.5300000000001" width="93.52941176470588" height="40.071856287425156" as="geometry"/>
                </mxCell>
                <mxCell id="86" style="edgeStyle=orthogonalEdgeStyle;rounded=0;orthogonalLoop=1;jettySize=auto;html=1;exitX=1;exitY=0.5;exitDx=0;exitDy=0;entryX=0;entryY=0.5;entryDx=0;entryDy=0;" edge="1" parent="62" source="71" target="63">
                    <mxGeometry relative="1" as="geometry">
                        <Array as="points">
                            <mxPoint x="165.29470588235313" y="226.0035728542914"/>
                            <mxPoint x="165.29470588235313" y="299.0035728542914"/>
                        </Array>
                    </mxGeometry>
                </mxCell>
                <mxCell id="87" value="Yes" style="edgeLabel;html=1;align=center;verticalAlign=middle;resizable=0;points=[];" vertex="1" connectable="0" parent="86">
                    <mxGeometry x="-0.7249" y="-1" relative="1" as="geometry">
                        <mxPoint as="offset"/>
                    </mxGeometry>
                </mxCell>
                <mxCell id="88" style="edgeStyle=orthogonalEdgeStyle;rounded=0;orthogonalLoop=1;jettySize=auto;html=1;exitX=0;exitY=0.5;exitDx=0;exitDy=0;entryX=1;entryY=0.5;entryDx=0;entryDy=0;" edge="1" parent="62" source="83" target="63">
                    <mxGeometry relative="1" as="geometry"/>
                </mxCell>
                <mxCell id="89" value="Yes" style="edgeLabel;html=1;align=center;verticalAlign=middle;resizable=0;points=[];" vertex="1" connectable="0" parent="88">
                    <mxGeometry x="-0.4241" y="-2" relative="1" as="geometry">
                        <mxPoint as="offset"/>
                    </mxGeometry>
                </mxCell>
            </root>
        </mxGraphModel>
    </diagram>
    <diagram id="tzsQwoaww5zsz3Xo3uu8" name="Content Manager">
        <mxGraphModel dx="658" dy="1126" grid="1" gridSize="10" guides="1" tooltips="1" connect="1" arrows="1" fold="1" page="1" pageScale="1" pageWidth="850" pageHeight="1100" math="0" shadow="0">
            <root>
                <mxCell id="0"/>
                <mxCell id="1" parent="0"/>
                <mxCell id="AQ0bS5fHFFgYjJkL38fF-1" style="edgeStyle=orthogonalEdgeStyle;rounded=0;orthogonalLoop=1;jettySize=auto;html=1;exitX=0.5;exitY=0;exitDx=0;exitDy=0;entryX=0.5;entryY=0;entryDx=0;entryDy=0;" edge="1" parent="1" source="AQ0bS5fHFFgYjJkL38fF-2" target="AQ0bS5fHFFgYjJkL38fF-67">
                    <mxGeometry relative="1" as="geometry"/>
                </mxCell>
                <mxCell id="AQ0bS5fHFFgYjJkL38fF-2" value="Start" style="html=1;overflow=block;blockSpacing=1;whiteSpace=wrap;fontSize=11;align=center;spacing=3.8;strokeOpacity=100;fillOpacity=100;rounded=1;absoluteArcSize=1;arcSize=9;fillColor=#ffffff;strokeWidth=1.5;lucidId=UR-dnaTHFgFv;direction=west;shape=ellipse;perimeter=ellipsePerimeter;aspect=fixed;container=0;" vertex="1" parent="1">
                    <mxGeometry x="1132.7576708549675" y="142" width="80.95534666097947" height="40.477673330489736" as="geometry"/>
                </mxCell>
                <mxCell id="AQ0bS5fHFFgYjJkL38fF-3" style="edgeStyle=orthogonalEdgeStyle;rounded=0;orthogonalLoop=1;jettySize=auto;html=1;entryX=0;entryY=0.5;entryDx=0;entryDy=0;fontSize=11;exitX=0.75;exitY=1;exitDx=0;exitDy=0;" edge="1" parent="1" source="AQ0bS5fHFFgYjJkL38fF-4" target="AQ0bS5fHFFgYjJkL38fF-36">
                    <mxGeometry relative="1" as="geometry"/>
                </mxCell>
                <mxCell id="AQ0bS5fHFFgYjJkL38fF-4" value="View Content Management Dashboard" style="html=1;overflow=block;blockSpacing=1;whiteSpace=wrap;fontSize=11;align=center;spacing=9;strokeOpacity=100;fillOpacity=100;rounded=1;absoluteArcSize=1;arcSize=9;fillColor=#ffffff;strokeWidth=1.5;lucidId=KgFe4gHYeVUh;container=0;" vertex="1" parent="1">
                    <mxGeometry x="1100.875206302931" y="410.0415418913499" width="147.14067149345252" height="64.90735195171106" as="geometry"/>
                </mxCell>
                <mxCell id="AQ0bS5fHFFgYjJkL38fF-5" style="edgeStyle=orthogonalEdgeStyle;rounded=0;orthogonalLoop=1;jettySize=auto;html=1;entryX=0.5;entryY=0;entryDx=0;entryDy=0;fontSize=11;" edge="1" parent="1" source="AQ0bS5fHFFgYjJkL38fF-4" target="AQ0bS5fHFFgYjJkL38fF-7">
                    <mxGeometry relative="1" as="geometry">
                        <mxPoint x="1174.0646194990904" y="499.28915082495257" as="sourcePoint"/>
                    </mxGeometry>
                </mxCell>
                <mxCell id="AQ0bS5fHFFgYjJkL38fF-6" style="edgeStyle=orthogonalEdgeStyle;rounded=0;orthogonalLoop=1;jettySize=auto;html=1;entryX=0.5;entryY=0;entryDx=0;entryDy=0;fontSize=11;" edge="1" parent="1" source="AQ0bS5fHFFgYjJkL38fF-7" target="AQ0bS5fHFFgYjJkL38fF-9">
                    <mxGeometry relative="1" as="geometry"/>
                </mxCell>
                <mxCell id="AQ0bS5fHFFgYjJkL38fF-7" value="Check for Content Approval" style="html=1;overflow=block;blockSpacing=1;whiteSpace=wrap;fontSize=11;align=center;spacing=9;strokeOpacity=100;fillOpacity=100;rounded=1;absoluteArcSize=1;arcSize=9;fillColor=#ffffff;strokeWidth=1.5;lucidId=GiFevdnHZEMS;container=0;" vertex="1" parent="1">
                    <mxGeometry x="1118.054066426532" y="507.4025698189164" width="112.0360442843547" height="48.680513963783284" as="geometry"/>
                </mxCell>
                <mxCell id="AQ0bS5fHFFgYjJkL38fF-8" value="End" style="html=1;overflow=block;blockSpacing=1;whiteSpace=wrap;fontSize=11;align=center;spacing=3.8;strokeOpacity=100;fillOpacity=100;rounded=1;absoluteArcSize=1;arcSize=9;fillColor=#ffffff;strokeWidth=1.5;lucidId=kkFeTPTXEj3Y;shape=ellipse;perimeter=ellipsePerimeter;aspect=fixed;container=0;" vertex="1" parent="1">
                    <mxGeometry x="1304.7808069004566" y="964.9994010784793" width="80.95534666097947" height="40.477673330489736" as="geometry"/>
                </mxCell>
                <mxCell id="AQ0bS5fHFFgYjJkL38fF-9" value="Is there a new content?" style="html=1;overflow=block;blockSpacing=1;whiteSpace=wrap;rhombus;fontSize=11;align=center;spacing=3.8;strokeOpacity=100;fillOpacity=100;rounded=1;absoluteArcSize=1;arcSize=9;fillColor=#ffffff;strokeWidth=1.5;lucidId=psFefLgXC~y2;container=0;" vertex="1" parent="1">
                    <mxGeometry x="1124.0293221216975" y="596.6501787525192" width="100.83243985591923" height="81.1341899396388" as="geometry"/>
                </mxCell>
                <mxCell id="AQ0bS5fHFFgYjJkL38fF-10" value="" style="html=1;jettySize=18;whiteSpace=wrap;fontSize=11;fontColor=#333333;fontStyle=1;align=center;strokeColor=#3a414a;strokeOpacity=100;strokeWidth=1.5;rounded=1;arcSize=12;edgeStyle=orthogonalEdgeStyle;startArrow=none;endArrow=block;endFill=1;exitX=0.989;exitY=0.5;exitPerimeter=0;entryX=-0.005;entryY=0.5;entryPerimeter=0;lucidId=MuFeupZ.YswE;" edge="1" parent="1" source="AQ0bS5fHFFgYjJkL38fF-9" target="AQ0bS5fHFFgYjJkL38fF-12">
                    <mxGeometry width="100" height="100" relative="1" as="geometry">
                        <Array as="points"/>
                    </mxGeometry>
                </mxCell>
                <mxCell id="AQ0bS5fHFFgYjJkL38fF-11" value="Yes" style="text;html=1;resizable=0;labelBackgroundColor=default;align=center;verticalAlign=middle;fontStyle=1;fontColor=#333333;fontSize=11;container=0;" vertex="1" parent="AQ0bS5fHFFgYjJkL38fF-10">
                    <mxGeometry relative="1" as="geometry"/>
                </mxCell>
                <mxCell id="AQ0bS5fHFFgYjJkL38fF-12" value="Review Content&amp;nbsp;" style="html=1;overflow=block;blockSpacing=1;whiteSpace=wrap;fontSize=11;align=center;spacing=9;strokeOpacity=100;fillOpacity=100;rounded=1;absoluteArcSize=1;arcSize=9;fillColor=#ffffff;strokeWidth=1.5;lucidId=0uFe-A.BNOs.;container=0;" vertex="1" parent="1">
                    <mxGeometry x="1292.8302955101256" y="612.8770167404468" width="112.0360442843547" height="48.680513963783284" as="geometry"/>
                </mxCell>
                <mxCell id="AQ0bS5fHFFgYjJkL38fF-13" value="" style="html=1;jettySize=18;whiteSpace=wrap;fontSize=11;strokeColor=#3a414a;strokeOpacity=100;strokeWidth=1.5;rounded=1;arcSize=12;edgeStyle=orthogonalEdgeStyle;startArrow=none;endArrow=block;endFill=1;exitX=0.5;exitY=1.012;exitPerimeter=0;entryX=0.5;entryY=-0.012;entryPerimeter=0;lucidId=xvFeYex5Kjti;" edge="1" parent="1" source="AQ0bS5fHFFgYjJkL38fF-12" target="AQ0bS5fHFFgYjJkL38fF-16">
                    <mxGeometry width="100" height="100" relative="1" as="geometry">
                        <Array as="points"/>
                    </mxGeometry>
                </mxCell>
                <mxCell id="AQ0bS5fHFFgYjJkL38fF-14" style="edgeStyle=orthogonalEdgeStyle;rounded=0;orthogonalLoop=1;jettySize=auto;html=1;fontSize=11;" edge="1" parent="1" source="AQ0bS5fHFFgYjJkL38fF-16" target="AQ0bS5fHFFgYjJkL38fF-37">
                    <mxGeometry relative="1" as="geometry"/>
                </mxCell>
                <mxCell id="AQ0bS5fHFFgYjJkL38fF-15" value="No" style="edgeLabel;html=1;align=center;verticalAlign=middle;resizable=0;points=[];fontSize=11;container=0;" vertex="1" connectable="0" parent="AQ0bS5fHFFgYjJkL38fF-14">
                    <mxGeometry x="-0.3121" relative="1" as="geometry">
                        <mxPoint x="6" as="offset"/>
                    </mxGeometry>
                </mxCell>
                <mxCell id="AQ0bS5fHFFgYjJkL38fF-16" value="Approved&amp;nbsp;&lt;div&gt;Content?&lt;/div&gt;" style="html=1;overflow=block;blockSpacing=1;whiteSpace=wrap;fontSize=11;align=center;spacing=9;strokeOpacity=100;fillOpacity=100;rounded=1;absoluteArcSize=1;arcSize=9;fillColor=#ffffff;strokeWidth=1.5;lucidId=CvFexss_niJ.;shape=rhombus;perimeter=rhombusPerimeter;container=0;" vertex="1" parent="1">
                    <mxGeometry x="1292.8302955101256" y="689.9544971831037" width="112.78295124625039" height="48.680513963783284" as="geometry"/>
                </mxCell>
                <mxCell id="AQ0bS5fHFFgYjJkL38fF-17" value="Verify Content" style="html=1;overflow=block;blockSpacing=1;whiteSpace=wrap;fontSize=11;align=center;spacing=9;strokeOpacity=100;fillOpacity=100;rounded=1;absoluteArcSize=1;arcSize=9;fillColor=#ffffff;strokeWidth=1.5;lucidId=wwFevOsX9Zwb;container=0;" vertex="1" parent="1">
                    <mxGeometry x="1118.054066426532" y="766.2206357263643" width="112.0360442843547" height="48.680513963783284" as="geometry"/>
                </mxCell>
                <mxCell id="AQ0bS5fHFFgYjJkL38fF-18" value="Is the content complete?" style="html=1;overflow=block;blockSpacing=1;whiteSpace=wrap;rhombus;fontSize=11;align=center;spacing=3.8;strokeOpacity=100;fillOpacity=100;rounded=1;absoluteArcSize=1;arcSize=9;fillColor=#ffffff;strokeWidth=1.5;lucidId=YwFe2C~ejDQH;container=0;" vertex="1" parent="1">
                    <mxGeometry x="1124.0293221216975" y="852.2228770623814" width="100.83243985591923" height="81.1341899396388" as="geometry"/>
                </mxCell>
                <mxCell id="AQ0bS5fHFFgYjJkL38fF-19" value="" style="html=1;jettySize=18;whiteSpace=wrap;fontSize=11;strokeColor=#3a414a;strokeOpacity=100;strokeWidth=1.5;rounded=1;arcSize=12;edgeStyle=orthogonalEdgeStyle;startArrow=none;endArrow=block;endFill=1;exitX=0.5;exitY=1;exitPerimeter=0;entryX=0.5;entryY=0;lucidId=ExFeO60klITX;entryDx=0;entryDy=0;" edge="1" parent="1" source="AQ0bS5fHFFgYjJkL38fF-16" target="AQ0bS5fHFFgYjJkL38fF-32">
                    <mxGeometry width="100" height="100" relative="1" as="geometry">
                        <Array as="points"/>
                        <mxPoint x="1348.848317652303" y="767.0319776257606" as="targetPoint"/>
                    </mxGeometry>
                </mxCell>
                <mxCell id="AQ0bS5fHFFgYjJkL38fF-20" value="Yes" style="edgeLabel;html=1;align=center;verticalAlign=middle;resizable=0;points=[];fontSize=11;container=0;" vertex="1" connectable="0" parent="AQ0bS5fHFFgYjJkL38fF-19">
                    <mxGeometry x="-0.4066" y="2" relative="1" as="geometry">
                        <mxPoint x="-1" y="-13" as="offset"/>
                    </mxGeometry>
                </mxCell>
                <mxCell id="AQ0bS5fHFFgYjJkL38fF-21" value="" style="html=1;jettySize=18;whiteSpace=wrap;fontSize=11;fontColor=#333333;fontStyle=1;align=center;strokeColor=#3a414a;strokeOpacity=100;strokeWidth=1.5;rounded=1;arcSize=12;edgeStyle=orthogonalEdgeStyle;startArrow=none;endArrow=block;endFill=1;exitX=0.011;exitY=0.5;exitPerimeter=0;entryX=1.005;entryY=0.5;entryPerimeter=0;lucidId=~xFeyMYS9eD.;" edge="1" parent="1" source="AQ0bS5fHFFgYjJkL38fF-18" target="AQ0bS5fHFFgYjJkL38fF-23">
                    <mxGeometry width="100" height="100" relative="1" as="geometry">
                        <Array as="points"/>
                    </mxGeometry>
                </mxCell>
                <mxCell id="AQ0bS5fHFFgYjJkL38fF-22" value="No" style="text;html=1;resizable=0;labelBackgroundColor=default;align=center;verticalAlign=middle;fontStyle=1;fontColor=#333333;fontSize=11;container=0;" vertex="1" parent="AQ0bS5fHFFgYjJkL38fF-21">
                    <mxGeometry relative="1" as="geometry"/>
                </mxCell>
                <mxCell id="AQ0bS5fHFFgYjJkL38fF-23" value="Save as Draft" style="html=1;overflow=block;blockSpacing=1;whiteSpace=wrap;fontSize=11;align=center;spacing=9;strokeOpacity=100;fillOpacity=100;rounded=1;absoluteArcSize=1;arcSize=9;fillColor=#ffffff;strokeWidth=1.5;lucidId=fyFer0GWJ4~4;container=0;" vertex="1" parent="1">
                    <mxGeometry x="976.1417436663495" y="868.4497150503091" width="112.0360442843547" height="48.680513963783284" as="geometry"/>
                </mxCell>
                <mxCell id="AQ0bS5fHFFgYjJkL38fF-24" value="" style="html=1;jettySize=18;whiteSpace=wrap;fontSize=11;fontColor=#333333;fontStyle=1;align=center;strokeColor=#3a414a;strokeOpacity=100;strokeWidth=1.5;rounded=1;arcSize=12;edgeStyle=orthogonalEdgeStyle;startArrow=none;endArrow=block;endFill=1;exitX=0;exitY=0.5;exitPerimeter=0;entryX=1;entryY=0.5;entryPerimeter=0;lucidId=lBFe3gv3FiLO;" edge="1" parent="1" source="AQ0bS5fHFFgYjJkL38fF-9" target="AQ0bS5fHFFgYjJkL38fF-26">
                    <mxGeometry width="100" height="100" relative="1" as="geometry">
                        <Array as="points"/>
                    </mxGeometry>
                </mxCell>
                <mxCell id="AQ0bS5fHFFgYjJkL38fF-25" value="No" style="text;html=1;resizable=0;labelBackgroundColor=default;align=center;verticalAlign=middle;fontStyle=1;fontColor=#333333;fontSize=11;container=0;" vertex="1" parent="AQ0bS5fHFFgYjJkL38fF-24">
                    <mxGeometry relative="1" as="geometry"/>
                </mxCell>
                <mxCell id="AQ0bS5fHFFgYjJkL38fF-26" value="Create Content" style="html=1;overflow=block;blockSpacing=1;whiteSpace=wrap;fontSize=11;align=center;spacing=9;strokeOpacity=100;fillOpacity=100;rounded=1;absoluteArcSize=1;arcSize=9;fillColor=#ffffff;strokeWidth=1.5;lucidId=GLFeZ~ix1.hV;container=0;" vertex="1" parent="1">
                    <mxGeometry x="972.407208856871" y="612.8770167404468" width="112.0360442843547" height="48.680513963783284" as="geometry"/>
                </mxCell>
                <mxCell id="AQ0bS5fHFFgYjJkL38fF-27" value="Draft and Edit Content" style="html=1;overflow=block;blockSpacing=1;whiteSpace=wrap;fontSize=11;align=center;spacing=9;strokeOpacity=100;fillOpacity=100;rounded=1;absoluteArcSize=1;arcSize=9;fillColor=#ffffff;strokeWidth=1.5;lucidId=aMFed9Lv0Pjx;container=0;" vertex="1" parent="1">
                    <mxGeometry x="972.407208856871" y="689.9544971831037" width="112.0360442843547" height="48.680513963783284" as="geometry"/>
                </mxCell>
                <mxCell id="AQ0bS5fHFFgYjJkL38fF-28" value="" style="html=1;jettySize=18;whiteSpace=wrap;fontSize=11;strokeColor=#3a414a;strokeOpacity=100;strokeWidth=1.5;rounded=1;arcSize=12;edgeStyle=orthogonalEdgeStyle;startArrow=none;endArrow=block;endFill=1;exitX=0.5;exitY=1.012;exitPerimeter=0;entryX=0.5;entryY=-0.012;entryPerimeter=0;lucidId=WNFe2XSTVv0_;" edge="1" parent="1" source="AQ0bS5fHFFgYjJkL38fF-26" target="AQ0bS5fHFFgYjJkL38fF-27">
                    <mxGeometry width="100" height="100" relative="1" as="geometry">
                        <Array as="points"/>
                    </mxGeometry>
                </mxCell>
                <mxCell id="AQ0bS5fHFFgYjJkL38fF-29" value="" style="html=1;jettySize=18;whiteSpace=wrap;fontSize=11;strokeColor=#3a414a;strokeOpacity=100;strokeWidth=1.5;rounded=1;arcSize=12;edgeStyle=orthogonalEdgeStyle;startArrow=none;endArrow=block;endFill=1;exitX=0.5;exitY=1;exitPerimeter=0;entryX=0;entryY=0.5;entryPerimeter=0;lucidId=OQFesQyYFfrw;" edge="1" parent="1" source="AQ0bS5fHFFgYjJkL38fF-27" target="AQ0bS5fHFFgYjJkL38fF-17">
                    <mxGeometry width="100" height="100" relative="1" as="geometry">
                        <Array as="points"/>
                    </mxGeometry>
                </mxCell>
                <mxCell id="AQ0bS5fHFFgYjJkL38fF-30" value="" style="html=1;jettySize=18;whiteSpace=wrap;fontSize=11;strokeColor=#3a414a;strokeOpacity=100;strokeWidth=1.5;rounded=1;arcSize=12;edgeStyle=orthogonalEdgeStyle;startArrow=none;endArrow=block;endFill=1;exitX=0.5;exitY=1;exitPerimeter=0;entryX=0.5;entryY=0;entryPerimeter=0;lucidId=cRFeSI66nhWS;" edge="1" parent="1" source="AQ0bS5fHFFgYjJkL38fF-17" target="AQ0bS5fHFFgYjJkL38fF-18">
                    <mxGeometry width="100" height="100" relative="1" as="geometry">
                        <Array as="points"/>
                    </mxGeometry>
                </mxCell>
                <mxCell id="AQ0bS5fHFFgYjJkL38fF-31" value="" style="html=1;jettySize=18;whiteSpace=wrap;fontSize=11;strokeColor=#3a414a;strokeOpacity=100;strokeWidth=1.5;rounded=1;arcSize=12;edgeStyle=orthogonalEdgeStyle;startArrow=none;endArrow=block;endFill=1;exitX=0.006;exitY=0.625;exitPerimeter=0;lucidId=jSFeZVcCkvdB;entryX=0;entryY=0.5;entryDx=0;entryDy=0;exitDx=0;exitDy=0;" edge="1" parent="1" source="AQ0bS5fHFFgYjJkL38fF-23" target="AQ0bS5fHFFgYjJkL38fF-27">
                    <mxGeometry width="100" height="100" relative="1" as="geometry">
                        <Array as="points">
                            <mxPoint x="950" y="899.2807072273719"/>
                            <mxPoint x="950" y="714.2947541649954"/>
                        </Array>
                        <mxPoint x="1032.1597658085268" y="917.1302290140924" as="sourcePoint"/>
                        <mxPoint x="942.530930381043" y="807.59907259558" as="targetPoint"/>
                    </mxGeometry>
                </mxCell>
                <mxCell id="AQ0bS5fHFFgYjJkL38fF-32" value="Publish Content" style="html=1;overflow=block;blockSpacing=1;whiteSpace=wrap;fontSize=11;align=center;spacing=9;strokeOpacity=100;fillOpacity=100;rounded=1;absoluteArcSize=1;arcSize=9;fillColor=#ffffff;strokeWidth=1.5;lucidId=QxFeVUT5ef7y;container=0;" vertex="1" parent="1">
                    <mxGeometry x="1293.5772024720209" y="868.4497150503091" width="112.0360442843547" height="48.680513963783284" as="geometry"/>
                </mxCell>
                <mxCell id="AQ0bS5fHFFgYjJkL38fF-33" style="edgeStyle=orthogonalEdgeStyle;rounded=0;orthogonalLoop=1;jettySize=auto;html=1;fontSize=11;" edge="1" parent="1" source="AQ0bS5fHFFgYjJkL38fF-18">
                    <mxGeometry relative="1" as="geometry">
                        <mxPoint x="1293.5398571239264" y="892.7899720322008" as="targetPoint"/>
                    </mxGeometry>
                </mxCell>
                <mxCell id="AQ0bS5fHFFgYjJkL38fF-34" value="Yes" style="edgeLabel;html=1;align=center;verticalAlign=middle;resizable=0;points=[];fontSize=11;fontStyle=1;container=0;" vertex="1" connectable="0" parent="AQ0bS5fHFFgYjJkL38fF-33">
                    <mxGeometry x="0.1939" relative="1" as="geometry">
                        <mxPoint x="-12" as="offset"/>
                    </mxGeometry>
                </mxCell>
                <mxCell id="AQ0bS5fHFFgYjJkL38fF-35" style="edgeStyle=orthogonalEdgeStyle;rounded=0;orthogonalLoop=1;jettySize=auto;html=1;entryX=0.5;entryY=0;entryDx=0;entryDy=0;fontSize=11;" edge="1" parent="1" source="AQ0bS5fHFFgYjJkL38fF-32" target="AQ0bS5fHFFgYjJkL38fF-8">
                    <mxGeometry relative="1" as="geometry"/>
                </mxCell>
                <mxCell id="AQ0bS5fHFFgYjJkL38fF-36" value="Archive Old Content" style="html=1;overflow=block;blockSpacing=1;whiteSpace=wrap;fontSize=11;align=center;spacing=9;strokeOpacity=100;fillOpacity=100;rounded=1;absoluteArcSize=1;arcSize=9;fillColor=#ffffff;strokeWidth=1.5;lucidId=jiFexfr4rsoX;container=0;" vertex="1" parent="1">
                    <mxGeometry x="1419.997202472021" y="474.9449608853137" width="112.0360442843547" height="48.680513963783284" as="geometry"/>
                </mxCell>
                <mxCell id="AQ0bS5fHFFgYjJkL38fF-37" value="Maintain Status: Pending" style="html=1;overflow=block;blockSpacing=1;whiteSpace=wrap;fontSize=11;align=center;spacing=9;strokeOpacity=100;fillOpacity=100;rounded=1;absoluteArcSize=1;arcSize=9;fillColor=#ffffff;strokeWidth=1.5;lucidId=0uFe-A.BNOs.;container=0;" vertex="1" parent="1">
                    <mxGeometry x="1457.9639557156454" y="689.9544971831037" width="112.0360442843547" height="48.680513963783284" as="geometry"/>
                </mxCell>
                <mxCell id="AQ0bS5fHFFgYjJkL38fF-38" value="" style="group" vertex="1" connectable="0" parent="1">
                    <mxGeometry x="929.9952941176468" y="207.99642714570854" width="431.9694117647059" height="315.07185628742513" as="geometry"/>
                </mxCell>
                <mxCell id="AQ0bS5fHFFgYjJkL38fF-39" style="edgeStyle=orthogonalEdgeStyle;rounded=0;orthogonalLoop=1;jettySize=auto;html=1;exitX=0.5;exitY=1;exitDx=0;exitDy=0;entryX=0.5;entryY=0;entryDx=0;entryDy=0;" edge="1" parent="AQ0bS5fHFFgYjJkL38fF-38" target="AQ0bS5fHFFgYjJkL38fF-58">
                    <mxGeometry relative="1" as="geometry">
                        <mxPoint x="244.2947058823529" y="65.8618562874251" as="sourcePoint"/>
                    </mxGeometry>
                </mxCell>
                <mxCell id="AQ0bS5fHFFgYjJkL38fF-40" value="Login as Content Manager" style="html=1;overflow=block;blockSpacing=1;whiteSpace=wrap;fontSize=9;align=center;spacing=9;strokeOpacity=100;fillOpacity=100;rounded=1;absoluteArcSize=1;arcSize=9;fillColor=#ffffff;strokeWidth=1.5;lucidId=waGefKhzuSeb;container=0;" vertex="1" parent="AQ0bS5fHFFgYjJkL38fF-38">
                    <mxGeometry x="197.53000000000003" y="55.789999999999964" width="93.52941176470588" height="40.071856287425156" as="geometry"/>
                </mxCell>
                <mxCell id="AQ0bS5fHFFgYjJkL38fF-41" style="edgeStyle=orthogonalEdgeStyle;rounded=0;orthogonalLoop=1;jettySize=auto;html=1;exitX=0.5;exitY=1;exitDx=0;exitDy=0;entryX=0.5;entryY=0;entryDx=0;entryDy=0;" edge="1" parent="AQ0bS5fHFFgYjJkL38fF-38" source="AQ0bS5fHFFgYjJkL38fF-42" target="AQ0bS5fHFFgYjJkL38fF-49">
                    <mxGeometry relative="1" as="geometry">
                        <mxPoint x="101.05470588235289" y="203.0082435129741" as="targetPoint"/>
                    </mxGeometry>
                </mxCell>
                <mxCell id="AQ0bS5fHFFgYjJkL38fF-42" value="Enter Account&amp;nbsp; Credential" style="html=1;overflow=block;blockSpacing=1;whiteSpace=wrap;fontSize=9;align=center;spacing=9;strokeOpacity=100;fillOpacity=100;rounded=1;absoluteArcSize=1;arcSize=9;fillColor=#ffffff;strokeWidth=1.5;lucidId=waGefKhzuSeb;container=0;" vertex="1" parent="AQ0bS5fHFFgYjJkL38fF-38">
                    <mxGeometry x="53.29000000000002" y="136.78999999999996" width="93.52941176470588" height="40.071856287425156" as="geometry"/>
                </mxCell>
                <mxCell id="AQ0bS5fHFFgYjJkL38fF-43" style="edgeStyle=orthogonalEdgeStyle;rounded=0;orthogonalLoop=1;jettySize=auto;html=1;exitX=1;exitY=0.5;exitDx=0;exitDy=0;entryX=0;entryY=0.5;entryDx=0;entryDy=0;" edge="1" parent="AQ0bS5fHFFgYjJkL38fF-38" source="AQ0bS5fHFFgYjJkL38fF-49">
                    <mxGeometry relative="1" as="geometry">
                        <Array as="points">
                            <mxPoint x="165.29470588235313" y="226.0035728542914"/>
                            <mxPoint x="165.29470588235313" y="299.0035728542914"/>
                        </Array>
                    </mxGeometry>
                </mxCell>
                <mxCell id="AQ0bS5fHFFgYjJkL38fF-44" value="Yes" style="edgeLabel;html=1;align=center;verticalAlign=middle;resizable=0;points=[];" vertex="1" connectable="0" parent="AQ0bS5fHFFgYjJkL38fF-43">
                    <mxGeometry x="-0.7249" y="-1" relative="1" as="geometry">
                        <mxPoint as="offset"/>
                    </mxGeometry>
                </mxCell>
                <mxCell id="AQ0bS5fHFFgYjJkL38fF-45" style="edgeStyle=orthogonalEdgeStyle;rounded=0;orthogonalLoop=1;jettySize=auto;html=1;exitX=0;exitY=0.5;exitDx=0;exitDy=0;" edge="1" parent="AQ0bS5fHFFgYjJkL38fF-38" source="AQ0bS5fHFFgYjJkL38fF-49" target="AQ0bS5fHFFgYjJkL38fF-51">
                    <mxGeometry relative="1" as="geometry">
                        <mxPoint x="44.29470588235313" y="248.0035728542914" as="targetPoint"/>
                        <Array as="points">
                            <mxPoint x="45.29470588235313" y="226.0035728542914"/>
                        </Array>
                    </mxGeometry>
                </mxCell>
                <mxCell id="AQ0bS5fHFFgYjJkL38fF-46" value="No" style="edgeLabel;html=1;align=center;verticalAlign=middle;resizable=0;points=[];" vertex="1" connectable="0" parent="AQ0bS5fHFFgYjJkL38fF-45">
                    <mxGeometry x="-0.7008" y="-2" relative="1" as="geometry">
                        <mxPoint as="offset"/>
                    </mxGeometry>
                </mxCell>
                <mxCell id="AQ0bS5fHFFgYjJkL38fF-47" style="edgeStyle=orthogonalEdgeStyle;rounded=0;orthogonalLoop=1;jettySize=auto;html=1;exitX=1;exitY=0.5;exitDx=0;exitDy=0;" edge="1" parent="AQ0bS5fHFFgYjJkL38fF-38" source="AQ0bS5fHFFgYjJkL38fF-49">
                    <mxGeometry relative="1" as="geometry">
                        <mxPoint x="170.00470588235316" y="226.3613710194291" as="targetPoint"/>
                    </mxGeometry>
                </mxCell>
                <mxCell id="AQ0bS5fHFFgYjJkL38fF-48" value="Yes" style="edgeLabel;html=1;align=center;verticalAlign=middle;resizable=0;points=[];" vertex="1" connectable="0" parent="AQ0bS5fHFFgYjJkL38fF-47">
                    <mxGeometry x="-0.3989" relative="1" as="geometry">
                        <mxPoint y="-1" as="offset"/>
                    </mxGeometry>
                </mxCell>
                <mxCell id="AQ0bS5fHFFgYjJkL38fF-49" value="Is the credentials correct?" style="html=1;overflow=block;blockSpacing=1;whiteSpace=wrap;fontSize=9;align=center;spacing=9;strokeOpacity=100;fillOpacity=100;rounded=1;absoluteArcSize=1;arcSize=9;fillColor=#ffffff;strokeWidth=1.5;lucidId=waGefKhzuSeb;shape=rhombus;perimeter=rhombusPerimeter;container=0;" vertex="1" parent="AQ0bS5fHFFgYjJkL38fF-38">
                    <mxGeometry x="52.29000000000002" y="194.008243512974" width="93.52941176470588" height="64.78283433133734" as="geometry"/>
                </mxCell>
                <mxCell id="AQ0bS5fHFFgYjJkL38fF-50" style="edgeStyle=orthogonalEdgeStyle;rounded=0;orthogonalLoop=1;jettySize=auto;html=1;exitX=0;exitY=0.5;exitDx=0;exitDy=0;entryX=0;entryY=0.5;entryDx=0;entryDy=0;" edge="1" parent="AQ0bS5fHFFgYjJkL38fF-38" source="AQ0bS5fHFFgYjJkL38fF-51" target="AQ0bS5fHFFgYjJkL38fF-42">
                    <mxGeometry relative="1" as="geometry"/>
                </mxCell>
                <mxCell id="AQ0bS5fHFFgYjJkL38fF-51" value="Error Message" style="html=1;overflow=block;blockSpacing=1;whiteSpace=wrap;fontSize=9;align=center;spacing=9;strokeOpacity=100;fillOpacity=100;rounded=1;absoluteArcSize=1;arcSize=9;fillColor=#ffffff;strokeWidth=1.5;lucidId=waGefKhzuSeb;container=0;" vertex="1" parent="AQ0bS5fHFFgYjJkL38fF-38">
                    <mxGeometry y="275" width="93.52941176470588" height="40.071856287425156" as="geometry"/>
                </mxCell>
                <mxCell id="AQ0bS5fHFFgYjJkL38fF-52" style="edgeStyle=orthogonalEdgeStyle;rounded=0;orthogonalLoop=1;jettySize=auto;html=1;exitX=0.5;exitY=1;exitDx=0;exitDy=0;entryX=0.5;entryY=0;entryDx=0;entryDy=0;" edge="1" parent="AQ0bS5fHFFgYjJkL38fF-38" target="AQ0bS5fHFFgYjJkL38fF-65">
                    <mxGeometry relative="1" as="geometry">
                        <mxPoint x="385.204705882353" y="175.8618562874251" as="sourcePoint"/>
                    </mxGeometry>
                </mxCell>
                <mxCell id="AQ0bS5fHFFgYjJkL38fF-53" value="Login with Google" style="html=1;overflow=block;blockSpacing=1;whiteSpace=wrap;fontSize=9;align=center;spacing=9;strokeOpacity=100;fillOpacity=100;rounded=1;absoluteArcSize=1;arcSize=9;fillColor=#ffffff;strokeWidth=1.5;lucidId=waGefKhzuSeb;container=0;" vertex="1" parent="AQ0bS5fHFFgYjJkL38fF-38">
                    <mxGeometry x="338.44" y="134.78999999999996" width="93.52941176470588" height="40.071856287425156" as="geometry"/>
                </mxCell>
                <mxCell id="AQ0bS5fHFFgYjJkL38fF-54" style="edgeStyle=orthogonalEdgeStyle;rounded=0;orthogonalLoop=1;jettySize=auto;html=1;exitX=1;exitY=0.5;exitDx=0;exitDy=0;entryX=0;entryY=0.5;entryDx=0;entryDy=0;" edge="1" parent="AQ0bS5fHFFgYjJkL38fF-38" source="AQ0bS5fHFFgYjJkL38fF-58" target="AQ0bS5fHFFgYjJkL38fF-53">
                    <mxGeometry relative="1" as="geometry"/>
                </mxCell>
                <mxCell id="AQ0bS5fHFFgYjJkL38fF-55" value="Google" style="edgeLabel;html=1;align=center;verticalAlign=middle;resizable=0;points=[];" vertex="1" connectable="0" parent="AQ0bS5fHFFgYjJkL38fF-54">
                    <mxGeometry x="-0.4962" y="-2" relative="1" as="geometry">
                        <mxPoint x="6" y="-4" as="offset"/>
                    </mxGeometry>
                </mxCell>
                <mxCell id="AQ0bS5fHFFgYjJkL38fF-56" style="edgeStyle=orthogonalEdgeStyle;rounded=0;orthogonalLoop=1;jettySize=auto;html=1;exitX=0;exitY=0.5;exitDx=0;exitDy=0;entryX=1;entryY=0.5;entryDx=0;entryDy=0;" edge="1" parent="AQ0bS5fHFFgYjJkL38fF-38" source="AQ0bS5fHFFgYjJkL38fF-58" target="AQ0bS5fHFFgYjJkL38fF-42">
                    <mxGeometry relative="1" as="geometry"/>
                </mxCell>
                <mxCell id="AQ0bS5fHFFgYjJkL38fF-57" value="Manual" style="edgeLabel;html=1;align=center;verticalAlign=middle;resizable=0;points=[];" vertex="1" connectable="0" parent="AQ0bS5fHFFgYjJkL38fF-56">
                    <mxGeometry x="-0.1394" y="-2" relative="1" as="geometry">
                        <mxPoint as="offset"/>
                    </mxGeometry>
                </mxCell>
                <mxCell id="AQ0bS5fHFFgYjJkL38fF-58" value="How do you want to log in?" style="html=1;overflow=block;blockSpacing=1;whiteSpace=wrap;fontSize=9;align=center;spacing=9;strokeOpacity=100;fillOpacity=100;rounded=1;absoluteArcSize=1;arcSize=9;fillColor=#ffffff;strokeWidth=1.5;lucidId=waGefKhzuSeb;shape=rhombus;perimeter=rhombusPerimeter;container=0;" vertex="1" parent="AQ0bS5fHFFgYjJkL38fF-38">
                    <mxGeometry x="197.53000000000003" y="125.22824351297402" width="93.52941176470588" height="64.78283433133734" as="geometry"/>
                </mxCell>
                <mxCell id="AQ0bS5fHFFgYjJkL38fF-59" style="edgeStyle=orthogonalEdgeStyle;rounded=0;orthogonalLoop=1;jettySize=auto;html=1;exitX=0;exitY=0.5;exitDx=0;exitDy=0;entryX=1;entryY=0.5;entryDx=0;entryDy=0;" edge="1" parent="AQ0bS5fHFFgYjJkL38fF-38" source="AQ0bS5fHFFgYjJkL38fF-65">
                    <mxGeometry relative="1" as="geometry"/>
                </mxCell>
                <mxCell id="AQ0bS5fHFFgYjJkL38fF-60" value="Yes" style="edgeLabel;html=1;align=center;verticalAlign=middle;resizable=0;points=[];" vertex="1" connectable="0" parent="AQ0bS5fHFFgYjJkL38fF-59">
                    <mxGeometry x="-0.4241" y="-2" relative="1" as="geometry">
                        <mxPoint as="offset"/>
                    </mxGeometry>
                </mxCell>
                <mxCell id="AQ0bS5fHFFgYjJkL38fF-61" style="edgeStyle=orthogonalEdgeStyle;rounded=0;orthogonalLoop=1;jettySize=auto;html=1;exitX=1;exitY=0.5;exitDx=0;exitDy=0;entryX=1;entryY=0.5;entryDx=0;entryDy=0;" edge="1" parent="AQ0bS5fHFFgYjJkL38fF-38" source="AQ0bS5fHFFgYjJkL38fF-65" target="AQ0bS5fHFFgYjJkL38fF-67">
                    <mxGeometry relative="1" as="geometry"/>
                </mxCell>
                <mxCell id="AQ0bS5fHFFgYjJkL38fF-62" value="No" style="edgeLabel;html=1;align=center;verticalAlign=middle;resizable=0;points=[];" vertex="1" connectable="0" parent="AQ0bS5fHFFgYjJkL38fF-61">
                    <mxGeometry x="-0.9319" y="1" relative="1" as="geometry">
                        <mxPoint as="offset"/>
                    </mxGeometry>
                </mxCell>
                <mxCell id="AQ0bS5fHFFgYjJkL38fF-63" style="edgeStyle=orthogonalEdgeStyle;rounded=0;orthogonalLoop=1;jettySize=auto;html=1;exitX=0;exitY=0.5;exitDx=0;exitDy=0;" edge="1" parent="AQ0bS5fHFFgYjJkL38fF-38" source="AQ0bS5fHFFgYjJkL38fF-65">
                    <mxGeometry relative="1" as="geometry">
                        <mxPoint x="321.00470588235316" y="228.6702395209582" as="targetPoint"/>
                    </mxGeometry>
                </mxCell>
                <mxCell id="AQ0bS5fHFFgYjJkL38fF-64" value="Yes" style="edgeLabel;html=1;align=center;verticalAlign=middle;resizable=0;points=[];" vertex="1" connectable="0" parent="AQ0bS5fHFFgYjJkL38fF-63">
                    <mxGeometry x="-0.7277" y="-1" relative="1" as="geometry">
                        <mxPoint x="-5" as="offset"/>
                    </mxGeometry>
                </mxCell>
                <mxCell id="AQ0bS5fHFFgYjJkL38fF-65" value="Is email registered?" style="html=1;overflow=block;blockSpacing=1;whiteSpace=wrap;fontSize=9;align=center;spacing=9;strokeOpacity=100;fillOpacity=100;rounded=1;absoluteArcSize=1;arcSize=9;fillColor=#ffffff;strokeWidth=1.5;lucidId=waGefKhzuSeb;shape=rhombus;perimeter=rhombusPerimeter;container=0;" vertex="1" parent="AQ0bS5fHFFgYjJkL38fF-38">
                    <mxGeometry x="349.44" y="196.008243512974" width="93.52941176470588" height="64.78283433133734" as="geometry"/>
                </mxCell>
                <mxCell id="AQ0bS5fHFFgYjJkL38fF-66" style="edgeStyle=orthogonalEdgeStyle;rounded=0;orthogonalLoop=1;jettySize=auto;html=1;exitX=0.5;exitY=1;exitDx=0;exitDy=0;entryX=0.5;entryY=0;entryDx=0;entryDy=0;" edge="1" parent="AQ0bS5fHFFgYjJkL38fF-38" source="AQ0bS5fHFFgYjJkL38fF-67" target="AQ0bS5fHFFgYjJkL38fF-40">
                    <mxGeometry relative="1" as="geometry"/>
                </mxCell>
                <mxCell id="AQ0bS5fHFFgYjJkL38fF-67" value="Login Page" style="html=1;overflow=block;blockSpacing=1;whiteSpace=wrap;fontSize=9;align=center;spacing=9;strokeOpacity=100;fillOpacity=100;rounded=1;absoluteArcSize=1;arcSize=9;fillColor=#ffffff;strokeWidth=1.5;lucidId=waGefKhzuSeb;container=0;" vertex="1" parent="AQ0bS5fHFFgYjJkL38fF-38">
                    <mxGeometry x="197.5300000000001" width="93.52941176470588" height="40.071856287425156" as="geometry"/>
                </mxCell>
            </root>
        </mxGraphModel>
    </diagram>
    <diagram id="z6Hng1Mj9GVPgJOVMIGG" name="Program Coordinator">
        <mxGraphModel dx="-1042" dy="-1074" grid="1" gridSize="10" guides="1" tooltips="1" connect="1" arrows="1" fold="1" page="1" pageScale="1" pageWidth="850" pageHeight="1100" math="0" shadow="0">
            <root>
                <mxCell id="0"/>
                <mxCell id="1" parent="0"/>
                <mxCell id="VTAhvuk01UpY0Ksg2Qsz-1" value="" style="group" vertex="1" connectable="0" parent="1">
                    <mxGeometry x="2689.995294117647" y="2349.9964271457084" width="470" height="318.96604790419156" as="geometry"/>
                </mxCell>
                <mxCell id="VTAhvuk01UpY0Ksg2Qsz-2" value="" style="group" vertex="1" connectable="0" parent="VTAhvuk01UpY0Ksg2Qsz-1">
                    <mxGeometry x="-30" width="500" height="315.07" as="geometry"/>
                </mxCell>
                <mxCell id="VTAhvuk01UpY0Ksg2Qsz-3" style="edgeStyle=orthogonalEdgeStyle;rounded=0;orthogonalLoop=1;jettySize=auto;html=1;exitX=0.5;exitY=1;exitDx=0;exitDy=0;entryX=0.5;entryY=0;entryDx=0;entryDy=0;" edge="1" parent="VTAhvuk01UpY0Ksg2Qsz-2" target="VTAhvuk01UpY0Ksg2Qsz-18">
                    <mxGeometry relative="1" as="geometry">
                        <mxPoint x="282.7685239150919" y="65.86146825360619" as="sourcePoint"/>
                    </mxGeometry>
                </mxCell>
                <mxCell id="VTAhvuk01UpY0Ksg2Qsz-4" value="Login as Program Coordinator" style="html=1;overflow=block;blockSpacing=1;whiteSpace=wrap;fontSize=9;align=center;spacing=9;strokeOpacity=100;fillOpacity=100;rounded=1;absoluteArcSize=1;arcSize=9;fillColor=#ffffff;strokeWidth=1.5;lucidId=waGefKhzuSeb;container=0;" vertex="1" parent="VTAhvuk01UpY0Ksg2Qsz-2">
                    <mxGeometry x="228.63887421222637" y="55.789671305851684" width="108.25929940573133" height="40.071620198795074" as="geometry"/>
                </mxCell>
                <mxCell id="VTAhvuk01UpY0Ksg2Qsz-5" style="edgeStyle=orthogonalEdgeStyle;rounded=0;orthogonalLoop=1;jettySize=auto;html=1;exitX=0.5;exitY=1;exitDx=0;exitDy=0;entryX=0.5;entryY=0;entryDx=0;entryDy=0;" edge="1" parent="VTAhvuk01UpY0Ksg2Qsz-2" source="VTAhvuk01UpY0Ksg2Qsz-6" target="VTAhvuk01UpY0Ksg2Qsz-9">
                    <mxGeometry relative="1" as="geometry">
                        <mxPoint x="116.96974731326286" y="203.007047463114" as="targetPoint"/>
                    </mxGeometry>
                </mxCell>
                <mxCell id="VTAhvuk01UpY0Ksg2Qsz-6" value="Enter Account&amp;nbsp; Credential" style="html=1;overflow=block;blockSpacing=1;whiteSpace=wrap;fontSize=9;align=center;spacing=9;strokeOpacity=100;fillOpacity=100;rounded=1;absoluteArcSize=1;arcSize=9;fillColor=#ffffff;strokeWidth=1.5;lucidId=waGefKhzuSeb;container=0;" vertex="1" parent="VTAhvuk01UpY0Ksg2Qsz-2">
                    <mxGeometry x="61.6826082456819" y="136.78919408366113" width="108.25929940573133" height="40.071620198795074" as="geometry"/>
                </mxCell>
                <mxCell id="VTAhvuk01UpY0Ksg2Qsz-7" style="edgeStyle=orthogonalEdgeStyle;rounded=0;orthogonalLoop=1;jettySize=auto;html=1;exitX=0;exitY=0.5;exitDx=0;exitDy=0;" edge="1" parent="VTAhvuk01UpY0Ksg2Qsz-2" source="VTAhvuk01UpY0Ksg2Qsz-9" target="VTAhvuk01UpY0Ksg2Qsz-11">
                    <mxGeometry relative="1" as="geometry">
                        <mxPoint x="51.27065097201893" y="248.00211170850991" as="targetPoint"/>
                        <Array as="points">
                            <mxPoint x="52.428140336734295" y="226.00224132441352"/>
                        </Array>
                    </mxGeometry>
                </mxCell>
                <mxCell id="VTAhvuk01UpY0Ksg2Qsz-8" value="No" style="edgeLabel;html=1;align=center;verticalAlign=middle;resizable=0;points=[];" vertex="1" connectable="0" parent="VTAhvuk01UpY0Ksg2Qsz-7">
                    <mxGeometry x="-0.7008" y="-2" relative="1" as="geometry">
                        <mxPoint as="offset"/>
                    </mxGeometry>
                </mxCell>
                <mxCell id="VTAhvuk01UpY0Ksg2Qsz-9" value="Is the credentials correct?" style="html=1;overflow=block;blockSpacing=1;whiteSpace=wrap;fontSize=9;align=center;spacing=9;strokeOpacity=100;fillOpacity=100;rounded=1;absoluteArcSize=1;arcSize=9;fillColor=#ffffff;strokeWidth=1.5;lucidId=waGefKhzuSeb;shape=rhombus;perimeter=rhombusPerimeter;container=0;" vertex="1" parent="VTAhvuk01UpY0Ksg2Qsz-2">
                    <mxGeometry x="62.84009761039726" y="194.00710048780172" width="108.25929940573133" height="64.78245265471871" as="geometry"/>
                </mxCell>
                <mxCell id="VTAhvuk01UpY0Ksg2Qsz-10" style="edgeStyle=orthogonalEdgeStyle;rounded=0;orthogonalLoop=1;jettySize=auto;html=1;exitX=0;exitY=0.5;exitDx=0;exitDy=0;entryX=0;entryY=0.5;entryDx=0;entryDy=0;" edge="1" parent="VTAhvuk01UpY0Ksg2Qsz-2" source="VTAhvuk01UpY0Ksg2Qsz-11" target="VTAhvuk01UpY0Ksg2Qsz-6">
                    <mxGeometry relative="1" as="geometry"/>
                </mxCell>
                <mxCell id="VTAhvuk01UpY0Ksg2Qsz-11" value="Error Message" style="html=1;overflow=block;blockSpacing=1;whiteSpace=wrap;fontSize=9;align=center;spacing=9;strokeOpacity=100;fillOpacity=100;rounded=1;absoluteArcSize=1;arcSize=9;fillColor=#ffffff;strokeWidth=1.5;lucidId=waGefKhzuSeb;container=0;" vertex="1" parent="VTAhvuk01UpY0Ksg2Qsz-2">
                    <mxGeometry y="274.9983798012049" width="108.25929940573133" height="40.071620198795074" as="geometry"/>
                </mxCell>
                <mxCell id="VTAhvuk01UpY0Ksg2Qsz-12" style="edgeStyle=orthogonalEdgeStyle;rounded=0;orthogonalLoop=1;jettySize=auto;html=1;exitX=0.5;exitY=1;exitDx=0;exitDy=0;entryX=0.5;entryY=0;entryDx=0;entryDy=0;" edge="1" parent="VTAhvuk01UpY0Ksg2Qsz-2" target="VTAhvuk01UpY0Ksg2Qsz-21">
                    <mxGeometry relative="1" as="geometry">
                        <mxPoint x="445.8703502971343" y="175.86082017408816" as="sourcePoint"/>
                    </mxGeometry>
                </mxCell>
                <mxCell id="VTAhvuk01UpY0Ksg2Qsz-13" value="Login with Google" style="html=1;overflow=block;blockSpacing=1;whiteSpace=wrap;fontSize=9;align=center;spacing=9;strokeOpacity=100;fillOpacity=100;rounded=1;absoluteArcSize=1;arcSize=9;fillColor=#ffffff;strokeWidth=1.5;lucidId=waGefKhzuSeb;container=0;" vertex="1" parent="VTAhvuk01UpY0Ksg2Qsz-2">
                    <mxGeometry x="391.74070059426856" y="134.7892058669251" width="108.25929940573133" height="40.071620198795074" as="geometry"/>
                </mxCell>
                <mxCell id="VTAhvuk01UpY0Ksg2Qsz-14" style="edgeStyle=orthogonalEdgeStyle;rounded=0;orthogonalLoop=1;jettySize=auto;html=1;exitX=1;exitY=0.5;exitDx=0;exitDy=0;entryX=0;entryY=0.5;entryDx=0;entryDy=0;" edge="1" parent="VTAhvuk01UpY0Ksg2Qsz-2" source="VTAhvuk01UpY0Ksg2Qsz-18" target="VTAhvuk01UpY0Ksg2Qsz-13">
                    <mxGeometry relative="1" as="geometry"/>
                </mxCell>
                <mxCell id="VTAhvuk01UpY0Ksg2Qsz-15" value="Google" style="edgeLabel;html=1;align=center;verticalAlign=middle;resizable=0;points=[];" vertex="1" connectable="0" parent="VTAhvuk01UpY0Ksg2Qsz-14">
                    <mxGeometry x="-0.4962" y="-2" relative="1" as="geometry">
                        <mxPoint x="6" y="-4" as="offset"/>
                    </mxGeometry>
                </mxCell>
                <mxCell id="VTAhvuk01UpY0Ksg2Qsz-16" style="edgeStyle=orthogonalEdgeStyle;rounded=0;orthogonalLoop=1;jettySize=auto;html=1;exitX=0;exitY=0.5;exitDx=0;exitDy=0;entryX=1;entryY=0.5;entryDx=0;entryDy=0;" edge="1" parent="VTAhvuk01UpY0Ksg2Qsz-2" source="VTAhvuk01UpY0Ksg2Qsz-18" target="VTAhvuk01UpY0Ksg2Qsz-6">
                    <mxGeometry relative="1" as="geometry"/>
                </mxCell>
                <mxCell id="VTAhvuk01UpY0Ksg2Qsz-17" value="Manual" style="edgeLabel;html=1;align=center;verticalAlign=middle;resizable=0;points=[];" vertex="1" connectable="0" parent="VTAhvuk01UpY0Ksg2Qsz-16">
                    <mxGeometry x="-0.1394" y="-2" relative="1" as="geometry">
                        <mxPoint as="offset"/>
                    </mxGeometry>
                </mxCell>
                <mxCell id="VTAhvuk01UpY0Ksg2Qsz-18" value="How do you want to log in?" style="html=1;overflow=block;blockSpacing=1;whiteSpace=wrap;fontSize=9;align=center;spacing=9;strokeOpacity=100;fillOpacity=100;rounded=1;absoluteArcSize=1;arcSize=9;fillColor=#ffffff;strokeWidth=1.5;lucidId=waGefKhzuSeb;shape=rhombus;perimeter=rhombusPerimeter;container=0;" vertex="1" parent="VTAhvuk01UpY0Ksg2Qsz-2">
                    <mxGeometry x="228.63887421222637" y="125.22750571424947" width="108.25929940573133" height="64.78245265471871" as="geometry"/>
                </mxCell>
                <mxCell id="VTAhvuk01UpY0Ksg2Qsz-19" style="edgeStyle=orthogonalEdgeStyle;rounded=0;orthogonalLoop=1;jettySize=auto;html=1;exitX=1;exitY=0.5;exitDx=0;exitDy=0;entryX=1;entryY=0.5;entryDx=0;entryDy=0;" edge="1" parent="VTAhvuk01UpY0Ksg2Qsz-2" source="VTAhvuk01UpY0Ksg2Qsz-21" target="VTAhvuk01UpY0Ksg2Qsz-23">
                    <mxGeometry relative="1" as="geometry"/>
                </mxCell>
                <mxCell id="VTAhvuk01UpY0Ksg2Qsz-20" value="No" style="edgeLabel;html=1;align=center;verticalAlign=middle;resizable=0;points=[];" vertex="1" connectable="0" parent="VTAhvuk01UpY0Ksg2Qsz-19">
                    <mxGeometry x="-0.9319" y="1" relative="1" as="geometry">
                        <mxPoint as="offset"/>
                    </mxGeometry>
                </mxCell>
                <mxCell id="VTAhvuk01UpY0Ksg2Qsz-21" value="Is email registered?" style="html=1;overflow=block;blockSpacing=1;whiteSpace=wrap;fontSize=9;align=center;spacing=9;strokeOpacity=100;fillOpacity=100;rounded=1;absoluteArcSize=1;arcSize=9;fillColor=#ffffff;strokeWidth=1.5;lucidId=waGefKhzuSeb;shape=rhombus;perimeter=rhombusPerimeter;container=0;" vertex="1" parent="VTAhvuk01UpY0Ksg2Qsz-2">
                    <mxGeometry x="391.74070059426856" y="196.00708870453775" width="108.25929940573133" height="64.78245265471871" as="geometry"/>
                </mxCell>
                <mxCell id="VTAhvuk01UpY0Ksg2Qsz-22" style="edgeStyle=orthogonalEdgeStyle;rounded=0;orthogonalLoop=1;jettySize=auto;html=1;exitX=0.5;exitY=1;exitDx=0;exitDy=0;entryX=0.5;entryY=0;entryDx=0;entryDy=0;" edge="1" parent="VTAhvuk01UpY0Ksg2Qsz-2" source="VTAhvuk01UpY0Ksg2Qsz-23" target="VTAhvuk01UpY0Ksg2Qsz-4">
                    <mxGeometry relative="1" as="geometry"/>
                </mxCell>
                <mxCell id="VTAhvuk01UpY0Ksg2Qsz-23" value="Login Page" style="html=1;overflow=block;blockSpacing=1;whiteSpace=wrap;fontSize=9;align=center;spacing=9;strokeOpacity=100;fillOpacity=100;rounded=1;absoluteArcSize=1;arcSize=9;fillColor=#ffffff;strokeWidth=1.5;lucidId=waGefKhzuSeb;container=0;" vertex="1" parent="VTAhvuk01UpY0Ksg2Qsz-2">
                    <mxGeometry x="228.63887421222643" width="108.25929940573133" height="40.071620198795074" as="geometry"/>
                </mxCell>
                <mxCell id="VTAhvuk01UpY0Ksg2Qsz-24" value="" style="group" vertex="1" connectable="0" parent="1">
                    <mxGeometry x="2705" y="2500" width="539.39" height="736.22" as="geometry"/>
                </mxCell>
                <mxCell id="VTAhvuk01UpY0Ksg2Qsz-25" style="edgeStyle=orthogonalEdgeStyle;rounded=0;orthogonalLoop=1;jettySize=auto;html=1;fontSize=10;" edge="1" parent="VTAhvuk01UpY0Ksg2Qsz-24" source="VTAhvuk01UpY0Ksg2Qsz-26" target="VTAhvuk01UpY0Ksg2Qsz-57">
                    <mxGeometry relative="1" as="geometry"/>
                </mxCell>
                <mxCell id="VTAhvuk01UpY0Ksg2Qsz-26" value="View Program Management Dashboard" style="html=1;overflow=block;blockSpacing=1;whiteSpace=wrap;fontSize=10;align=center;spacing=9;strokeOpacity=100;fillOpacity=100;rounded=1;absoluteArcSize=1;arcSize=9;fillColor=#ffffff;strokeWidth=1.5;lucidId=_SFeTCc3I~F-;container=0;" vertex="1" parent="VTAhvuk01UpY0Ksg2Qsz-24">
                    <mxGeometry x="145.10606060606054" y="128.60276982402735" width="168.63636363636365" height="53.774484176139524" as="geometry"/>
                </mxCell>
                <mxCell id="VTAhvuk01UpY0Ksg2Qsz-27" value="Create Content&amp;nbsp;" style="html=1;overflow=block;blockSpacing=1;whiteSpace=wrap;fontSize=10;align=center;spacing=9;strokeOpacity=100;fillOpacity=100;rounded=1;absoluteArcSize=1;arcSize=9;fillColor=#ffffff;strokeWidth=1.5;lucidId=xUFeYY.wgYSd;container=0;" vertex="1" parent="VTAhvuk01UpY0Ksg2Qsz-24">
                    <mxGeometry x="151.12424242424234" y="313.3961510679295" width="156.59090909090912" height="40.33086313210464" as="geometry"/>
                </mxCell>
                <mxCell id="VTAhvuk01UpY0Ksg2Qsz-28" value="Submit Content to Content Manager for Approval" style="html=1;overflow=block;blockSpacing=1;whiteSpace=wrap;fontSize=10;align=center;spacing=9;strokeOpacity=100;fillOpacity=100;rounded=1;absoluteArcSize=1;arcSize=9;fillColor=#ffffff;strokeWidth=1.5;lucidId=6UFevdXGefRD;container=0;" vertex="1" parent="VTAhvuk01UpY0Ksg2Qsz-24">
                    <mxGeometry x="148.7181818181821" y="373.8924457660865" width="158.19696969696972" height="47.05267365412208" as="geometry"/>
                </mxCell>
                <mxCell id="VTAhvuk01UpY0Ksg2Qsz-29" value="View Volunteer Applications" style="html=1;overflow=block;blockSpacing=1;whiteSpace=wrap;fontSize=10;align=center;spacing=9;strokeOpacity=100;fillOpacity=100;rounded=1;absoluteArcSize=1;arcSize=9;fillColor=#ffffff;strokeWidth=1.5;lucidId=6VFe8m5cs8Sd;container=0;" vertex="1" parent="VTAhvuk01UpY0Ksg2Qsz-24">
                    <mxGeometry x="167.59090909090904" y="446.3233481041702" width="120.45454545454548" height="40.33086313210464" as="geometry"/>
                </mxCell>
                <mxCell id="VTAhvuk01UpY0Ksg2Qsz-30" value="Is applicant qualified?" style="html=1;overflow=block;blockSpacing=1;whiteSpace=wrap;rhombus;fontSize=10;align=center;spacing=3.8;strokeOpacity=100;fillOpacity=100;rounded=1;absoluteArcSize=1;arcSize=9;fillColor=#ffffff;strokeWidth=1.5;lucidId=XXFe1w7WmkSI;container=0;" vertex="1" parent="VTAhvuk01UpY0Ksg2Qsz-24">
                    <mxGeometry x="179.63636363636354" y="506.8196428023269" width="96.36363636363639" height="60.496294698156966" as="geometry"/>
                </mxCell>
                <mxCell id="VTAhvuk01UpY0Ksg2Qsz-31" value="" style="html=1;jettySize=18;whiteSpace=wrap;fontSize=10;fontColor=#333333;fontStyle=1;align=center;strokeColor=#3a414a;strokeOpacity=100;strokeWidth=1.5;rounded=1;arcSize=12;edgeStyle=orthogonalEdgeStyle;startArrow=none;endArrow=block;endFill=1;exitX=0.988;exitY=0.5;exitPerimeter=0;entryX=-0.004;entryY=0.5;entryPerimeter=0;lucidId=vYFemKD51oKI;" edge="1" parent="VTAhvuk01UpY0Ksg2Qsz-24" source="VTAhvuk01UpY0Ksg2Qsz-30" target="VTAhvuk01UpY0Ksg2Qsz-33">
                    <mxGeometry width="100" height="100" relative="1" as="geometry">
                        <Array as="points"/>
                    </mxGeometry>
                </mxCell>
                <mxCell id="VTAhvuk01UpY0Ksg2Qsz-32" value="Yes" style="text;html=1;resizable=0;labelBackgroundColor=default;align=center;verticalAlign=middle;fontStyle=1;fontColor=#333333;fontSize=10;container=0;" vertex="1" parent="VTAhvuk01UpY0Ksg2Qsz-31">
                    <mxGeometry relative="1" as="geometry"/>
                </mxCell>
                <mxCell id="VTAhvuk01UpY0Ksg2Qsz-33" value="Approve Application" style="html=1;overflow=block;blockSpacing=1;whiteSpace=wrap;fontSize=10;align=center;spacing=9;strokeOpacity=100;fillOpacity=100;rounded=1;absoluteArcSize=1;arcSize=9;fillColor=#ffffff;strokeWidth=1.5;lucidId=zYFej7BL1ZEk;container=0;" vertex="1" parent="VTAhvuk01UpY0Ksg2Qsz-24">
                    <mxGeometry x="330.00030303030286" y="522.951988055169" width="134.10606060606062" height="28.231604192473245" as="geometry"/>
                </mxCell>
                <mxCell id="VTAhvuk01UpY0Ksg2Qsz-34" value="Reject Application" style="html=1;overflow=block;blockSpacing=1;whiteSpace=wrap;fontSize=10;align=center;spacing=9;strokeOpacity=100;fillOpacity=100;rounded=1;absoluteArcSize=1;arcSize=9;fillColor=#ffffff;strokeWidth=1.5;lucidId=WYFewaAXc6pX;container=0;" vertex="1" parent="VTAhvuk01UpY0Ksg2Qsz-24">
                    <mxGeometry y="522.951988055169" width="134.10606060606062" height="28.231604192473245" as="geometry"/>
                </mxCell>
                <mxCell id="VTAhvuk01UpY0Ksg2Qsz-35" value="" style="html=1;jettySize=18;whiteSpace=wrap;fontSize=10;fontColor=#333333;fontStyle=1;align=center;strokeColor=#3a414a;strokeOpacity=100;strokeWidth=1.5;rounded=1;arcSize=12;edgeStyle=orthogonalEdgeStyle;startArrow=none;endArrow=block;endFill=1;exitX=0.012;exitY=0.5;exitPerimeter=0;entryX=1.004;entryY=0.5;entryPerimeter=0;lucidId=lZFesZoAGhcU;" edge="1" parent="VTAhvuk01UpY0Ksg2Qsz-24" source="VTAhvuk01UpY0Ksg2Qsz-30" target="VTAhvuk01UpY0Ksg2Qsz-34">
                    <mxGeometry width="100" height="100" relative="1" as="geometry">
                        <Array as="points"/>
                    </mxGeometry>
                </mxCell>
                <mxCell id="VTAhvuk01UpY0Ksg2Qsz-36" value="No" style="text;html=1;resizable=0;labelBackgroundColor=default;align=center;verticalAlign=middle;fontStyle=1;fontColor=#333333;fontSize=10;container=0;" vertex="1" parent="VTAhvuk01UpY0Ksg2Qsz-35">
                    <mxGeometry relative="1" as="geometry"/>
                </mxCell>
                <mxCell id="VTAhvuk01UpY0Ksg2Qsz-37" value="" style="html=1;jettySize=18;whiteSpace=wrap;fontSize=10;strokeColor=#3a414a;strokeOpacity=100;strokeWidth=1.5;rounded=1;arcSize=12;edgeStyle=orthogonalEdgeStyle;startArrow=none;endArrow=block;endFill=1;exitX=0.5;exitY=1;exitPerimeter=0;entryX=0.5;entryY=0;entryPerimeter=0;lucidId=IZFe99nEOdbV;" edge="1" parent="VTAhvuk01UpY0Ksg2Qsz-24" source="VTAhvuk01UpY0Ksg2Qsz-27" target="VTAhvuk01UpY0Ksg2Qsz-28">
                    <mxGeometry width="100" height="100" relative="1" as="geometry">
                        <Array as="points"/>
                    </mxGeometry>
                </mxCell>
                <mxCell id="VTAhvuk01UpY0Ksg2Qsz-38" value="" style="html=1;jettySize=18;whiteSpace=wrap;fontSize=10;strokeColor=#3a414a;strokeOpacity=100;strokeWidth=1.5;rounded=1;arcSize=12;edgeStyle=orthogonalEdgeStyle;startArrow=none;endArrow=block;endFill=1;exitX=0.5;exitY=1;exitPerimeter=0;entryX=0.5;entryY=0;entryPerimeter=0;lucidId=OZFeNkpxq4fp;" edge="1" parent="VTAhvuk01UpY0Ksg2Qsz-24" source="VTAhvuk01UpY0Ksg2Qsz-29" target="VTAhvuk01UpY0Ksg2Qsz-30">
                    <mxGeometry width="100" height="100" relative="1" as="geometry">
                        <Array as="points"/>
                    </mxGeometry>
                </mxCell>
                <mxCell id="VTAhvuk01UpY0Ksg2Qsz-39" value="View Programs" style="html=1;overflow=block;blockSpacing=1;whiteSpace=wrap;fontSize=10;align=center;spacing=9;strokeOpacity=100;fillOpacity=100;rounded=1;absoluteArcSize=1;arcSize=9;fillColor=#ffffff;strokeWidth=1.5;lucidId=3ZFeF2l7nGNX;container=0;" vertex="1" parent="VTAhvuk01UpY0Ksg2Qsz-24">
                    <mxGeometry x="159.56060606060603" y="578.7430153879135" width="134.10606060606062" height="28.231604192473245" as="geometry"/>
                </mxCell>
                <mxCell id="VTAhvuk01UpY0Ksg2Qsz-40" value="" style="html=1;jettySize=18;whiteSpace=wrap;fontSize=10;strokeColor=#3a414a;strokeOpacity=100;strokeWidth=1.5;rounded=1;arcSize=12;edgeStyle=orthogonalEdgeStyle;startArrow=none;endArrow=block;endFill=1;exitX=0.5;exitY=1;exitPerimeter=0;entryX=1;entryY=0.5;entryPerimeter=0;lucidId=p0FeRuWkD0F7;" edge="1" parent="VTAhvuk01UpY0Ksg2Qsz-24" source="VTAhvuk01UpY0Ksg2Qsz-33" target="VTAhvuk01UpY0Ksg2Qsz-39">
                    <mxGeometry width="100" height="100" relative="1" as="geometry">
                        <Array as="points"/>
                    </mxGeometry>
                </mxCell>
                <mxCell id="VTAhvuk01UpY0Ksg2Qsz-41" value="" style="html=1;jettySize=18;whiteSpace=wrap;fontSize=10;strokeColor=#3a414a;strokeOpacity=100;strokeWidth=1.5;rounded=1;arcSize=12;edgeStyle=orthogonalEdgeStyle;startArrow=none;endArrow=block;endFill=1;exitX=0.5;exitY=1;exitPerimeter=0;lucidId=u0FeC9SHEVoT;entryX=0;entryY=0.5;entryDx=0;entryDy=0;" edge="1" parent="VTAhvuk01UpY0Ksg2Qsz-24" source="VTAhvuk01UpY0Ksg2Qsz-34" target="VTAhvuk01UpY0Ksg2Qsz-45">
                    <mxGeometry width="100" height="100" relative="1" as="geometry">
                        <Array as="points"/>
                        <mxPoint x="78.45454545454551" y="674.8649058527631" as="targetPoint"/>
                    </mxGeometry>
                </mxCell>
                <mxCell id="VTAhvuk01UpY0Ksg2Qsz-42" value="View Volunteer Interested Program" style="html=1;overflow=block;blockSpacing=1;whiteSpace=wrap;fontSize=10;align=center;spacing=9;strokeOpacity=100;fillOpacity=100;rounded=1;absoluteArcSize=1;arcSize=9;fillColor=#ffffff;strokeWidth=1.5;lucidId=O0FeM9vQ~p9t;container=0;" vertex="1" parent="VTAhvuk01UpY0Ksg2Qsz-24">
                    <mxGeometry x="159.56060606060603" y="627.1400511464392" width="134.10606060606062" height="38.98650102770115" as="geometry"/>
                </mxCell>
                <mxCell id="VTAhvuk01UpY0Ksg2Qsz-43" value="Approve Volunteer Attendance" style="html=1;overflow=block;blockSpacing=1;whiteSpace=wrap;fontSize=10;align=center;spacing=9;strokeOpacity=100;fillOpacity=100;rounded=1;absoluteArcSize=1;arcSize=9;fillColor=#ffffff;strokeWidth=1.5;lucidId=j1FeAJnRbS.j;container=0;" vertex="1" parent="VTAhvuk01UpY0Ksg2Qsz-24">
                    <mxGeometry x="330.0006060606061" y="627.142877612667" width="134.10606060606062" height="38.98650102770115" as="geometry"/>
                </mxCell>
                <mxCell id="VTAhvuk01UpY0Ksg2Qsz-44" value="View Program Feedback" style="html=1;overflow=block;blockSpacing=1;whiteSpace=wrap;fontSize=10;align=center;spacing=9;strokeOpacity=100;fillOpacity=100;rounded=1;absoluteArcSize=1;arcSize=9;fillColor=#ffffff;strokeWidth=1.5;lucidId=x4FeiGZuRB_y;container=0;" vertex="1" parent="VTAhvuk01UpY0Ksg2Qsz-24">
                    <mxGeometry x="330.0006060606061" y="697.2334989722988" width="134.10606060606062" height="38.98650102770115" as="geometry"/>
                </mxCell>
                <mxCell id="VTAhvuk01UpY0Ksg2Qsz-45" value="End" style="html=1;overflow=block;blockSpacing=1;whiteSpace=wrap;fontSize=10;align=center;spacing=3.8;strokeOpacity=100;fillOpacity=100;rounded=1;absoluteArcSize=1;arcSize=9;fillColor=#ffffff;strokeWidth=1.5;lucidId=B5FeSlZxhqdi;shape=ellipse;perimeter=ellipsePerimeter;aspect=fixed;container=0;" vertex="1" parent="VTAhvuk01UpY0Ksg2Qsz-24">
                    <mxGeometry x="169.2033333333334" y="698.4996456486936" width="72.8970834391486" height="36.4485417195743" as="geometry"/>
                </mxCell>
                <mxCell id="VTAhvuk01UpY0Ksg2Qsz-46" value="" style="html=1;jettySize=18;whiteSpace=wrap;fontSize=10;strokeColor=#3a414a;strokeOpacity=100;strokeWidth=1.5;rounded=1;arcSize=12;edgeStyle=orthogonalEdgeStyle;startArrow=none;endArrow=block;endFill=1;exitX=0.5;exitY=1;exitPerimeter=0;entryX=0.5;entryY=0;entryPerimeter=0;lucidId=Q5FeJNxi.rOr;" edge="1" parent="VTAhvuk01UpY0Ksg2Qsz-24" source="VTAhvuk01UpY0Ksg2Qsz-39" target="VTAhvuk01UpY0Ksg2Qsz-42">
                    <mxGeometry width="100" height="100" relative="1" as="geometry">
                        <Array as="points"/>
                    </mxGeometry>
                </mxCell>
                <mxCell id="VTAhvuk01UpY0Ksg2Qsz-47" value="" style="html=1;jettySize=18;whiteSpace=wrap;fontSize=10;strokeColor=#3a414a;strokeOpacity=100;strokeWidth=1.5;rounded=1;arcSize=12;edgeStyle=orthogonalEdgeStyle;startArrow=none;endArrow=block;endFill=1;exitX=1;exitY=0.5;entryX=0;entryY=0.5;lucidId=T5FeZ.1hDY7D;entryDx=0;entryDy=0;exitDx=0;exitDy=0;" edge="1" parent="VTAhvuk01UpY0Ksg2Qsz-24" source="VTAhvuk01UpY0Ksg2Qsz-42" target="VTAhvuk01UpY0Ksg2Qsz-43">
                    <mxGeometry width="100" height="100" relative="1" as="geometry">
                        <Array as="points"/>
                    </mxGeometry>
                </mxCell>
                <mxCell id="VTAhvuk01UpY0Ksg2Qsz-48" value="" style="html=1;jettySize=18;whiteSpace=wrap;fontSize=10;strokeColor=#3a414a;strokeOpacity=100;strokeWidth=1.5;rounded=1;arcSize=12;edgeStyle=orthogonalEdgeStyle;startArrow=none;endArrow=block;endFill=1;exitX=0.5;exitY=1;exitPerimeter=0;entryX=0.5;entryY=0;entryPerimeter=0;lucidId=15Fe.omHX_uf;" edge="1" parent="VTAhvuk01UpY0Ksg2Qsz-24" source="VTAhvuk01UpY0Ksg2Qsz-43" target="VTAhvuk01UpY0Ksg2Qsz-44">
                    <mxGeometry width="100" height="100" relative="1" as="geometry">
                        <Array as="points"/>
                    </mxGeometry>
                </mxCell>
                <mxCell id="VTAhvuk01UpY0Ksg2Qsz-49" value="" style="html=1;jettySize=18;whiteSpace=wrap;fontSize=10;strokeColor=#3a414a;strokeOpacity=100;strokeWidth=1.5;rounded=1;arcSize=12;edgeStyle=orthogonalEdgeStyle;startArrow=none;endArrow=block;endFill=1;exitX=0;exitY=0.5;entryX=1;entryY=0.5;lucidId=65FeqSj5o4rZ;exitDx=0;exitDy=0;entryDx=0;entryDy=0;" edge="1" parent="VTAhvuk01UpY0Ksg2Qsz-24" source="VTAhvuk01UpY0Ksg2Qsz-44" target="VTAhvuk01UpY0Ksg2Qsz-45">
                    <mxGeometry width="100" height="100" relative="1" as="geometry">
                        <Array as="points"/>
                    </mxGeometry>
                </mxCell>
                <mxCell id="VTAhvuk01UpY0Ksg2Qsz-50" value="View Content Status" style="html=1;overflow=block;blockSpacing=1;whiteSpace=wrap;fontSize=10;align=center;spacing=9;strokeOpacity=100;fillOpacity=100;rounded=1;absoluteArcSize=1;arcSize=9;fillColor=#ffffff;strokeWidth=1.5;lucidId=r7FeoEXZT3gP;container=0;" vertex="1" parent="VTAhvuk01UpY0Ksg2Qsz-24">
                    <mxGeometry x="389.39090909090885" y="377.25614443523864" width="120.45454545454548" height="40.33086313210464" as="geometry"/>
                </mxCell>
                <mxCell id="VTAhvuk01UpY0Ksg2Qsz-51" value="" style="html=1;jettySize=18;whiteSpace=wrap;fontSize=10;strokeColor=#3a414a;strokeOpacity=100;strokeWidth=1.5;rounded=1;arcSize=12;edgeStyle=orthogonalEdgeStyle;startArrow=none;endArrow=block;endFill=1;exitX=1;exitY=0.5;entryX=0;entryY=0.5;lucidId=t8Fec6Y4Vq62;exitDx=0;exitDy=0;entryDx=0;entryDy=0;" edge="1" parent="VTAhvuk01UpY0Ksg2Qsz-24" source="VTAhvuk01UpY0Ksg2Qsz-28" target="VTAhvuk01UpY0Ksg2Qsz-50">
                    <mxGeometry width="100" height="100" relative="1" as="geometry">
                        <Array as="points"/>
                    </mxGeometry>
                </mxCell>
                <mxCell id="VTAhvuk01UpY0Ksg2Qsz-52" value="" style="html=1;jettySize=18;whiteSpace=wrap;fontSize=10;strokeColor=#3a414a;strokeOpacity=100;strokeWidth=1.5;rounded=1;arcSize=12;edgeStyle=orthogonalEdgeStyle;startArrow=none;endArrow=block;endFill=1;exitX=0.5;exitY=1;exitPerimeter=0;entryX=1;entryY=0.5;lucidId=O8FeZ2OasiCC;entryDx=0;entryDy=0;" edge="1" parent="VTAhvuk01UpY0Ksg2Qsz-24" source="VTAhvuk01UpY0Ksg2Qsz-50" target="VTAhvuk01UpY0Ksg2Qsz-29">
                    <mxGeometry width="100" height="100" relative="1" as="geometry">
                        <Array as="points"/>
                    </mxGeometry>
                </mxCell>
                <mxCell id="VTAhvuk01UpY0Ksg2Qsz-53" style="edgeStyle=orthogonalEdgeStyle;rounded=0;orthogonalLoop=1;jettySize=auto;html=1;exitX=1;exitY=0.5;exitDx=0;exitDy=0;entryX=0;entryY=0.5;entryDx=0;entryDy=0;fontSize=10;" edge="1" parent="VTAhvuk01UpY0Ksg2Qsz-24" source="VTAhvuk01UpY0Ksg2Qsz-57" target="VTAhvuk01UpY0Ksg2Qsz-59">
                    <mxGeometry relative="1" as="geometry"/>
                </mxCell>
                <mxCell id="VTAhvuk01UpY0Ksg2Qsz-54" value="Yes" style="edgeLabel;html=1;align=center;verticalAlign=middle;resizable=0;points=[];fontSize=10;container=0;" vertex="1" connectable="0" parent="VTAhvuk01UpY0Ksg2Qsz-53">
                    <mxGeometry x="-0.1816" y="-1" relative="1" as="geometry">
                        <mxPoint as="offset"/>
                    </mxGeometry>
                </mxCell>
                <mxCell id="VTAhvuk01UpY0Ksg2Qsz-55" style="edgeStyle=orthogonalEdgeStyle;rounded=0;orthogonalLoop=1;jettySize=auto;html=1;entryX=0.5;entryY=0;entryDx=0;entryDy=0;fontSize=10;" edge="1" parent="VTAhvuk01UpY0Ksg2Qsz-24" source="VTAhvuk01UpY0Ksg2Qsz-57" target="VTAhvuk01UpY0Ksg2Qsz-27">
                    <mxGeometry relative="1" as="geometry"/>
                </mxCell>
                <mxCell id="VTAhvuk01UpY0Ksg2Qsz-56" value="No" style="edgeLabel;html=1;align=center;verticalAlign=middle;resizable=0;points=[];fontSize=10;container=0;" vertex="1" connectable="0" parent="VTAhvuk01UpY0Ksg2Qsz-55">
                    <mxGeometry x="-0.2438" relative="1" as="geometry">
                        <mxPoint as="offset"/>
                    </mxGeometry>
                </mxCell>
                <mxCell id="VTAhvuk01UpY0Ksg2Qsz-57" value="Do you want to&amp;nbsp;&lt;div&gt;create a new&amp;nbsp;&lt;/div&gt;&lt;div&gt;program?&lt;/div&gt;" style="html=1;overflow=block;blockSpacing=1;whiteSpace=wrap;rhombus;fontSize=10;align=center;spacing=3.8;strokeOpacity=100;fillOpacity=100;rounded=1;absoluteArcSize=1;arcSize=9;fillColor=#ffffff;strokeWidth=1.5;lucidId=XXFe1w7WmkSI;container=0;" vertex="1" parent="VTAhvuk01UpY0Ksg2Qsz-24">
                    <mxGeometry x="169.19999999999985" y="211.81416697412993" width="120.00000000000003" height="67.96965322366275" as="geometry"/>
                </mxCell>
                <mxCell id="VTAhvuk01UpY0Ksg2Qsz-58" style="edgeStyle=orthogonalEdgeStyle;rounded=0;orthogonalLoop=1;jettySize=auto;html=1;fontSize=10;" edge="1" parent="VTAhvuk01UpY0Ksg2Qsz-24" source="VTAhvuk01UpY0Ksg2Qsz-59" target="VTAhvuk01UpY0Ksg2Qsz-61">
                    <mxGeometry relative="1" as="geometry"/>
                </mxCell>
                <mxCell id="VTAhvuk01UpY0Ksg2Qsz-59" value="Create New Program" style="html=1;overflow=block;blockSpacing=1;whiteSpace=wrap;fontSize=10;align=center;spacing=9;strokeOpacity=100;fillOpacity=100;rounded=1;absoluteArcSize=1;arcSize=9;fillColor=#ffffff;strokeWidth=1.5;lucidId=_SFeTCc3I~F-;container=0;" vertex="1" parent="VTAhvuk01UpY0Ksg2Qsz-24">
                    <mxGeometry x="370.7536363636364" y="218.9137156990808" width="168.63636363636365" height="53.774484176139524" as="geometry"/>
                </mxCell>
                <mxCell id="VTAhvuk01UpY0Ksg2Qsz-60" style="edgeStyle=orthogonalEdgeStyle;rounded=0;orthogonalLoop=1;jettySize=auto;html=1;fontSize=10;" edge="1" parent="VTAhvuk01UpY0Ksg2Qsz-24" source="VTAhvuk01UpY0Ksg2Qsz-61">
                    <mxGeometry relative="1" as="geometry">
                        <mxPoint x="306.51121212121194" y="333.5615826339817" as="targetPoint"/>
                    </mxGeometry>
                </mxCell>
                <mxCell id="VTAhvuk01UpY0Ksg2Qsz-61" value="Program Added" style="html=1;overflow=block;blockSpacing=1;whiteSpace=wrap;fontSize=10;align=center;spacing=9;strokeOpacity=100;fillOpacity=100;rounded=1;absoluteArcSize=1;arcSize=9;fillColor=#ffffff;strokeWidth=1.5;lucidId=_SFeTCc3I~F-;container=0;" vertex="1" parent="VTAhvuk01UpY0Ksg2Qsz-24">
                    <mxGeometry x="378.7839393939394" y="310.0352458069209" width="152.5757575757576" height="47.05267365412208" as="geometry"/>
                </mxCell>
                <mxCell id="VTAhvuk01UpY0Ksg2Qsz-62" style="edgeStyle=orthogonalEdgeStyle;rounded=0;orthogonalLoop=1;jettySize=auto;html=1;exitX=0;exitY=0.5;exitDx=0;exitDy=0;entryX=1;entryY=0.5;entryDx=0;entryDy=0;" edge="1" parent="1" source="VTAhvuk01UpY0Ksg2Qsz-21" target="VTAhvuk01UpY0Ksg2Qsz-26">
                    <mxGeometry relative="1" as="geometry">
                        <mxPoint x="2981.054705882353" y="2648.9265469061875" as="targetPoint"/>
                        <Array as="points">
                            <mxPoint x="3039" y="2578"/>
                            <mxPoint x="3039" y="2656"/>
                        </Array>
                    </mxGeometry>
                </mxCell>
                <mxCell id="VTAhvuk01UpY0Ksg2Qsz-63" value="Yes" style="edgeLabel;html=1;align=center;verticalAlign=middle;resizable=0;points=[];" vertex="1" connectable="0" parent="VTAhvuk01UpY0Ksg2Qsz-62">
                    <mxGeometry x="-0.4241" y="-2" relative="1" as="geometry">
                        <mxPoint as="offset"/>
                    </mxGeometry>
                </mxCell>
                <mxCell id="VTAhvuk01UpY0Ksg2Qsz-64" style="edgeStyle=orthogonalEdgeStyle;rounded=0;orthogonalLoop=1;jettySize=auto;html=1;exitX=1;exitY=0.5;exitDx=0;exitDy=0;" edge="1" parent="1" source="VTAhvuk01UpY0Ksg2Qsz-9">
                    <mxGeometry relative="1" as="geometry">
                        <Array as="points">
                            <mxPoint x="2840" y="2576"/>
                            <mxPoint x="2840" y="2647"/>
                        </Array>
                        <mxPoint x="2850" y="2647" as="targetPoint"/>
                    </mxGeometry>
                </mxCell>
                <mxCell id="VTAhvuk01UpY0Ksg2Qsz-65" value="Yes" style="edgeLabel;html=1;align=center;verticalAlign=middle;resizable=0;points=[];" vertex="1" connectable="0" parent="VTAhvuk01UpY0Ksg2Qsz-64">
                    <mxGeometry x="-0.7249" y="-1" relative="1" as="geometry">
                        <mxPoint as="offset"/>
                    </mxGeometry>
                </mxCell>
                <mxCell id="VTAhvuk01UpY0Ksg2Qsz-66" style="edgeStyle=orthogonalEdgeStyle;rounded=0;orthogonalLoop=1;jettySize=auto;html=1;exitX=0.5;exitY=1;exitDx=0;exitDy=0;entryX=0.45;entryY=-0.032;entryDx=0;entryDy=0;entryPerimeter=0;" edge="1" parent="1">
                    <mxGeometry relative="1" as="geometry">
                        <mxPoint x="2942.451875052908" y="2330.4481873682676" as="sourcePoint"/>
                        <mxPoint x="2942.350853062452" y="2348.7141352993467" as="targetPoint"/>
                    </mxGeometry>
                </mxCell>
                <mxCell id="VTAhvuk01UpY0Ksg2Qsz-67" value="Start" style="html=1;overflow=block;blockSpacing=1;whiteSpace=wrap;fontSize=10;align=center;spacing=3.8;strokeOpacity=100;fillOpacity=100;rounded=1;absoluteArcSize=1;arcSize=9;fillColor=#ffffff;strokeWidth=1.5;lucidId=B5FeSlZxhqdi;shape=ellipse;perimeter=ellipsePerimeter;aspect=fixed;container=0;" vertex="1" parent="1">
                    <mxGeometry x="2906.0033333333336" y="2293.9996456486933" width="72.8970834391486" height="36.4485417195743" as="geometry"/>
                </mxCell>
            </root>
        </mxGraphModel>
    </diagram>
    <diagram id="qoZmovBF6H6TwvtbEA4Y" name="Financial Coordinator">
        <mxGraphModel dx="1371" dy="1024" grid="1" gridSize="10" guides="1" tooltips="1" connect="1" arrows="1" fold="1" page="1" pageScale="1" pageWidth="850" pageHeight="1100" math="0" shadow="0">
            <root>
                <mxCell id="0"/>
                <mxCell id="1" parent="0"/>
                <mxCell id="pw4IDq92kUEZXWkjp_v5-1" style="edgeStyle=orthogonalEdgeStyle;rounded=0;orthogonalLoop=1;jettySize=auto;html=1;exitX=0.5;exitY=1;exitDx=0;exitDy=0;entryX=0.5;entryY=0;entryDx=0;entryDy=0;" edge="1" parent="1" source="pw4IDq92kUEZXWkjp_v5-2" target="pw4IDq92kUEZXWkjp_v5-26">
                    <mxGeometry relative="1" as="geometry"/>
                </mxCell>
                <mxCell id="pw4IDq92kUEZXWkjp_v5-2" value="Start" style="html=1;overflow=block;blockSpacing=1;whiteSpace=wrap;fontSize=15;align=center;spacing=3.8;strokeOpacity=100;fillOpacity=100;rounded=1;absoluteArcSize=1;arcSize=9;fillColor=#ffffff;strokeWidth=1.5;lucidId=vcGeRuUV9QVm;fontStyle=0;labelBackgroundColor=none;labelBorderColor=none;textShadow=0;shape=ellipse;perimeter=ellipsePerimeter;aspect=fixed;container=0;" vertex="1" parent="1">
                    <mxGeometry x="273.72896551724136" y="30" width="112.55172413793103" height="56.275862068965516" as="geometry"/>
                </mxCell>
                <mxCell id="pw4IDq92kUEZXWkjp_v5-3" value="" style="group;fontSize=10;" vertex="1" connectable="0" parent="1">
                    <mxGeometry x="49.99529411764706" y="109.99642714570837" width="500" height="315.07" as="geometry"/>
                </mxCell>
                <mxCell id="pw4IDq92kUEZXWkjp_v5-4" style="edgeStyle=orthogonalEdgeStyle;rounded=0;orthogonalLoop=1;jettySize=auto;html=1;exitX=0.5;exitY=1;exitDx=0;exitDy=0;entryX=0.5;entryY=0;entryDx=0;entryDy=0;fontSize=10;" edge="1" parent="pw4IDq92kUEZXWkjp_v5-3" target="pw4IDq92kUEZXWkjp_v5-21">
                    <mxGeometry relative="1" as="geometry">
                        <mxPoint x="282.7685239150919" y="65.86146825360619" as="sourcePoint"/>
                    </mxGeometry>
                </mxCell>
                <mxCell id="pw4IDq92kUEZXWkjp_v5-5" value="Login as Financial Coordinator" style="html=1;overflow=block;blockSpacing=1;whiteSpace=wrap;fontSize=10;align=center;spacing=9;strokeOpacity=100;fillOpacity=100;rounded=1;absoluteArcSize=1;arcSize=9;fillColor=#ffffff;strokeWidth=1.5;lucidId=waGefKhzuSeb;container=0;" vertex="1" parent="pw4IDq92kUEZXWkjp_v5-3">
                    <mxGeometry x="228.63887421222637" y="55.789671305851684" width="108.25929940573133" height="40.071620198795074" as="geometry"/>
                </mxCell>
                <mxCell id="pw4IDq92kUEZXWkjp_v5-6" style="edgeStyle=orthogonalEdgeStyle;rounded=0;orthogonalLoop=1;jettySize=auto;html=1;exitX=0.5;exitY=1;exitDx=0;exitDy=0;entryX=0.5;entryY=0;entryDx=0;entryDy=0;fontSize=10;" edge="1" parent="pw4IDq92kUEZXWkjp_v5-3" source="pw4IDq92kUEZXWkjp_v5-7" target="pw4IDq92kUEZXWkjp_v5-12">
                    <mxGeometry relative="1" as="geometry">
                        <mxPoint x="116.96974731326286" y="203.007047463114" as="targetPoint"/>
                    </mxGeometry>
                </mxCell>
                <mxCell id="pw4IDq92kUEZXWkjp_v5-7" value="Enter Account&amp;nbsp; Credential" style="html=1;overflow=block;blockSpacing=1;whiteSpace=wrap;fontSize=10;align=center;spacing=9;strokeOpacity=100;fillOpacity=100;rounded=1;absoluteArcSize=1;arcSize=9;fillColor=#ffffff;strokeWidth=1.5;lucidId=waGefKhzuSeb;container=0;" vertex="1" parent="pw4IDq92kUEZXWkjp_v5-3">
                    <mxGeometry x="61.6826082456819" y="136.78919408366113" width="108.25929940573133" height="40.071620198795074" as="geometry"/>
                </mxCell>
                <mxCell id="pw4IDq92kUEZXWkjp_v5-8" style="edgeStyle=orthogonalEdgeStyle;rounded=0;orthogonalLoop=1;jettySize=auto;html=1;exitX=0;exitY=0.5;exitDx=0;exitDy=0;fontSize=10;" edge="1" parent="pw4IDq92kUEZXWkjp_v5-3" source="pw4IDq92kUEZXWkjp_v5-12" target="pw4IDq92kUEZXWkjp_v5-14">
                    <mxGeometry relative="1" as="geometry">
                        <mxPoint x="51.27065097201893" y="248.00211170850991" as="targetPoint"/>
                        <Array as="points">
                            <mxPoint x="52.428140336734295" y="226.00224132441352"/>
                        </Array>
                    </mxGeometry>
                </mxCell>
                <mxCell id="pw4IDq92kUEZXWkjp_v5-9" value="No" style="edgeLabel;html=1;align=center;verticalAlign=middle;resizable=0;points=[];fontSize=10;" vertex="1" connectable="0" parent="pw4IDq92kUEZXWkjp_v5-8">
                    <mxGeometry x="-0.7008" y="-2" relative="1" as="geometry">
                        <mxPoint as="offset"/>
                    </mxGeometry>
                </mxCell>
                <mxCell id="pw4IDq92kUEZXWkjp_v5-10" style="edgeStyle=orthogonalEdgeStyle;rounded=0;orthogonalLoop=1;jettySize=auto;html=1;exitX=1;exitY=0.5;exitDx=0;exitDy=0;" edge="1" parent="pw4IDq92kUEZXWkjp_v5-3" source="pw4IDq92kUEZXWkjp_v5-12">
                    <mxGeometry relative="1" as="geometry">
                        <mxPoint x="230.00470588235294" y="226.28928714000585" as="targetPoint"/>
                    </mxGeometry>
                </mxCell>
                <mxCell id="pw4IDq92kUEZXWkjp_v5-11" value="Yes" style="edgeLabel;html=1;align=center;verticalAlign=middle;resizable=0;points=[];" vertex="1" connectable="0" parent="pw4IDq92kUEZXWkjp_v5-10">
                    <mxGeometry x="-0.2488" relative="1" as="geometry">
                        <mxPoint as="offset"/>
                    </mxGeometry>
                </mxCell>
                <mxCell id="pw4IDq92kUEZXWkjp_v5-12" value="Is the credentials correct?" style="html=1;overflow=block;blockSpacing=1;whiteSpace=wrap;fontSize=10;align=center;spacing=9;strokeOpacity=100;fillOpacity=100;rounded=1;absoluteArcSize=1;arcSize=9;fillColor=#ffffff;strokeWidth=1.5;lucidId=waGefKhzuSeb;shape=rhombus;perimeter=rhombusPerimeter;container=0;" vertex="1" parent="pw4IDq92kUEZXWkjp_v5-3">
                    <mxGeometry x="62.84009761039726" y="194.00710048780172" width="108.25929940573133" height="64.78245265471871" as="geometry"/>
                </mxCell>
                <mxCell id="pw4IDq92kUEZXWkjp_v5-13" style="edgeStyle=orthogonalEdgeStyle;rounded=0;orthogonalLoop=1;jettySize=auto;html=1;exitX=0;exitY=0.5;exitDx=0;exitDy=0;entryX=0;entryY=0.5;entryDx=0;entryDy=0;fontSize=10;" edge="1" parent="pw4IDq92kUEZXWkjp_v5-3" source="pw4IDq92kUEZXWkjp_v5-14" target="pw4IDq92kUEZXWkjp_v5-7">
                    <mxGeometry relative="1" as="geometry"/>
                </mxCell>
                <mxCell id="pw4IDq92kUEZXWkjp_v5-14" value="Error Message" style="html=1;overflow=block;blockSpacing=1;whiteSpace=wrap;fontSize=10;align=center;spacing=9;strokeOpacity=100;fillOpacity=100;rounded=1;absoluteArcSize=1;arcSize=9;fillColor=#ffffff;strokeWidth=1.5;lucidId=waGefKhzuSeb;container=0;" vertex="1" parent="pw4IDq92kUEZXWkjp_v5-3">
                    <mxGeometry y="274.9983798012049" width="108.25929940573133" height="40.071620198795074" as="geometry"/>
                </mxCell>
                <mxCell id="pw4IDq92kUEZXWkjp_v5-15" style="edgeStyle=orthogonalEdgeStyle;rounded=0;orthogonalLoop=1;jettySize=auto;html=1;exitX=0.5;exitY=1;exitDx=0;exitDy=0;entryX=0.5;entryY=0;entryDx=0;entryDy=0;fontSize=10;" edge="1" parent="pw4IDq92kUEZXWkjp_v5-3" target="pw4IDq92kUEZXWkjp_v5-24">
                    <mxGeometry relative="1" as="geometry">
                        <mxPoint x="445.8703502971343" y="175.86082017408816" as="sourcePoint"/>
                    </mxGeometry>
                </mxCell>
                <mxCell id="pw4IDq92kUEZXWkjp_v5-16" value="Login with Google" style="html=1;overflow=block;blockSpacing=1;whiteSpace=wrap;fontSize=10;align=center;spacing=9;strokeOpacity=100;fillOpacity=100;rounded=1;absoluteArcSize=1;arcSize=9;fillColor=#ffffff;strokeWidth=1.5;lucidId=waGefKhzuSeb;container=0;" vertex="1" parent="pw4IDq92kUEZXWkjp_v5-3">
                    <mxGeometry x="391.74070059426856" y="134.7892058669251" width="108.25929940573133" height="40.071620198795074" as="geometry"/>
                </mxCell>
                <mxCell id="pw4IDq92kUEZXWkjp_v5-17" style="edgeStyle=orthogonalEdgeStyle;rounded=0;orthogonalLoop=1;jettySize=auto;html=1;exitX=1;exitY=0.5;exitDx=0;exitDy=0;entryX=0;entryY=0.5;entryDx=0;entryDy=0;fontSize=10;" edge="1" parent="pw4IDq92kUEZXWkjp_v5-3" source="pw4IDq92kUEZXWkjp_v5-21" target="pw4IDq92kUEZXWkjp_v5-16">
                    <mxGeometry relative="1" as="geometry"/>
                </mxCell>
                <mxCell id="pw4IDq92kUEZXWkjp_v5-18" value="Google" style="edgeLabel;html=1;align=center;verticalAlign=middle;resizable=0;points=[];fontSize=10;" vertex="1" connectable="0" parent="pw4IDq92kUEZXWkjp_v5-17">
                    <mxGeometry x="-0.4962" y="-2" relative="1" as="geometry">
                        <mxPoint x="6" y="-4" as="offset"/>
                    </mxGeometry>
                </mxCell>
                <mxCell id="pw4IDq92kUEZXWkjp_v5-19" style="edgeStyle=orthogonalEdgeStyle;rounded=0;orthogonalLoop=1;jettySize=auto;html=1;exitX=0;exitY=0.5;exitDx=0;exitDy=0;entryX=1;entryY=0.5;entryDx=0;entryDy=0;fontSize=10;" edge="1" parent="pw4IDq92kUEZXWkjp_v5-3" source="pw4IDq92kUEZXWkjp_v5-21" target="pw4IDq92kUEZXWkjp_v5-7">
                    <mxGeometry relative="1" as="geometry"/>
                </mxCell>
                <mxCell id="pw4IDq92kUEZXWkjp_v5-20" value="Manual" style="edgeLabel;html=1;align=center;verticalAlign=middle;resizable=0;points=[];fontSize=10;" vertex="1" connectable="0" parent="pw4IDq92kUEZXWkjp_v5-19">
                    <mxGeometry x="-0.1394" y="-2" relative="1" as="geometry">
                        <mxPoint as="offset"/>
                    </mxGeometry>
                </mxCell>
                <mxCell id="pw4IDq92kUEZXWkjp_v5-21" value="How do you want to log in?" style="html=1;overflow=block;blockSpacing=1;whiteSpace=wrap;fontSize=10;align=center;spacing=9;strokeOpacity=100;fillOpacity=100;rounded=1;absoluteArcSize=1;arcSize=9;fillColor=#ffffff;strokeWidth=1.5;lucidId=waGefKhzuSeb;shape=rhombus;perimeter=rhombusPerimeter;container=0;" vertex="1" parent="pw4IDq92kUEZXWkjp_v5-3">
                    <mxGeometry x="228.63887421222637" y="125.22750571424947" width="108.25929940573133" height="64.78245265471871" as="geometry"/>
                </mxCell>
                <mxCell id="pw4IDq92kUEZXWkjp_v5-22" style="edgeStyle=orthogonalEdgeStyle;rounded=0;orthogonalLoop=1;jettySize=auto;html=1;exitX=1;exitY=0.5;exitDx=0;exitDy=0;entryX=1;entryY=0.5;entryDx=0;entryDy=0;fontSize=10;" edge="1" parent="pw4IDq92kUEZXWkjp_v5-3" source="pw4IDq92kUEZXWkjp_v5-24" target="pw4IDq92kUEZXWkjp_v5-26">
                    <mxGeometry relative="1" as="geometry"/>
                </mxCell>
                <mxCell id="pw4IDq92kUEZXWkjp_v5-23" value="No" style="edgeLabel;html=1;align=center;verticalAlign=middle;resizable=0;points=[];fontSize=10;" vertex="1" connectable="0" parent="pw4IDq92kUEZXWkjp_v5-22">
                    <mxGeometry x="-0.9319" y="1" relative="1" as="geometry">
                        <mxPoint as="offset"/>
                    </mxGeometry>
                </mxCell>
                <mxCell id="pw4IDq92kUEZXWkjp_v5-24" value="Is email registered?" style="html=1;overflow=block;blockSpacing=1;whiteSpace=wrap;fontSize=10;align=center;spacing=9;strokeOpacity=100;fillOpacity=100;rounded=1;absoluteArcSize=1;arcSize=9;fillColor=#ffffff;strokeWidth=1.5;lucidId=waGefKhzuSeb;shape=rhombus;perimeter=rhombusPerimeter;container=0;" vertex="1" parent="pw4IDq92kUEZXWkjp_v5-3">
                    <mxGeometry x="391.74070059426856" y="196.00708870453775" width="108.25929940573133" height="64.78245265471871" as="geometry"/>
                </mxCell>
                <mxCell id="pw4IDq92kUEZXWkjp_v5-25" style="edgeStyle=orthogonalEdgeStyle;rounded=0;orthogonalLoop=1;jettySize=auto;html=1;exitX=0.5;exitY=1;exitDx=0;exitDy=0;entryX=0.5;entryY=0;entryDx=0;entryDy=0;fontSize=10;" edge="1" parent="pw4IDq92kUEZXWkjp_v5-3" source="pw4IDq92kUEZXWkjp_v5-26" target="pw4IDq92kUEZXWkjp_v5-5">
                    <mxGeometry relative="1" as="geometry"/>
                </mxCell>
                <mxCell id="pw4IDq92kUEZXWkjp_v5-26" value="Login Page" style="html=1;overflow=block;blockSpacing=1;whiteSpace=wrap;fontSize=10;align=center;spacing=9;strokeOpacity=100;fillOpacity=100;rounded=1;absoluteArcSize=1;arcSize=9;fillColor=#ffffff;strokeWidth=1.5;lucidId=waGefKhzuSeb;container=0;" vertex="1" parent="pw4IDq92kUEZXWkjp_v5-3">
                    <mxGeometry x="228.63887421222643" width="108.25929940573133" height="40.071620198795074" as="geometry"/>
                </mxCell>
                <mxCell id="pw4IDq92kUEZXWkjp_v5-27" value="" style="group;fontSize=11;" vertex="1" connectable="0" parent="1">
                    <mxGeometry x="80" y="320" width="500" height="728.19" as="geometry"/>
                </mxCell>
                <mxCell id="pw4IDq92kUEZXWkjp_v5-28" value="Login as Financial Coordinator" style="html=1;overflow=block;blockSpacing=1;whiteSpace=wrap;fontSize=10;align=center;spacing=9;strokeOpacity=100;fillOpacity=100;rounded=1;absoluteArcSize=1;arcSize=9;fillColor=#ffffff;strokeWidth=1.5;lucidId=vcGesdXtNDBJ;fontStyle=0;labelBackgroundColor=none;labelBorderColor=none;textShadow=0;container=0;" vertex="1" parent="pw4IDq92kUEZXWkjp_v5-27">
                    <mxGeometry x="200" width="103.44827586206895" height="44.94382661007987" as="geometry"/>
                </mxCell>
                <mxCell id="pw4IDq92kUEZXWkjp_v5-29" value="View Financial Dashboard" style="html=1;overflow=block;blockSpacing=1;whiteSpace=wrap;fontSize=10;align=center;spacing=9;strokeOpacity=100;fillOpacity=100;rounded=1;absoluteArcSize=1;arcSize=9;fillColor=#ffffff;strokeWidth=1.5;lucidId=vcGe_aXS.FLR;fontStyle=0;labelBackgroundColor=none;labelBorderColor=none;textShadow=0;container=0;" vertex="1" parent="pw4IDq92kUEZXWkjp_v5-27">
                    <mxGeometry x="179.31034482758614" y="67.41573991511977" width="144.8275862068965" height="44.94382661007987" as="geometry"/>
                </mxCell>
                <mxCell id="pw4IDq92kUEZXWkjp_v5-30" value="" style="html=1;jettySize=18;whiteSpace=wrap;fontSize=10;strokeColor=#3a414a;strokeOpacity=100;strokeWidth=1.5;rounded=1;arcSize=12;edgeStyle=orthogonalEdgeStyle;startArrow=none;endArrow=block;endFill=1;exitX=0.5;exitY=1.012;exitPerimeter=0;entryX=0.5;entryY=-0.012;entryPerimeter=0;lucidId=vcGea5VGIChK;fontStyle=0;labelBackgroundColor=none;labelBorderColor=none;textShadow=0;" edge="1" parent="pw4IDq92kUEZXWkjp_v5-27" source="pw4IDq92kUEZXWkjp_v5-28" target="pw4IDq92kUEZXWkjp_v5-29">
                    <mxGeometry width="100" height="100" relative="1" as="geometry">
                        <Array as="points"/>
                    </mxGeometry>
                </mxCell>
                <mxCell id="pw4IDq92kUEZXWkjp_v5-31" value="View / Manage&amp;nbsp;&lt;div&gt;Membership Payments &lt;/div&gt;" style="html=1;overflow=block;blockSpacing=1;whiteSpace=wrap;fontSize=10;align=center;spacing=9;strokeOpacity=100;fillOpacity=100;rounded=1;absoluteArcSize=1;arcSize=9;fillColor=#ffffff;strokeWidth=1.5;lucidId=BdGewA~zMQPw;fontStyle=0;labelBackgroundColor=none;labelBorderColor=none;textShadow=0;container=0;" vertex="1" parent="pw4IDq92kUEZXWkjp_v5-27">
                    <mxGeometry x="184.82758620689648" y="134.83147983023954" width="134.48275862068962" height="44.94382661007987" as="geometry"/>
                </mxCell>
                <mxCell id="pw4IDq92kUEZXWkjp_v5-32" value="&lt;span class=&quot;_fadeIn_m1hgl_8&quot;&gt;Is &lt;/span&gt;&lt;span class=&quot;_fadeIn_m1hgl_8&quot;&gt;this &lt;/span&gt;&lt;span class=&quot;_fadeIn_m1hgl_8&quot;&gt;payment&amp;nbsp;&lt;/span&gt;&lt;div&gt;&lt;span class=&quot;_fadeIn_m1hgl_8&quot;&gt;for &lt;/span&gt;&lt;span class=&quot;_fadeIn_m1hgl_8&quot;&gt;the &lt;/span&gt;&lt;span class=&quot;_fadeIn_m1hgl_8&quot;&gt;current&amp;nbsp;&lt;/span&gt;&lt;/div&gt;&lt;div&gt;&lt;span class=&quot;_fadeIn_m1hgl_8&quot;&gt;quarter?&lt;/span&gt;&lt;/div&gt;" style="html=1;overflow=block;blockSpacing=1;whiteSpace=wrap;rhombus;fontSize=10;align=center;spacing=3.8;strokeOpacity=100;fillOpacity=100;rounded=1;absoluteArcSize=1;arcSize=9;fillColor=#ffffff;strokeWidth=1.5;lucidId=BfGeLoeiGucm;fontStyle=0;labelBackgroundColor=none;labelBorderColor=none;textShadow=0;container=0;" vertex="1" parent="pw4IDq92kUEZXWkjp_v5-27">
                    <mxGeometry x="195.17241379310343" y="250.18730146277795" width="113.44827586206897" height="97.37829098850636" as="geometry"/>
                </mxCell>
                <mxCell id="pw4IDq92kUEZXWkjp_v5-33" value="View / Manage Donations" style="html=1;overflow=block;blockSpacing=1;whiteSpace=wrap;fontSize=10;align=center;spacing=9;strokeOpacity=100;fillOpacity=100;rounded=1;absoluteArcSize=1;arcSize=9;fillColor=#ffffff;strokeWidth=1.5;lucidId=OyGePb0Gl.SE;fontStyle=0;labelBackgroundColor=none;labelBorderColor=none;textShadow=0;container=0;" vertex="1" parent="pw4IDq92kUEZXWkjp_v5-27">
                    <mxGeometry x="184.82758620689648" y="377.5281435246709" width="134.48275862068962" height="33.707869957559886" as="geometry"/>
                </mxCell>
                <mxCell id="pw4IDq92kUEZXWkjp_v5-34" value="" style="html=1;jettySize=18;whiteSpace=wrap;fontSize=10;strokeColor=#3a414a;strokeOpacity=100;strokeWidth=1.5;rounded=1;arcSize=12;edgeStyle=orthogonalEdgeStyle;startArrow=none;endArrow=block;endFill=1;exitX=0.5;exitY=1;exitPerimeter=0;entryX=0.5;entryY=0;entryPerimeter=0;lucidId=XDGeL5~08Fph;fontStyle=0;labelBackgroundColor=none;labelBorderColor=none;textShadow=0;" edge="1" parent="pw4IDq92kUEZXWkjp_v5-27" source="pw4IDq92kUEZXWkjp_v5-29" target="pw4IDq92kUEZXWkjp_v5-31">
                    <mxGeometry width="100" height="100" relative="1" as="geometry">
                        <Array as="points"/>
                    </mxGeometry>
                </mxCell>
                <mxCell id="pw4IDq92kUEZXWkjp_v5-35" value="" style="html=1;jettySize=18;whiteSpace=wrap;fontSize=10;strokeColor=#3a414a;strokeOpacity=100;strokeWidth=2;rounded=1;arcSize=12;edgeStyle=orthogonalEdgeStyle;startArrow=none;endArrow=block;endFill=1;exitX=0.5;exitY=1;exitPerimeter=0;entryX=0.5;entryY=0;lucidId=pEGex89AY75h;entryDx=0;entryDy=0;fontStyle=0;labelBackgroundColor=none;labelBorderColor=none;textShadow=0;" edge="1" parent="pw4IDq92kUEZXWkjp_v5-27" source="pw4IDq92kUEZXWkjp_v5-31" target="pw4IDq92kUEZXWkjp_v5-32">
                    <mxGeometry width="100" height="100" relative="1" as="geometry">
                        <Array as="points"/>
                        <mxPoint x="237.9310344827586" y="205.24347485269803" as="targetPoint"/>
                    </mxGeometry>
                </mxCell>
                <mxCell id="pw4IDq92kUEZXWkjp_v5-36" value="" style="html=1;jettySize=18;whiteSpace=wrap;fontSize=10;fontColor=#333333;fontStyle=0;align=center;strokeColor=#3a414a;strokeOpacity=100;strokeWidth=2;rounded=1;arcSize=12;edgeStyle=orthogonalEdgeStyle;startArrow=none;endArrow=block;endFill=1;exitX=1;exitY=0.5;exitPerimeter=0;entryX=0;entryY=0.5;lucidId=yEGe65ELDvIN;entryDx=0;entryDy=0;labelBackgroundColor=none;labelBorderColor=none;textShadow=0;" edge="1" parent="pw4IDq92kUEZXWkjp_v5-27" source="pw4IDq92kUEZXWkjp_v5-32" target="pw4IDq92kUEZXWkjp_v5-43">
                    <mxGeometry width="100" height="100" relative="1" as="geometry">
                        <Array as="points"/>
                    </mxGeometry>
                </mxCell>
                <mxCell id="pw4IDq92kUEZXWkjp_v5-37" value="Yes" style="edgeLabel;html=1;align=center;verticalAlign=middle;resizable=0;points=[];container=0;fontSize=10;" vertex="1" connectable="0" parent="pw4IDq92kUEZXWkjp_v5-36">
                    <mxGeometry x="0.4229" y="2" relative="1" as="geometry">
                        <mxPoint as="offset"/>
                    </mxGeometry>
                </mxCell>
                <mxCell id="pw4IDq92kUEZXWkjp_v5-38" value="" style="html=1;jettySize=18;whiteSpace=wrap;fontSize=10;fontColor=#333333;fontStyle=0;align=center;strokeColor=#3a414a;strokeOpacity=100;strokeWidth=2;rounded=1;arcSize=12;edgeStyle=orthogonalEdgeStyle;startArrow=none;endArrow=block;endFill=1;exitX=0;exitY=0.5;lucidId=0JGee5UnjFqH;exitDx=0;exitDy=0;entryX=1;entryY=0.5;entryDx=0;entryDy=0;labelBackgroundColor=none;labelBorderColor=none;textShadow=0;" edge="1" parent="pw4IDq92kUEZXWkjp_v5-27" source="pw4IDq92kUEZXWkjp_v5-32" target="pw4IDq92kUEZXWkjp_v5-47">
                    <mxGeometry width="100" height="100" relative="1" as="geometry">
                        <Array as="points"/>
                        <mxPoint x="296.551724137931" y="332.58431691459094" as="targetPoint"/>
                    </mxGeometry>
                </mxCell>
                <mxCell id="pw4IDq92kUEZXWkjp_v5-39" value="No" style="edgeLabel;html=1;align=center;verticalAlign=middle;resizable=0;points=[];container=0;fontSize=10;" vertex="1" connectable="0" parent="pw4IDq92kUEZXWkjp_v5-38">
                    <mxGeometry x="0.4789" y="2" relative="1" as="geometry">
                        <mxPoint as="offset"/>
                    </mxGeometry>
                </mxCell>
                <mxCell id="pw4IDq92kUEZXWkjp_v5-40" value="" style="html=1;jettySize=18;whiteSpace=wrap;fontSize=10;strokeColor=#3a414a;strokeOpacity=100;strokeWidth=1.5;rounded=1;arcSize=12;edgeStyle=orthogonalEdgeStyle;startArrow=none;endArrow=block;endFill=1;exitX=0.5;exitY=1;exitPerimeter=0;lucidId=jKGeIMRAYW_-;entryX=0.5;entryY=0;entryDx=0;entryDy=0;fontStyle=0;labelBackgroundColor=none;labelBorderColor=none;textShadow=0;" edge="1" parent="pw4IDq92kUEZXWkjp_v5-27" source="pw4IDq92kUEZXWkjp_v5-33" target="pw4IDq92kUEZXWkjp_v5-54">
                    <mxGeometry width="100" height="100" relative="1" as="geometry">
                        <Array as="points"/>
                        <mxPoint x="248.27586206896547" y="459.92515897648383" as="targetPoint"/>
                    </mxGeometry>
                </mxCell>
                <mxCell id="pw4IDq92kUEZXWkjp_v5-41" value="End" style="html=1;overflow=block;blockSpacing=1;whiteSpace=wrap;fontSize=11;align=center;spacing=3.8;strokeOpacity=100;fillOpacity=100;rounded=1;absoluteArcSize=1;arcSize=9;fillColor=#ffffff;strokeWidth=1.5;lucidId=FKGe9b0vE5Jl;fontStyle=0;labelBackgroundColor=none;labelBorderColor=none;textShadow=0;shape=ellipse;perimeter=ellipsePerimeter;aspect=fixed;container=0;" vertex="1" parent="pw4IDq92kUEZXWkjp_v5-27">
                    <mxGeometry x="210.34482758620686" y="684.6442920268832" width="82.15547612900124" height="41.07773806450062" as="geometry"/>
                </mxCell>
                <mxCell id="pw4IDq92kUEZXWkjp_v5-42" style="edgeStyle=orthogonalEdgeStyle;rounded=0;orthogonalLoop=1;jettySize=auto;html=1;entryX=0.5;entryY=0;entryDx=0;entryDy=0;fontStyle=0;labelBackgroundColor=none;labelBorderColor=none;textShadow=0;strokeWidth=2;fontSize=10;" edge="1" parent="pw4IDq92kUEZXWkjp_v5-27" source="pw4IDq92kUEZXWkjp_v5-43" target="pw4IDq92kUEZXWkjp_v5-45">
                    <mxGeometry relative="1" as="geometry"/>
                </mxCell>
                <mxCell id="pw4IDq92kUEZXWkjp_v5-43" value="Record Payment " style="html=1;overflow=block;blockSpacing=1;whiteSpace=wrap;fontSize=10;align=center;spacing=9;strokeOpacity=100;fillOpacity=100;rounded=1;absoluteArcSize=1;arcSize=9;fillColor=#ffffff;strokeWidth=1.5;lucidId=BdGewA~zMQPw;fontStyle=0;labelBackgroundColor=none;labelBorderColor=none;textShadow=0;container=0;" vertex="1" parent="pw4IDq92kUEZXWkjp_v5-27">
                    <mxGeometry x="365.51724137931035" y="250.18730146277795" width="134.48275862068962" height="44.94382661007987" as="geometry"/>
                </mxCell>
                <mxCell id="pw4IDq92kUEZXWkjp_v5-44" value="" style="edgeStyle=orthogonalEdgeStyle;rounded=0;orthogonalLoop=1;jettySize=auto;entryX=1;entryY=0.5;entryDx=0;entryDy=0;exitX=0.5;exitY=1;exitDx=0;exitDy=0;fontStyle=0;labelBackgroundColor=none;labelBorderColor=none;textShadow=0;strokeWidth=2;html=1;fontSize=10;" edge="1" parent="pw4IDq92kUEZXWkjp_v5-27" source="pw4IDq92kUEZXWkjp_v5-45" target="pw4IDq92kUEZXWkjp_v5-33">
                    <mxGeometry relative="1" as="geometry"/>
                </mxCell>
                <mxCell id="pw4IDq92kUEZXWkjp_v5-45" value="Send Confirmation Email " style="html=1;overflow=block;blockSpacing=1;whiteSpace=wrap;fontSize=10;align=center;spacing=9;strokeOpacity=100;fillOpacity=100;rounded=1;absoluteArcSize=1;arcSize=9;fillColor=#ffffff;strokeWidth=1.5;lucidId=BdGewA~zMQPw;fontStyle=0;labelBackgroundColor=none;labelBorderColor=none;textShadow=0;container=0;" vertex="1" parent="pw4IDq92kUEZXWkjp_v5-27">
                    <mxGeometry x="365.51724137931035" y="317.6030413778977" width="134.48275862068962" height="44.94382661007987" as="geometry"/>
                </mxCell>
                <mxCell id="pw4IDq92kUEZXWkjp_v5-46" style="edgeStyle=orthogonalEdgeStyle;rounded=0;orthogonalLoop=1;jettySize=auto;html=1;entryX=0.5;entryY=0;entryDx=0;entryDy=0;fontStyle=0;labelBackgroundColor=none;labelBorderColor=none;textShadow=0;strokeWidth=2;fontSize=10;" edge="1" parent="pw4IDq92kUEZXWkjp_v5-27" source="pw4IDq92kUEZXWkjp_v5-47" target="pw4IDq92kUEZXWkjp_v5-49">
                    <mxGeometry relative="1" as="geometry"/>
                </mxCell>
                <mxCell id="pw4IDq92kUEZXWkjp_v5-47" value="Check for due/missing&amp;nbsp;&amp;nbsp;" style="html=1;overflow=block;blockSpacing=1;whiteSpace=wrap;fontSize=10;align=center;spacing=9;strokeOpacity=100;fillOpacity=100;rounded=1;absoluteArcSize=1;arcSize=9;fillColor=#ffffff;strokeWidth=1.5;lucidId=BdGewA~zMQPw;fontStyle=0;labelBackgroundColor=none;labelBorderColor=none;textShadow=0;container=0;" vertex="1" parent="pw4IDq92kUEZXWkjp_v5-27">
                    <mxGeometry y="250.18730146277795" width="134.48275862068962" height="44.94382661007987" as="geometry"/>
                </mxCell>
                <mxCell id="pw4IDq92kUEZXWkjp_v5-48" style="edgeStyle=orthogonalEdgeStyle;rounded=0;orthogonalLoop=1;jettySize=auto;html=1;entryX=0;entryY=0.5;entryDx=0;entryDy=0;exitX=0.5;exitY=1;exitDx=0;exitDy=0;fontStyle=0;labelBackgroundColor=none;labelBorderColor=none;textShadow=0;strokeWidth=2;fontSize=10;" edge="1" parent="pw4IDq92kUEZXWkjp_v5-27" source="pw4IDq92kUEZXWkjp_v5-49" target="pw4IDq92kUEZXWkjp_v5-33">
                    <mxGeometry relative="1" as="geometry"/>
                </mxCell>
                <mxCell id="pw4IDq92kUEZXWkjp_v5-49" value="Send Reminder Notification" style="html=1;overflow=block;blockSpacing=1;whiteSpace=wrap;fontSize=10;align=center;spacing=9;strokeOpacity=100;fillOpacity=100;rounded=1;absoluteArcSize=1;arcSize=9;fillColor=#ffffff;strokeWidth=1.5;lucidId=BdGewA~zMQPw;fontStyle=0;labelBackgroundColor=none;labelBorderColor=none;textShadow=0;container=0;" vertex="1" parent="pw4IDq92kUEZXWkjp_v5-27">
                    <mxGeometry y="325.0936791462443" width="134.48275862068962" height="44.94382661007987" as="geometry"/>
                </mxCell>
                <mxCell id="pw4IDq92kUEZXWkjp_v5-50" style="edgeStyle=orthogonalEdgeStyle;rounded=0;orthogonalLoop=1;jettySize=auto;html=1;entryX=0;entryY=0.5;entryDx=0;entryDy=0;strokeWidth=2;fontStyle=0;labelBackgroundColor=none;fontSize=10;" edge="1" parent="pw4IDq92kUEZXWkjp_v5-27" source="pw4IDq92kUEZXWkjp_v5-54" target="pw4IDq92kUEZXWkjp_v5-56">
                    <mxGeometry relative="1" as="geometry"/>
                </mxCell>
                <mxCell id="pw4IDq92kUEZXWkjp_v5-51" value="Yes" style="edgeLabel;html=1;align=center;verticalAlign=middle;resizable=0;points=[];fontStyle=0;container=0;fontSize=10;" vertex="1" connectable="0" parent="pw4IDq92kUEZXWkjp_v5-50">
                    <mxGeometry x="-0.1575" relative="1" as="geometry">
                        <mxPoint as="offset"/>
                    </mxGeometry>
                </mxCell>
                <mxCell id="pw4IDq92kUEZXWkjp_v5-52" style="edgeStyle=orthogonalEdgeStyle;rounded=0;orthogonalLoop=1;jettySize=auto;html=1;entryX=1;entryY=0.5;entryDx=0;entryDy=0;fontStyle=0;strokeWidth=2;fontSize=10;" edge="1" parent="pw4IDq92kUEZXWkjp_v5-27" source="pw4IDq92kUEZXWkjp_v5-54" target="pw4IDq92kUEZXWkjp_v5-60">
                    <mxGeometry relative="1" as="geometry"/>
                </mxCell>
                <mxCell id="pw4IDq92kUEZXWkjp_v5-53" value="No" style="edgeLabel;html=1;align=center;verticalAlign=middle;resizable=0;points=[];fontStyle=0;container=0;fontSize=10;" vertex="1" connectable="0" parent="pw4IDq92kUEZXWkjp_v5-52">
                    <mxGeometry x="-0.0826" relative="1" as="geometry">
                        <mxPoint as="offset"/>
                    </mxGeometry>
                </mxCell>
                <mxCell id="pw4IDq92kUEZXWkjp_v5-54" value="Is Donor&amp;nbsp;&lt;div&gt;Identifiable?&lt;/div&gt;" style="html=1;overflow=block;blockSpacing=1;whiteSpace=wrap;rhombus;fontSize=10;align=center;spacing=3.8;strokeOpacity=100;fillOpacity=100;rounded=1;absoluteArcSize=1;arcSize=9;fillColor=#ffffff;strokeWidth=1.5;lucidId=BfGeLoeiGucm;fontStyle=0;labelBackgroundColor=none;labelBorderColor=none;textShadow=0;container=0;" vertex="1" parent="pw4IDq92kUEZXWkjp_v5-27">
                    <mxGeometry x="205.7793103448276" y="467.41579674483046" width="92.5862068965517" height="74.90637768346642" as="geometry"/>
                </mxCell>
                <mxCell id="pw4IDq92kUEZXWkjp_v5-55" style="edgeStyle=orthogonalEdgeStyle;rounded=0;orthogonalLoop=1;jettySize=auto;html=1;fontStyle=0;strokeWidth=2;fontSize=10;" edge="1" parent="pw4IDq92kUEZXWkjp_v5-27" source="pw4IDq92kUEZXWkjp_v5-56" target="pw4IDq92kUEZXWkjp_v5-58">
                    <mxGeometry relative="1" as="geometry"/>
                </mxCell>
                <mxCell id="pw4IDq92kUEZXWkjp_v5-56" value="Verify Donation" style="html=1;overflow=block;blockSpacing=1;whiteSpace=wrap;fontSize=10;align=center;spacing=9;strokeOpacity=100;fillOpacity=100;rounded=1;absoluteArcSize=1;arcSize=9;fillColor=#ffffff;strokeWidth=1.5;lucidId=XfGe-.5JSdGw;fontStyle=0;labelBackgroundColor=none;labelBorderColor=none;textShadow=0;container=0;" vertex="1" parent="pw4IDq92kUEZXWkjp_v5-27">
                    <mxGeometry x="375.86206896551727" y="480.5244128394371" width="113.79310344827586" height="48.68914549425318" as="geometry"/>
                </mxCell>
                <mxCell id="pw4IDq92kUEZXWkjp_v5-57" style="edgeStyle=orthogonalEdgeStyle;rounded=0;orthogonalLoop=1;jettySize=auto;html=1;entryX=1;entryY=0.5;entryDx=0;entryDy=0;fontStyle=0;strokeWidth=2;fontSize=10;" edge="1" parent="pw4IDq92kUEZXWkjp_v5-27" source="pw4IDq92kUEZXWkjp_v5-58" target="pw4IDq92kUEZXWkjp_v5-62">
                    <mxGeometry relative="1" as="geometry"/>
                </mxCell>
                <mxCell id="pw4IDq92kUEZXWkjp_v5-58" value="Send Thank You Email" style="html=1;overflow=block;blockSpacing=1;whiteSpace=wrap;fontSize=10;align=center;spacing=9;strokeOpacity=100;fillOpacity=100;rounded=1;absoluteArcSize=1;arcSize=9;fillColor=#ffffff;strokeWidth=1.5;lucidId=XfGe-.5JSdGw;fontStyle=0;labelBackgroundColor=none;labelBorderColor=none;textShadow=0;container=0;" vertex="1" parent="pw4IDq92kUEZXWkjp_v5-27">
                    <mxGeometry x="375.86206896551727" y="579.7753632700301" width="113.79310344827586" height="48.68914549425318" as="geometry"/>
                </mxCell>
                <mxCell id="pw4IDq92kUEZXWkjp_v5-59" style="edgeStyle=orthogonalEdgeStyle;rounded=0;orthogonalLoop=1;jettySize=auto;html=1;entryX=0;entryY=0.5;entryDx=0;entryDy=0;exitX=0.5;exitY=1;exitDx=0;exitDy=0;fontStyle=0;strokeWidth=2;fontSize=10;" edge="1" parent="pw4IDq92kUEZXWkjp_v5-27" source="pw4IDq92kUEZXWkjp_v5-60" target="pw4IDq92kUEZXWkjp_v5-62">
                    <mxGeometry relative="1" as="geometry"/>
                </mxCell>
                <mxCell id="pw4IDq92kUEZXWkjp_v5-60" value="Mark as Anonymous" style="html=1;overflow=block;blockSpacing=1;whiteSpace=wrap;fontSize=10;align=center;spacing=9;strokeOpacity=100;fillOpacity=100;rounded=1;absoluteArcSize=1;arcSize=9;fillColor=#ffffff;strokeWidth=1.5;lucidId=XfGe-.5JSdGw;fontStyle=0;labelBackgroundColor=none;labelBorderColor=none;textShadow=0;container=0;" vertex="1" parent="pw4IDq92kUEZXWkjp_v5-27">
                    <mxGeometry x="10.344827586206895" y="480.5244128394371" width="113.79310344827586" height="48.68914549425318" as="geometry"/>
                </mxCell>
                <mxCell id="pw4IDq92kUEZXWkjp_v5-61" style="edgeStyle=orthogonalEdgeStyle;rounded=0;orthogonalLoop=1;jettySize=auto;html=1;fontStyle=0;strokeWidth=2;fontSize=10;" edge="1" parent="pw4IDq92kUEZXWkjp_v5-27" source="pw4IDq92kUEZXWkjp_v5-62" target="pw4IDq92kUEZXWkjp_v5-41">
                    <mxGeometry relative="1" as="geometry"/>
                </mxCell>
                <mxCell id="pw4IDq92kUEZXWkjp_v5-62" value="Generate Financial Reports" style="html=1;overflow=block;blockSpacing=1;whiteSpace=wrap;fontSize=10;align=center;spacing=9;strokeOpacity=100;fillOpacity=100;rounded=1;absoluteArcSize=1;arcSize=9;fillColor=#ffffff;strokeWidth=1.5;lucidId=XfGe-.5JSdGw;fontStyle=0;labelBackgroundColor=none;labelBorderColor=none;textShadow=0;container=0;" vertex="1" parent="pw4IDq92kUEZXWkjp_v5-27">
                    <mxGeometry x="195.17241379310343" y="579.7753632700301" width="113.79310344827586" height="48.68914549425318" as="geometry"/>
                </mxCell>
                <mxCell id="pw4IDq92kUEZXWkjp_v5-63" style="edgeStyle=orthogonalEdgeStyle;rounded=0;orthogonalLoop=1;jettySize=auto;html=1;exitX=0;exitY=0.5;exitDx=0;exitDy=0;entryX=1.018;entryY=0.425;entryDx=0;entryDy=0;entryPerimeter=0;" edge="1" parent="1" source="pw4IDq92kUEZXWkjp_v5-24" target="pw4IDq92kUEZXWkjp_v5-28">
                    <mxGeometry relative="1" as="geometry">
                        <mxPoint x="390" y="339" as="targetPoint"/>
                    </mxGeometry>
                </mxCell>
                <mxCell id="pw4IDq92kUEZXWkjp_v5-64" value="Yes" style="edgeLabel;html=1;align=center;verticalAlign=middle;resizable=0;points=[];" vertex="1" connectable="0" parent="pw4IDq92kUEZXWkjp_v5-63">
                    <mxGeometry x="0.1542" y="-1" relative="1" as="geometry">
                        <mxPoint x="-1" as="offset"/>
                    </mxGeometry>
                </mxCell>
            </root>
        </mxGraphModel>
    </diagram>
    <diagram id="js4DPPYV--dWf6tp_Dhv" name="Volunteer">
        <mxGraphModel dx="1508" dy="1126" grid="1" gridSize="10" guides="1" tooltips="1" connect="1" arrows="1" fold="1" page="1" pageScale="1" pageWidth="850" pageHeight="1100" math="0" shadow="0">
            <root>
                <mxCell id="0"/>
                <mxCell id="1" parent="0"/>
                <mxCell id="JvgDFWZD92tvuYvO0vPb-1" value="" style="group" vertex="1" connectable="0" parent="1">
                    <mxGeometry x="380" y="240" width="252" height="816.62" as="geometry"/>
                </mxCell>
                <mxCell id="JvgDFWZD92tvuYvO0vPb-2" value="End" style="html=1;overflow=block;blockSpacing=1;whiteSpace=wrap;fontSize=11;align=center;spacing=3.8;strokeOpacity=100;fillOpacity=100;rounded=1;absoluteArcSize=1;arcSize=9;fillColor=#ffffff;strokeWidth=1.5;lucidId=-gHeJ2-xfvog;shape=ellipse;perimeter=ellipsePerimeter;aspect=fixed;shadow=0;container=0;" vertex="1" parent="JvgDFWZD92tvuYvO0vPb-1">
                    <mxGeometry x="20.475000000000016" y="771.6647551370909" width="75.6" height="37.8" as="geometry"/>
                </mxCell>
                <mxCell id="JvgDFWZD92tvuYvO0vPb-3" value="View Volunteer Dashboard" style="html=1;overflow=block;blockSpacing=1;whiteSpace=wrap;fontSize=11;align=center;spacing=9;strokeOpacity=100;fillOpacity=100;rounded=1;absoluteArcSize=1;arcSize=9;fillColor=#ffffff;strokeWidth=1.5;lucidId=FBHeKopQoA6d;container=0;" vertex="1" parent="JvgDFWZD92tvuYvO0vPb-1">
                    <mxGeometry x="8.189999999999982" y="131.29818221735576" width="100.17" height="44.533886366120676" as="geometry"/>
                </mxCell>
                <mxCell id="JvgDFWZD92tvuYvO0vPb-4" value="" style="html=1;jettySize=18;whiteSpace=wrap;fontSize=11;strokeColor=#3a414a;strokeOpacity=100;strokeWidth=1.5;rounded=1;arcSize=12;edgeStyle=orthogonalEdgeStyle;startArrow=none;endArrow=block;endFill=1;exitX=0.5;exitY=1;exitPerimeter=0;entryX=0.5;entryY=0;lucidId=mCHerwtDAlGH;entryDx=0;entryDy=0;" edge="1" parent="JvgDFWZD92tvuYvO0vPb-1" source="JvgDFWZD92tvuYvO0vPb-3" target="JvgDFWZD92tvuYvO0vPb-9">
                    <mxGeometry width="100" height="100" relative="1" as="geometry">
                        <Array as="points"/>
                        <mxPoint x="58.274999999999984" y="198.09901176653676" as="targetPoint"/>
                    </mxGeometry>
                </mxCell>
                <mxCell id="JvgDFWZD92tvuYvO0vPb-5" style="edgeStyle=orthogonalEdgeStyle;rounded=0;orthogonalLoop=1;jettySize=auto;html=1;entryX=0;entryY=0.5;entryDx=0;entryDy=0;fontSize=11;" edge="1" parent="JvgDFWZD92tvuYvO0vPb-1" source="JvgDFWZD92tvuYvO0vPb-9" target="JvgDFWZD92tvuYvO0vPb-11">
                    <mxGeometry relative="1" as="geometry"/>
                </mxCell>
                <mxCell id="JvgDFWZD92tvuYvO0vPb-6" value="No" style="edgeLabel;html=1;align=center;verticalAlign=middle;resizable=0;points=[];fontSize=11;container=0;" vertex="1" connectable="0" parent="JvgDFWZD92tvuYvO0vPb-5">
                    <mxGeometry x="-0.0423" y="1" relative="1" as="geometry">
                        <mxPoint as="offset"/>
                    </mxGeometry>
                </mxCell>
                <mxCell id="JvgDFWZD92tvuYvO0vPb-7" style="edgeStyle=orthogonalEdgeStyle;rounded=0;orthogonalLoop=1;jettySize=auto;html=1;entryX=0.5;entryY=0;entryDx=0;entryDy=0;fontFamily=Helvetica;fontSize=11;fontColor=default;" edge="1" parent="JvgDFWZD92tvuYvO0vPb-1" source="JvgDFWZD92tvuYvO0vPb-9" target="JvgDFWZD92tvuYvO0vPb-22">
                    <mxGeometry relative="1" as="geometry"/>
                </mxCell>
                <mxCell id="JvgDFWZD92tvuYvO0vPb-8" value="Yes" style="edgeLabel;html=1;align=center;verticalAlign=middle;resizable=0;points=[];rounded=1;strokeColor=default;strokeWidth=1.5;spacing=3.8;arcSize=9;absoluteArcSize=1;fontFamily=Helvetica;fontSize=11;fontColor=default;fillColor=#ffffff;container=0;" vertex="1" connectable="0" parent="JvgDFWZD92tvuYvO0vPb-7">
                    <mxGeometry x="-0.0934" y="-2" relative="1" as="geometry">
                        <mxPoint as="offset"/>
                    </mxGeometry>
                </mxCell>
                <mxCell id="JvgDFWZD92tvuYvO0vPb-9" value="Already applied&amp;nbsp;&lt;div&gt;and approved?&lt;/div&gt;" style="html=1;overflow=block;blockSpacing=1;whiteSpace=wrap;rhombus;fontSize=11;align=center;spacing=3.8;strokeOpacity=100;fillOpacity=100;rounded=1;absoluteArcSize=1;arcSize=9;fillColor=#ffffff;strokeWidth=1.5;lucidId=QWGeiYSjMDHK;container=0;" vertex="1" parent="JvgDFWZD92tvuYvO0vPb-1">
                    <mxGeometry x="11.024999999999984" y="201.9381399015472" width="94.5" height="99.81733151027046" as="geometry"/>
                </mxCell>
                <mxCell id="JvgDFWZD92tvuYvO0vPb-10" style="edgeStyle=orthogonalEdgeStyle;rounded=0;orthogonalLoop=1;jettySize=auto;html=1;entryX=0.5;entryY=0;entryDx=0;entryDy=0;fontSize=11;" edge="1" parent="JvgDFWZD92tvuYvO0vPb-1" source="JvgDFWZD92tvuYvO0vPb-11" target="JvgDFWZD92tvuYvO0vPb-13">
                    <mxGeometry relative="1" as="geometry"/>
                </mxCell>
                <mxCell id="JvgDFWZD92tvuYvO0vPb-11" value="Fill Out Application Form&amp;nbsp;&amp;nbsp;" style="html=1;overflow=block;blockSpacing=1;whiteSpace=wrap;fontSize=11;align=center;spacing=9;strokeOpacity=100;fillOpacity=100;rounded=1;absoluteArcSize=1;arcSize=9;fillColor=#ffffff;strokeWidth=1.5;lucidId=h-Geh9~eJ3Ev;container=0;" vertex="1" parent="JvgDFWZD92tvuYvO0vPb-1">
                    <mxGeometry x="151.82999999999998" y="229.57986247362206" width="100.17" height="44.533886366120676" as="geometry"/>
                </mxCell>
                <mxCell id="JvgDFWZD92tvuYvO0vPb-12" style="edgeStyle=orthogonalEdgeStyle;rounded=0;orthogonalLoop=1;jettySize=auto;html=1;fontSize=11;" edge="1" parent="JvgDFWZD92tvuYvO0vPb-1" source="JvgDFWZD92tvuYvO0vPb-13" target="JvgDFWZD92tvuYvO0vPb-15">
                    <mxGeometry relative="1" as="geometry"/>
                </mxCell>
                <mxCell id="JvgDFWZD92tvuYvO0vPb-13" value="Submit Application&amp;nbsp;&amp;nbsp;" style="html=1;overflow=block;blockSpacing=1;whiteSpace=wrap;fontSize=11;align=center;spacing=9;strokeOpacity=100;fillOpacity=100;rounded=1;absoluteArcSize=1;arcSize=9;fillColor=#ffffff;strokeWidth=1.5;lucidId=h-Geh9~eJ3Ev;container=0;" vertex="1" parent="JvgDFWZD92tvuYvO0vPb-1">
                    <mxGeometry x="151.82999999999998" y="301.7554714118176" width="100.17" height="44.533886366120676" as="geometry"/>
                </mxCell>
                <mxCell id="JvgDFWZD92tvuYvO0vPb-14" style="edgeStyle=orthogonalEdgeStyle;rounded=0;orthogonalLoop=1;jettySize=auto;html=1;entryX=0.5;entryY=0;entryDx=0;entryDy=0;fontSize=11;" edge="1" parent="JvgDFWZD92tvuYvO0vPb-1" source="JvgDFWZD92tvuYvO0vPb-15" target="JvgDFWZD92tvuYvO0vPb-20">
                    <mxGeometry relative="1" as="geometry"/>
                </mxCell>
                <mxCell id="JvgDFWZD92tvuYvO0vPb-15" value="Await Approval Notification&amp;nbsp;" style="html=1;overflow=block;blockSpacing=1;whiteSpace=wrap;fontSize=11;align=center;spacing=9;strokeOpacity=100;fillOpacity=100;rounded=1;absoluteArcSize=1;arcSize=9;fillColor=#ffffff;strokeWidth=1.5;lucidId=h-Geh9~eJ3Ev;container=0;" vertex="1" parent="JvgDFWZD92tvuYvO0vPb-1">
                    <mxGeometry x="151.82999999999998" y="370.8597778420049" width="100.17" height="44.533886366120676" as="geometry"/>
                </mxCell>
                <mxCell id="JvgDFWZD92tvuYvO0vPb-16" style="edgeStyle=orthogonalEdgeStyle;rounded=0;orthogonalLoop=1;jettySize=auto;html=1;fontFamily=Helvetica;fontSize=11;fontColor=default;entryX=1;entryY=0.5;entryDx=0;entryDy=0;" edge="1" parent="JvgDFWZD92tvuYvO0vPb-1" source="JvgDFWZD92tvuYvO0vPb-20" target="JvgDFWZD92tvuYvO0vPb-22">
                    <mxGeometry relative="1" as="geometry">
                        <mxPoint x="112.14000000000001" y="505.22926256736895" as="targetPoint"/>
                    </mxGeometry>
                </mxCell>
                <mxCell id="JvgDFWZD92tvuYvO0vPb-17" value="Yes" style="edgeLabel;html=1;align=center;verticalAlign=middle;resizable=0;points=[];rounded=1;strokeColor=default;strokeWidth=1.5;spacing=3.8;arcSize=9;absoluteArcSize=1;fontFamily=Helvetica;fontSize=11;fontColor=default;fillColor=#ffffff;container=0;" vertex="1" connectable="0" parent="JvgDFWZD92tvuYvO0vPb-16">
                    <mxGeometry x="0.0451" y="-2" relative="1" as="geometry">
                        <mxPoint x="-1" y="-1" as="offset"/>
                    </mxGeometry>
                </mxCell>
                <mxCell id="JvgDFWZD92tvuYvO0vPb-18" style="edgeStyle=orthogonalEdgeStyle;rounded=0;orthogonalLoop=1;jettySize=auto;html=1;entryX=1;entryY=0.5;entryDx=0;entryDy=0;fontFamily=Helvetica;fontSize=11;fontColor=default;exitX=0.5;exitY=1;exitDx=0;exitDy=0;" edge="1" parent="JvgDFWZD92tvuYvO0vPb-1" source="JvgDFWZD92tvuYvO0vPb-20" target="JvgDFWZD92tvuYvO0vPb-2">
                    <mxGeometry relative="1" as="geometry"/>
                </mxCell>
                <mxCell id="JvgDFWZD92tvuYvO0vPb-19" value="No" style="edgeLabel;html=1;align=center;verticalAlign=middle;resizable=0;points=[];rounded=1;strokeColor=default;strokeWidth=1.5;spacing=3.8;arcSize=9;absoluteArcSize=1;fontFamily=Helvetica;fontSize=11;fontColor=default;fillColor=#ffffff;container=0;" vertex="1" connectable="0" parent="JvgDFWZD92tvuYvO0vPb-18">
                    <mxGeometry x="-0.8851" y="-1" relative="1" as="geometry">
                        <mxPoint y="1" as="offset"/>
                    </mxGeometry>
                </mxCell>
                <mxCell id="JvgDFWZD92tvuYvO0vPb-20" value="Approved by&amp;nbsp;&lt;div&gt;Coordinator?&amp;nbsp;&lt;/div&gt;" style="html=1;overflow=block;blockSpacing=1;whiteSpace=wrap;rhombus;fontSize=11;align=center;spacing=3.8;strokeOpacity=100;fillOpacity=100;rounded=1;absoluteArcSize=1;arcSize=9;fillColor=#ffffff;strokeWidth=1.5;lucidId=QWGeiYSjMDHK;container=0;" vertex="1" parent="JvgDFWZD92tvuYvO0vPb-1">
                    <mxGeometry x="154.66500000000002" y="455.3205968122337" width="94.5" height="99.81733151027046" as="geometry"/>
                </mxCell>
                <mxCell id="JvgDFWZD92tvuYvO0vPb-21" style="edgeStyle=orthogonalEdgeStyle;rounded=0;orthogonalLoop=1;jettySize=auto;html=1;entryX=0.5;entryY=0;entryDx=0;entryDy=0;fontFamily=Helvetica;fontSize=11;fontColor=default;" edge="1" parent="JvgDFWZD92tvuYvO0vPb-1" source="JvgDFWZD92tvuYvO0vPb-22" target="JvgDFWZD92tvuYvO0vPb-27">
                    <mxGeometry relative="1" as="geometry"/>
                </mxCell>
                <mxCell id="JvgDFWZD92tvuYvO0vPb-22" value="Browse Available Programs&amp;nbsp;&amp;nbsp;" style="html=1;overflow=block;blockSpacing=1;whiteSpace=wrap;fontSize=11;align=center;spacing=9;strokeOpacity=100;fillOpacity=100;rounded=1;absoluteArcSize=1;arcSize=9;fillColor=#ffffff;strokeWidth=1.5;lucidId=FBHeKopQoA6d;container=0;" vertex="1" parent="JvgDFWZD92tvuYvO0vPb-1">
                    <mxGeometry x="7.560000000000017" y="370.8597778420049" width="100.17" height="44.533886366120676" as="geometry"/>
                </mxCell>
                <mxCell id="JvgDFWZD92tvuYvO0vPb-23" style="edgeStyle=orthogonalEdgeStyle;rounded=0;orthogonalLoop=1;jettySize=auto;html=1;fontFamily=Helvetica;fontSize=11;fontColor=default;" edge="1" parent="JvgDFWZD92tvuYvO0vPb-1" source="JvgDFWZD92tvuYvO0vPb-24" target="JvgDFWZD92tvuYvO0vPb-26">
                    <mxGeometry relative="1" as="geometry"/>
                </mxCell>
                <mxCell id="JvgDFWZD92tvuYvO0vPb-24" value="View Assigned Tasks (if any)&amp;nbsp;&amp;nbsp;" style="html=1;overflow=block;blockSpacing=1;whiteSpace=wrap;fontSize=11;align=center;spacing=9;strokeOpacity=100;fillOpacity=100;rounded=1;absoluteArcSize=1;arcSize=9;fillColor=#ffffff;strokeWidth=1.5;lucidId=FBHeKopQoA6d;container=0;" vertex="1" parent="JvgDFWZD92tvuYvO0vPb-1">
                    <mxGeometry x="11.340000000000007" y="567.4231383545375" width="100.17" height="44.533886366120676" as="geometry"/>
                </mxCell>
                <mxCell id="JvgDFWZD92tvuYvO0vPb-25" style="edgeStyle=orthogonalEdgeStyle;rounded=0;orthogonalLoop=1;jettySize=auto;html=1;entryX=0.5;entryY=0;entryDx=0;entryDy=0;fontFamily=Helvetica;fontSize=11;fontColor=default;" edge="1" parent="JvgDFWZD92tvuYvO0vPb-1" source="JvgDFWZD92tvuYvO0vPb-26" target="JvgDFWZD92tvuYvO0vPb-32">
                    <mxGeometry relative="1" as="geometry"/>
                </mxCell>
                <mxCell id="JvgDFWZD92tvuYvO0vPb-26" value="Submit Feedback (optional)&amp;nbsp;" style="html=1;overflow=block;blockSpacing=1;whiteSpace=wrap;fontSize=11;align=center;spacing=9;strokeOpacity=100;fillOpacity=100;rounded=1;absoluteArcSize=1;arcSize=9;fillColor=#ffffff;strokeWidth=1.5;lucidId=FBHeKopQoA6d;container=0;" vertex="1" parent="JvgDFWZD92tvuYvO0vPb-1">
                    <mxGeometry x="11.340000000000007" y="628.0813628877019" width="100.17" height="44.533886366120676" as="geometry"/>
                </mxCell>
                <mxCell id="JvgDFWZD92tvuYvO0vPb-27" value="Join/Participate in a Program&amp;nbsp;&amp;nbsp;" style="html=1;overflow=block;blockSpacing=1;whiteSpace=wrap;fontSize=11;align=center;spacing=9;strokeOpacity=100;fillOpacity=100;rounded=1;absoluteArcSize=1;arcSize=9;fillColor=#ffffff;strokeWidth=1.5;lucidId=FBHeKopQoA6d;container=0;" vertex="1" parent="JvgDFWZD92tvuYvO0vPb-1">
                    <mxGeometry x="8.189999999999982" y="439.9640842721921" width="100.17" height="44.533886366120676" as="geometry"/>
                </mxCell>
                <mxCell id="JvgDFWZD92tvuYvO0vPb-28" style="edgeStyle=orthogonalEdgeStyle;rounded=0;orthogonalLoop=1;jettySize=auto;html=1;fontFamily=Helvetica;fontSize=11;fontColor=default;" edge="1" parent="JvgDFWZD92tvuYvO0vPb-1" source="JvgDFWZD92tvuYvO0vPb-29" target="JvgDFWZD92tvuYvO0vPb-24">
                    <mxGeometry relative="1" as="geometry"/>
                </mxCell>
                <mxCell id="JvgDFWZD92tvuYvO0vPb-29" value="Clock In / Clock Out Attendance&amp;nbsp;&amp;nbsp;" style="html=1;overflow=block;blockSpacing=1;whiteSpace=wrap;fontSize=11;align=center;spacing=9;strokeOpacity=100;fillOpacity=100;rounded=1;absoluteArcSize=1;arcSize=9;fillColor=#ffffff;strokeWidth=1.5;lucidId=FBHeKopQoA6d;container=0;" vertex="1" parent="JvgDFWZD92tvuYvO0vPb-1">
                    <mxGeometry x="11.024999999999984" y="502.92578568636276" width="100.17" height="44.533886366120676" as="geometry"/>
                </mxCell>
                <mxCell id="JvgDFWZD92tvuYvO0vPb-30" style="edgeStyle=orthogonalEdgeStyle;rounded=0;orthogonalLoop=1;jettySize=auto;html=1;entryX=0.472;entryY=0.047;entryDx=0;entryDy=0;entryPerimeter=0;fontFamily=Helvetica;fontSize=11;fontColor=default;" edge="1" parent="JvgDFWZD92tvuYvO0vPb-1" source="JvgDFWZD92tvuYvO0vPb-27" target="JvgDFWZD92tvuYvO0vPb-29">
                    <mxGeometry relative="1" as="geometry"/>
                </mxCell>
                <mxCell id="JvgDFWZD92tvuYvO0vPb-31" style="edgeStyle=orthogonalEdgeStyle;rounded=0;orthogonalLoop=1;jettySize=auto;html=1;entryX=0.547;entryY=0.036;entryDx=0;entryDy=0;fontFamily=Helvetica;fontSize=11;fontColor=default;entryPerimeter=0;" edge="1" parent="JvgDFWZD92tvuYvO0vPb-1" source="JvgDFWZD92tvuYvO0vPb-32" target="JvgDFWZD92tvuYvO0vPb-2">
                    <mxGeometry relative="1" as="geometry"/>
                </mxCell>
                <mxCell id="JvgDFWZD92tvuYvO0vPb-32" value="Track Program Participation History and Hours" style="html=1;overflow=block;blockSpacing=1;whiteSpace=wrap;fontSize=11;align=center;spacing=9;strokeOpacity=100;fillOpacity=100;rounded=1;absoluteArcSize=1;arcSize=9;fillColor=#ffffff;strokeWidth=1.5;lucidId=yYGeqhD4F6uh;container=0;" vertex="1" parent="JvgDFWZD92tvuYvO0vPb-1">
                    <mxGeometry y="694.8821924368829" width="122.85000000000001" height="53.74779389014564" as="geometry"/>
                </mxCell>
                <mxCell id="JvgDFWZD92tvuYvO0vPb-33" style="edgeStyle=orthogonalEdgeStyle;rounded=0;orthogonalLoop=1;jettySize=auto;html=1;exitX=0.5;exitY=1;exitDx=0;exitDy=0;" edge="1" parent="1" source="JvgDFWZD92tvuYvO0vPb-34">
                    <mxGeometry relative="1" as="geometry">
                        <mxPoint x="438.66666666666663" y="160" as="targetPoint"/>
                    </mxGeometry>
                </mxCell>
                <mxCell id="JvgDFWZD92tvuYvO0vPb-34" value="Start" style="html=1;overflow=block;blockSpacing=1;whiteSpace=wrap;fontSize=11;align=center;spacing=3.8;strokeOpacity=100;fillOpacity=100;rounded=1;absoluteArcSize=1;arcSize=9;fillColor=#ffffff;strokeWidth=1.5;lucidId=~MGe.m2cJP41;shape=ellipse;perimeter=ellipsePerimeter;aspect=fixed;container=0;" vertex="1" parent="1">
                    <mxGeometry x="400.85" y="102" width="75.6" height="37.8" as="geometry"/>
                </mxCell>
                <mxCell id="JvgDFWZD92tvuYvO0vPb-35" value="" style="group;fontSize=10;" vertex="1" connectable="0" parent="1">
                    <mxGeometry x="157.99529411764706" y="161.99642714570837" width="500" height="315.07" as="geometry"/>
                </mxCell>
                <mxCell id="JvgDFWZD92tvuYvO0vPb-36" style="edgeStyle=orthogonalEdgeStyle;rounded=0;orthogonalLoop=1;jettySize=auto;html=1;exitX=0.5;exitY=1;exitDx=0;exitDy=0;entryX=0.5;entryY=0;entryDx=0;entryDy=0;fontSize=10;" edge="1" parent="JvgDFWZD92tvuYvO0vPb-35" target="JvgDFWZD92tvuYvO0vPb-51">
                    <mxGeometry relative="1" as="geometry">
                        <mxPoint x="282.7685239150919" y="65.86146825360619" as="sourcePoint"/>
                    </mxGeometry>
                </mxCell>
                <mxCell id="JvgDFWZD92tvuYvO0vPb-37" value="Login as Volunteer" style="html=1;overflow=block;blockSpacing=1;whiteSpace=wrap;fontSize=10;align=center;spacing=9;strokeOpacity=100;fillOpacity=100;rounded=1;absoluteArcSize=1;arcSize=9;fillColor=#ffffff;strokeWidth=1.5;lucidId=waGefKhzuSeb;container=0;" vertex="1" parent="JvgDFWZD92tvuYvO0vPb-35">
                    <mxGeometry x="228.63887421222637" y="55.789671305851684" width="108.25929940573133" height="40.071620198795074" as="geometry"/>
                </mxCell>
                <mxCell id="JvgDFWZD92tvuYvO0vPb-38" style="edgeStyle=orthogonalEdgeStyle;rounded=0;orthogonalLoop=1;jettySize=auto;html=1;exitX=0.5;exitY=1;exitDx=0;exitDy=0;entryX=0.5;entryY=0;entryDx=0;entryDy=0;fontSize=10;" edge="1" parent="JvgDFWZD92tvuYvO0vPb-35" source="JvgDFWZD92tvuYvO0vPb-39" target="JvgDFWZD92tvuYvO0vPb-42">
                    <mxGeometry relative="1" as="geometry">
                        <mxPoint x="116.96974731326286" y="203.007047463114" as="targetPoint"/>
                    </mxGeometry>
                </mxCell>
                <mxCell id="JvgDFWZD92tvuYvO0vPb-39" value="Enter Account&amp;nbsp; Credential" style="html=1;overflow=block;blockSpacing=1;whiteSpace=wrap;fontSize=10;align=center;spacing=9;strokeOpacity=100;fillOpacity=100;rounded=1;absoluteArcSize=1;arcSize=9;fillColor=#ffffff;strokeWidth=1.5;lucidId=waGefKhzuSeb;container=0;" vertex="1" parent="JvgDFWZD92tvuYvO0vPb-35">
                    <mxGeometry x="61.6826082456819" y="136.78919408366113" width="108.25929940573133" height="40.071620198795074" as="geometry"/>
                </mxCell>
                <mxCell id="JvgDFWZD92tvuYvO0vPb-40" style="edgeStyle=orthogonalEdgeStyle;rounded=0;orthogonalLoop=1;jettySize=auto;html=1;exitX=0;exitY=0.5;exitDx=0;exitDy=0;fontSize=10;" edge="1" parent="JvgDFWZD92tvuYvO0vPb-35" source="JvgDFWZD92tvuYvO0vPb-42" target="JvgDFWZD92tvuYvO0vPb-44">
                    <mxGeometry relative="1" as="geometry">
                        <mxPoint x="51.27065097201893" y="248.00211170850991" as="targetPoint"/>
                        <Array as="points">
                            <mxPoint x="52.428140336734295" y="226.00224132441352"/>
                        </Array>
                    </mxGeometry>
                </mxCell>
                <mxCell id="JvgDFWZD92tvuYvO0vPb-41" value="No" style="edgeLabel;html=1;align=center;verticalAlign=middle;resizable=0;points=[];fontSize=10;" vertex="1" connectable="0" parent="JvgDFWZD92tvuYvO0vPb-40">
                    <mxGeometry x="-0.7008" y="-2" relative="1" as="geometry">
                        <mxPoint as="offset"/>
                    </mxGeometry>
                </mxCell>
                <mxCell id="JvgDFWZD92tvuYvO0vPb-42" value="Is the credentials correct?" style="html=1;overflow=block;blockSpacing=1;whiteSpace=wrap;fontSize=10;align=center;spacing=9;strokeOpacity=100;fillOpacity=100;rounded=1;absoluteArcSize=1;arcSize=9;fillColor=#ffffff;strokeWidth=1.5;lucidId=waGefKhzuSeb;shape=rhombus;perimeter=rhombusPerimeter;container=0;" vertex="1" parent="JvgDFWZD92tvuYvO0vPb-35">
                    <mxGeometry x="62.84009761039726" y="194.00710048780172" width="108.25929940573133" height="64.78245265471871" as="geometry"/>
                </mxCell>
                <mxCell id="JvgDFWZD92tvuYvO0vPb-43" style="edgeStyle=orthogonalEdgeStyle;rounded=0;orthogonalLoop=1;jettySize=auto;html=1;exitX=0;exitY=0.5;exitDx=0;exitDy=0;entryX=0;entryY=0.5;entryDx=0;entryDy=0;fontSize=10;" edge="1" parent="JvgDFWZD92tvuYvO0vPb-35" source="JvgDFWZD92tvuYvO0vPb-44" target="JvgDFWZD92tvuYvO0vPb-39">
                    <mxGeometry relative="1" as="geometry"/>
                </mxCell>
                <mxCell id="JvgDFWZD92tvuYvO0vPb-44" value="Error Message" style="html=1;overflow=block;blockSpacing=1;whiteSpace=wrap;fontSize=10;align=center;spacing=9;strokeOpacity=100;fillOpacity=100;rounded=1;absoluteArcSize=1;arcSize=9;fillColor=#ffffff;strokeWidth=1.5;lucidId=waGefKhzuSeb;container=0;" vertex="1" parent="JvgDFWZD92tvuYvO0vPb-35">
                    <mxGeometry y="274.9983798012049" width="108.25929940573133" height="40.071620198795074" as="geometry"/>
                </mxCell>
                <mxCell id="JvgDFWZD92tvuYvO0vPb-45" style="edgeStyle=orthogonalEdgeStyle;rounded=0;orthogonalLoop=1;jettySize=auto;html=1;exitX=0.5;exitY=1;exitDx=0;exitDy=0;entryX=0.5;entryY=0;entryDx=0;entryDy=0;fontSize=10;" edge="1" parent="JvgDFWZD92tvuYvO0vPb-35" target="JvgDFWZD92tvuYvO0vPb-56">
                    <mxGeometry relative="1" as="geometry">
                        <mxPoint x="445.8703502971343" y="175.86082017408816" as="sourcePoint"/>
                    </mxGeometry>
                </mxCell>
                <mxCell id="JvgDFWZD92tvuYvO0vPb-46" value="Login with Google" style="html=1;overflow=block;blockSpacing=1;whiteSpace=wrap;fontSize=10;align=center;spacing=9;strokeOpacity=100;fillOpacity=100;rounded=1;absoluteArcSize=1;arcSize=9;fillColor=#ffffff;strokeWidth=1.5;lucidId=waGefKhzuSeb;container=0;" vertex="1" parent="JvgDFWZD92tvuYvO0vPb-35">
                    <mxGeometry x="391.74070059426856" y="134.7892058669251" width="108.25929940573133" height="40.071620198795074" as="geometry"/>
                </mxCell>
                <mxCell id="JvgDFWZD92tvuYvO0vPb-47" style="edgeStyle=orthogonalEdgeStyle;rounded=0;orthogonalLoop=1;jettySize=auto;html=1;exitX=1;exitY=0.5;exitDx=0;exitDy=0;entryX=0;entryY=0.5;entryDx=0;entryDy=0;fontSize=10;" edge="1" parent="JvgDFWZD92tvuYvO0vPb-35" source="JvgDFWZD92tvuYvO0vPb-51" target="JvgDFWZD92tvuYvO0vPb-46">
                    <mxGeometry relative="1" as="geometry"/>
                </mxCell>
                <mxCell id="JvgDFWZD92tvuYvO0vPb-48" value="Google" style="edgeLabel;html=1;align=center;verticalAlign=middle;resizable=0;points=[];fontSize=10;" vertex="1" connectable="0" parent="JvgDFWZD92tvuYvO0vPb-47">
                    <mxGeometry x="-0.4962" y="-2" relative="1" as="geometry">
                        <mxPoint x="6" y="-4" as="offset"/>
                    </mxGeometry>
                </mxCell>
                <mxCell id="JvgDFWZD92tvuYvO0vPb-49" style="edgeStyle=orthogonalEdgeStyle;rounded=0;orthogonalLoop=1;jettySize=auto;html=1;exitX=0;exitY=0.5;exitDx=0;exitDy=0;entryX=1;entryY=0.5;entryDx=0;entryDy=0;fontSize=10;" edge="1" parent="JvgDFWZD92tvuYvO0vPb-35" source="JvgDFWZD92tvuYvO0vPb-51" target="JvgDFWZD92tvuYvO0vPb-39">
                    <mxGeometry relative="1" as="geometry"/>
                </mxCell>
                <mxCell id="JvgDFWZD92tvuYvO0vPb-50" value="Manual" style="edgeLabel;html=1;align=center;verticalAlign=middle;resizable=0;points=[];fontSize=10;" vertex="1" connectable="0" parent="JvgDFWZD92tvuYvO0vPb-49">
                    <mxGeometry x="-0.1394" y="-2" relative="1" as="geometry">
                        <mxPoint as="offset"/>
                    </mxGeometry>
                </mxCell>
                <mxCell id="JvgDFWZD92tvuYvO0vPb-51" value="How do you want to log in?" style="html=1;overflow=block;blockSpacing=1;whiteSpace=wrap;fontSize=10;align=center;spacing=9;strokeOpacity=100;fillOpacity=100;rounded=1;absoluteArcSize=1;arcSize=9;fillColor=#ffffff;strokeWidth=1.5;lucidId=waGefKhzuSeb;shape=rhombus;perimeter=rhombusPerimeter;container=0;" vertex="1" parent="JvgDFWZD92tvuYvO0vPb-35">
                    <mxGeometry x="228.63887421222637" y="125.22750571424947" width="108.25929940573133" height="64.78245265471871" as="geometry"/>
                </mxCell>
                <mxCell id="JvgDFWZD92tvuYvO0vPb-52" style="edgeStyle=orthogonalEdgeStyle;rounded=0;orthogonalLoop=1;jettySize=auto;html=1;exitX=1;exitY=0.5;exitDx=0;exitDy=0;entryX=1;entryY=0.5;entryDx=0;entryDy=0;fontSize=10;" edge="1" parent="JvgDFWZD92tvuYvO0vPb-35" source="JvgDFWZD92tvuYvO0vPb-56" target="JvgDFWZD92tvuYvO0vPb-58">
                    <mxGeometry relative="1" as="geometry"/>
                </mxCell>
                <mxCell id="JvgDFWZD92tvuYvO0vPb-53" value="No" style="edgeLabel;html=1;align=center;verticalAlign=middle;resizable=0;points=[];fontSize=10;" vertex="1" connectable="0" parent="JvgDFWZD92tvuYvO0vPb-52">
                    <mxGeometry x="-0.9319" y="1" relative="1" as="geometry">
                        <mxPoint as="offset"/>
                    </mxGeometry>
                </mxCell>
                <mxCell id="JvgDFWZD92tvuYvO0vPb-54" style="edgeStyle=orthogonalEdgeStyle;rounded=0;orthogonalLoop=1;jettySize=auto;html=1;exitX=0;exitY=0.5;exitDx=0;exitDy=0;" edge="1" parent="JvgDFWZD92tvuYvO0vPb-35" source="JvgDFWZD92tvuYvO0vPb-56">
                    <mxGeometry relative="1" as="geometry">
                        <mxPoint x="332.00470588235294" y="228.25357285429163" as="targetPoint"/>
                    </mxGeometry>
                </mxCell>
                <mxCell id="JvgDFWZD92tvuYvO0vPb-55" value="Yes" style="edgeLabel;html=1;align=center;verticalAlign=middle;resizable=0;points=[];" vertex="1" connectable="0" parent="JvgDFWZD92tvuYvO0vPb-54">
                    <mxGeometry x="0.1608" relative="1" as="geometry">
                        <mxPoint as="offset"/>
                    </mxGeometry>
                </mxCell>
                <mxCell id="JvgDFWZD92tvuYvO0vPb-56" value="Is email registered?" style="html=1;overflow=block;blockSpacing=1;whiteSpace=wrap;fontSize=10;align=center;spacing=9;strokeOpacity=100;fillOpacity=100;rounded=1;absoluteArcSize=1;arcSize=9;fillColor=#ffffff;strokeWidth=1.5;lucidId=waGefKhzuSeb;shape=rhombus;perimeter=rhombusPerimeter;container=0;" vertex="1" parent="JvgDFWZD92tvuYvO0vPb-35">
                    <mxGeometry x="391.74070059426856" y="196.00708870453775" width="108.25929940573133" height="64.78245265471871" as="geometry"/>
                </mxCell>
                <mxCell id="JvgDFWZD92tvuYvO0vPb-57" style="edgeStyle=orthogonalEdgeStyle;rounded=0;orthogonalLoop=1;jettySize=auto;html=1;exitX=0.5;exitY=1;exitDx=0;exitDy=0;entryX=0.5;entryY=0;entryDx=0;entryDy=0;fontSize=10;" edge="1" parent="JvgDFWZD92tvuYvO0vPb-35" source="JvgDFWZD92tvuYvO0vPb-58" target="JvgDFWZD92tvuYvO0vPb-37">
                    <mxGeometry relative="1" as="geometry"/>
                </mxCell>
                <mxCell id="JvgDFWZD92tvuYvO0vPb-58" value="Login Page" style="html=1;overflow=block;blockSpacing=1;whiteSpace=wrap;fontSize=10;align=center;spacing=9;strokeOpacity=100;fillOpacity=100;rounded=1;absoluteArcSize=1;arcSize=9;fillColor=#ffffff;strokeWidth=1.5;lucidId=waGefKhzuSeb;container=0;" vertex="1" parent="JvgDFWZD92tvuYvO0vPb-35">
                    <mxGeometry x="228.63887421222643" width="108.25929940573133" height="40.071620198795074" as="geometry"/>
                </mxCell>
                <mxCell id="JvgDFWZD92tvuYvO0vPb-59" style="edgeStyle=orthogonalEdgeStyle;rounded=0;orthogonalLoop=1;jettySize=auto;html=1;exitX=1;exitY=0.5;exitDx=0;exitDy=0;entryX=-0.015;entryY=0.379;entryDx=0;entryDy=0;entryPerimeter=0;" edge="1" parent="1" source="JvgDFWZD92tvuYvO0vPb-42" target="JvgDFWZD92tvuYvO0vPb-3">
                    <mxGeometry relative="1" as="geometry"/>
                </mxCell>
                <mxCell id="JvgDFWZD92tvuYvO0vPb-60" value="Yes" style="edgeLabel;html=1;align=center;verticalAlign=middle;resizable=0;points=[];" vertex="1" connectable="0" parent="JvgDFWZD92tvuYvO0vPb-59">
                    <mxGeometry x="-0.2655" relative="1" as="geometry">
                        <mxPoint x="-1" as="offset"/>
                    </mxGeometry>
                </mxCell>
            </root>
        </mxGraphModel>
    </diagram>
    <diagram id="6PqBg6-MC3radtkU_Qng" name="Member">
        <mxGraphModel dx="2221" dy="1024" grid="1" gridSize="10" guides="1" tooltips="1" connect="1" arrows="1" fold="1" page="1" pageScale="1" pageWidth="850" pageHeight="1100" math="0" shadow="0">
            <root>
                <mxCell id="0"/>
                <mxCell id="1" parent="0"/>
                <mxCell id="SK3FrKkUtnqnR4MGILkf-1" value="" style="group;fontSize=10;" vertex="1" connectable="0" parent="1">
                    <mxGeometry x="-767" y="270" width="602" height="350" as="geometry"/>
                </mxCell>
                <mxCell id="SK3FrKkUtnqnR4MGILkf-2" style="edgeStyle=orthogonalEdgeStyle;rounded=0;orthogonalLoop=1;jettySize=auto;html=1;exitX=0.5;exitY=1;exitDx=0;exitDy=0;entryX=0.5;entryY=0;entryDx=0;entryDy=0;fontSize=10;" edge="1" parent="SK3FrKkUtnqnR4MGILkf-1" target="SK3FrKkUtnqnR4MGILkf-19">
                    <mxGeometry relative="1" as="geometry">
                        <mxPoint x="340.4533027937707" y="73.16315069274182" as="sourcePoint"/>
                    </mxGeometry>
                </mxCell>
                <mxCell id="SK3FrKkUtnqnR4MGILkf-3" value="Login as Member" style="html=1;overflow=block;blockSpacing=1;whiteSpace=wrap;fontSize=10;align=center;spacing=9;strokeOpacity=100;fillOpacity=100;rounded=1;absoluteArcSize=1;arcSize=9;fillColor=#ffffff;strokeWidth=1.5;lucidId=waGefKhzuSeb;container=0;" vertex="1" parent="SK3FrKkUtnqnR4MGILkf-1">
                    <mxGeometry x="275.28120455152055" y="61.97475150616716" width="130.34419648450051" height="44.514130414124715" as="geometry"/>
                </mxCell>
                <mxCell id="SK3FrKkUtnqnR4MGILkf-4" style="edgeStyle=orthogonalEdgeStyle;rounded=0;orthogonalLoop=1;jettySize=auto;html=1;exitX=0.5;exitY=1;exitDx=0;exitDy=0;entryX=0.5;entryY=0;entryDx=0;entryDy=0;fontSize=10;" edge="1" parent="SK3FrKkUtnqnR4MGILkf-1" source="SK3FrKkUtnqnR4MGILkf-5" target="SK3FrKkUtnqnR4MGILkf-10">
                    <mxGeometry relative="1" as="geometry">
                        <mxPoint x="140.8315757651685" y="225.51327200968004" as="targetPoint"/>
                    </mxGeometry>
                </mxCell>
                <mxCell id="SK3FrKkUtnqnR4MGILkf-5" value="Enter Account&amp;nbsp; Credential" style="html=1;overflow=block;blockSpacing=1;whiteSpace=wrap;fontSize=10;align=center;spacing=9;strokeOpacity=100;fillOpacity=100;rounded=1;absoluteArcSize=1;arcSize=9;fillColor=#ffffff;strokeWidth=1.5;lucidId=waGefKhzuSeb;container=0;" vertex="1" parent="SK3FrKkUtnqnR4MGILkf-1">
                    <mxGeometry x="74.26586032780101" y="151.95422582055224" width="130.34419648450051" height="44.514130414124715" as="geometry"/>
                </mxCell>
                <mxCell id="SK3FrKkUtnqnR4MGILkf-6" style="edgeStyle=orthogonalEdgeStyle;rounded=0;orthogonalLoop=1;jettySize=auto;html=1;exitX=0;exitY=0.5;exitDx=0;exitDy=0;fontSize=10;" edge="1" parent="SK3FrKkUtnqnR4MGILkf-1" source="SK3FrKkUtnqnR4MGILkf-10" target="SK3FrKkUtnqnR4MGILkf-12">
                    <mxGeometry relative="1" as="geometry">
                        <mxPoint x="61.72986377031079" y="275.49668041380795" as="targetPoint"/>
                        <Array as="points">
                            <mxPoint x="63.123480965428094" y="251.0578108469379"/>
                        </Array>
                    </mxGeometry>
                </mxCell>
                <mxCell id="SK3FrKkUtnqnR4MGILkf-7" value="No" style="edgeLabel;html=1;align=center;verticalAlign=middle;resizable=0;points=[];fontSize=10;" vertex="1" connectable="0" parent="SK3FrKkUtnqnR4MGILkf-6">
                    <mxGeometry x="-0.7008" y="-2" relative="1" as="geometry">
                        <mxPoint as="offset"/>
                    </mxGeometry>
                </mxCell>
                <mxCell id="SK3FrKkUtnqnR4MGILkf-8" style="edgeStyle=orthogonalEdgeStyle;rounded=0;orthogonalLoop=1;jettySize=auto;html=1;exitX=1;exitY=0.5;exitDx=0;exitDy=0;entryX=-0.006;entryY=0.458;entryDx=0;entryDy=0;entryPerimeter=0;" edge="1" parent="SK3FrKkUtnqnR4MGILkf-1" target="SK3FrKkUtnqnR4MGILkf-26">
                    <mxGeometry relative="1" as="geometry">
                        <mxPoint x="267" y="256" as="targetPoint"/>
                        <mxPoint x="202.0036740074188" y="255.4978080594991" as="sourcePoint"/>
                    </mxGeometry>
                </mxCell>
                <mxCell id="SK3FrKkUtnqnR4MGILkf-9" value="Yes" style="edgeLabel;html=1;align=center;verticalAlign=middle;resizable=0;points=[];" vertex="1" connectable="0" parent="SK3FrKkUtnqnR4MGILkf-8">
                    <mxGeometry x="-0.2722" y="-1" relative="1" as="geometry">
                        <mxPoint as="offset"/>
                    </mxGeometry>
                </mxCell>
                <mxCell id="SK3FrKkUtnqnR4MGILkf-10" value="Is the credentials correct?" style="html=1;overflow=block;blockSpacing=1;whiteSpace=wrap;fontSize=10;align=center;spacing=9;strokeOpacity=100;fillOpacity=100;rounded=1;absoluteArcSize=1;arcSize=9;fillColor=#ffffff;strokeWidth=1.5;lucidId=waGefKhzuSeb;shape=rhombus;perimeter=rhombusPerimeter;container=0;" vertex="1" parent="SK3FrKkUtnqnR4MGILkf-1">
                    <mxGeometry x="73.65947752291831" y="219.51555264141493" width="130.34419648450051" height="71.9645108361683" as="geometry"/>
                </mxCell>
                <mxCell id="SK3FrKkUtnqnR4MGILkf-11" style="edgeStyle=orthogonalEdgeStyle;rounded=0;orthogonalLoop=1;jettySize=auto;html=1;exitX=0;exitY=0.5;exitDx=0;exitDy=0;entryX=0;entryY=0.5;entryDx=0;entryDy=0;fontSize=10;" edge="1" parent="SK3FrKkUtnqnR4MGILkf-1" source="SK3FrKkUtnqnR4MGILkf-12" target="SK3FrKkUtnqnR4MGILkf-5">
                    <mxGeometry relative="1" as="geometry"/>
                </mxCell>
                <mxCell id="SK3FrKkUtnqnR4MGILkf-12" value="Error Message" style="html=1;overflow=block;blockSpacing=1;whiteSpace=wrap;fontSize=10;align=center;spacing=9;strokeOpacity=100;fillOpacity=100;rounded=1;absoluteArcSize=1;arcSize=9;fillColor=#ffffff;strokeWidth=1.5;lucidId=waGefKhzuSeb;container=0;" vertex="1" parent="SK3FrKkUtnqnR4MGILkf-1">
                    <mxGeometry y="305.48586958587526" width="130.34419648450051" height="44.514130414124715" as="geometry"/>
                </mxCell>
                <mxCell id="SK3FrKkUtnqnR4MGILkf-13" style="edgeStyle=orthogonalEdgeStyle;rounded=0;orthogonalLoop=1;jettySize=auto;html=1;exitX=0.5;exitY=1;exitDx=0;exitDy=0;entryX=0.5;entryY=0;entryDx=0;entryDy=0;fontSize=10;" edge="1" parent="SK3FrKkUtnqnR4MGILkf-1" target="SK3FrKkUtnqnR4MGILkf-22">
                    <mxGeometry relative="1" as="geometry">
                        <mxPoint x="536.8279017577497" y="195.35749852709193" as="sourcePoint"/>
                    </mxGeometry>
                </mxCell>
                <mxCell id="SK3FrKkUtnqnR4MGILkf-14" value="Login with Google" style="html=1;overflow=block;blockSpacing=1;whiteSpace=wrap;fontSize=10;align=center;spacing=9;strokeOpacity=100;fillOpacity=100;rounded=1;absoluteArcSize=1;arcSize=9;fillColor=#ffffff;strokeWidth=1.5;lucidId=waGefKhzuSeb;container=0;" vertex="1" parent="SK3FrKkUtnqnR4MGILkf-1">
                    <mxGeometry x="471.6558035154993" y="149.73251040538224" width="130.34419648450051" height="44.514130414124715" as="geometry"/>
                </mxCell>
                <mxCell id="SK3FrKkUtnqnR4MGILkf-15" style="edgeStyle=orthogonalEdgeStyle;rounded=0;orthogonalLoop=1;jettySize=auto;html=1;exitX=1;exitY=0.5;exitDx=0;exitDy=0;entryX=0;entryY=0.5;entryDx=0;entryDy=0;fontSize=10;" edge="1" parent="SK3FrKkUtnqnR4MGILkf-1" source="SK3FrKkUtnqnR4MGILkf-19" target="SK3FrKkUtnqnR4MGILkf-14">
                    <mxGeometry relative="1" as="geometry"/>
                </mxCell>
                <mxCell id="SK3FrKkUtnqnR4MGILkf-16" value="Google" style="edgeLabel;html=1;align=center;verticalAlign=middle;resizable=0;points=[];fontSize=10;" vertex="1" connectable="0" parent="SK3FrKkUtnqnR4MGILkf-15">
                    <mxGeometry x="-0.4962" y="-2" relative="1" as="geometry">
                        <mxPoint x="6" y="-4" as="offset"/>
                    </mxGeometry>
                </mxCell>
                <mxCell id="SK3FrKkUtnqnR4MGILkf-17" style="edgeStyle=orthogonalEdgeStyle;rounded=0;orthogonalLoop=1;jettySize=auto;html=1;exitX=0;exitY=0.5;exitDx=0;exitDy=0;entryX=1;entryY=0.5;entryDx=0;entryDy=0;fontSize=10;" edge="1" parent="SK3FrKkUtnqnR4MGILkf-1" source="SK3FrKkUtnqnR4MGILkf-19" target="SK3FrKkUtnqnR4MGILkf-5">
                    <mxGeometry relative="1" as="geometry"/>
                </mxCell>
                <mxCell id="SK3FrKkUtnqnR4MGILkf-18" value="Manual" style="edgeLabel;html=1;align=center;verticalAlign=middle;resizable=0;points=[];fontSize=10;" vertex="1" connectable="0" parent="SK3FrKkUtnqnR4MGILkf-17">
                    <mxGeometry x="-0.1394" y="-2" relative="1" as="geometry">
                        <mxPoint as="offset"/>
                    </mxGeometry>
                </mxCell>
                <mxCell id="SK3FrKkUtnqnR4MGILkf-19" value="How do you want to log in?" style="html=1;overflow=block;blockSpacing=1;whiteSpace=wrap;fontSize=10;align=center;spacing=9;strokeOpacity=100;fillOpacity=100;rounded=1;absoluteArcSize=1;arcSize=9;fillColor=#ffffff;strokeWidth=1.5;lucidId=waGefKhzuSeb;shape=rhombus;perimeter=rhombusPerimeter;container=0;" vertex="1" parent="SK3FrKkUtnqnR4MGILkf-1">
                    <mxGeometry x="275.28" y="140" width="130.34" height="71.08" as="geometry"/>
                </mxCell>
                <mxCell id="SK3FrKkUtnqnR4MGILkf-20" style="edgeStyle=orthogonalEdgeStyle;rounded=0;orthogonalLoop=1;jettySize=auto;html=1;exitX=1;exitY=0.5;exitDx=0;exitDy=0;entryX=1;entryY=0.5;entryDx=0;entryDy=0;fontSize=10;" edge="1" parent="SK3FrKkUtnqnR4MGILkf-1" source="SK3FrKkUtnqnR4MGILkf-22" target="SK3FrKkUtnqnR4MGILkf-24">
                    <mxGeometry relative="1" as="geometry"/>
                </mxCell>
                <mxCell id="SK3FrKkUtnqnR4MGILkf-21" value="No" style="edgeLabel;html=1;align=center;verticalAlign=middle;resizable=0;points=[];fontSize=10;" vertex="1" connectable="0" parent="SK3FrKkUtnqnR4MGILkf-20">
                    <mxGeometry x="-0.9319" y="1" relative="1" as="geometry">
                        <mxPoint as="offset"/>
                    </mxGeometry>
                </mxCell>
                <mxCell id="SK3FrKkUtnqnR4MGILkf-22" value="Is email registered?" style="html=1;overflow=block;blockSpacing=1;whiteSpace=wrap;fontSize=10;align=center;spacing=9;strokeOpacity=100;fillOpacity=100;rounded=1;absoluteArcSize=1;arcSize=9;fillColor=#ffffff;strokeWidth=1.5;lucidId=waGefKhzuSeb;shape=rhombus;perimeter=rhombusPerimeter;container=0;" vertex="1" parent="SK3FrKkUtnqnR4MGILkf-1">
                    <mxGeometry x="471.6558035154993" y="217.73726805658492" width="130.34419648450051" height="71.9645108361683" as="geometry"/>
                </mxCell>
                <mxCell id="SK3FrKkUtnqnR4MGILkf-23" style="edgeStyle=orthogonalEdgeStyle;rounded=0;orthogonalLoop=1;jettySize=auto;html=1;exitX=0.5;exitY=1;exitDx=0;exitDy=0;entryX=0.5;entryY=0;entryDx=0;entryDy=0;fontSize=10;" edge="1" parent="SK3FrKkUtnqnR4MGILkf-1" source="SK3FrKkUtnqnR4MGILkf-24" target="SK3FrKkUtnqnR4MGILkf-3">
                    <mxGeometry relative="1" as="geometry"/>
                </mxCell>
                <mxCell id="SK3FrKkUtnqnR4MGILkf-24" value="Login Page" style="html=1;overflow=block;blockSpacing=1;whiteSpace=wrap;fontSize=10;align=center;spacing=9;strokeOpacity=100;fillOpacity=100;rounded=1;absoluteArcSize=1;arcSize=9;fillColor=#ffffff;strokeWidth=1.5;lucidId=waGefKhzuSeb;container=0;" vertex="1" parent="SK3FrKkUtnqnR4MGILkf-1">
                    <mxGeometry x="275.28120455152066" width="130.34419648450051" height="44.514130414124715" as="geometry"/>
                </mxCell>
                <mxCell id="SK3FrKkUtnqnR4MGILkf-25" value="" style="group" vertex="1" connectable="0" parent="1">
                    <mxGeometry x="-517" y="350" width="185" height="677" as="geometry"/>
                </mxCell>
                <mxCell id="SK3FrKkUtnqnR4MGILkf-26" value="View Member Dashboard" style="html=1;overflow=block;blockSpacing=1;whiteSpace=wrap;fontSize=15;align=center;spacing=9;strokeOpacity=100;fillOpacity=100;rounded=1;absoluteArcSize=1;arcSize=9;fillColor=#ffffff;strokeWidth=1.5;lucidId=tnHe~IiMii4X;" vertex="1" parent="SK3FrKkUtnqnR4MGILkf-25">
                    <mxGeometry x="15" y="152.43708609271525" width="159" height="52.00794701986755" as="geometry"/>
                </mxCell>
                <mxCell id="SK3FrKkUtnqnR4MGILkf-27" value="View Membership Status (Active / Inactive)&amp;nbsp;&amp;nbsp;" style="html=1;overflow=block;blockSpacing=1;whiteSpace=wrap;fontSize=15;align=center;spacing=9;strokeOpacity=100;fillOpacity=100;rounded=1;absoluteArcSize=1;arcSize=9;fillColor=#ffffff;strokeWidth=1.5;lucidId=voHeB.X~6i6X;" vertex="1" parent="SK3FrKkUtnqnR4MGILkf-25">
                    <mxGeometry x="5" y="231.34569536423842" width="180" height="61.871523178807955" as="geometry"/>
                </mxCell>
                <mxCell id="SK3FrKkUtnqnR4MGILkf-28" value="End" style="html=1;overflow=block;blockSpacing=1;whiteSpace=wrap;fontSize=15;align=center;spacing=3.8;strokeOpacity=100;fillOpacity=100;rounded=1;absoluteArcSize=1;arcSize=9;fillColor=#ffffff;strokeWidth=1.5;lucidId=2DHe.T10RvWw;shape=ellipse;perimeter=ellipsePerimeter;" vertex="1" parent="SK3FrKkUtnqnR4MGILkf-25">
                    <mxGeometry x="30" y="623.1986754966888" width="120" height="53.80132450331126" as="geometry"/>
                </mxCell>
                <mxCell id="SK3FrKkUtnqnR4MGILkf-29" value="" style="html=1;jettySize=18;whiteSpace=wrap;fontSize=13;strokeColor=#3a414a;strokeOpacity=100;strokeWidth=1.5;rounded=1;arcSize=12;edgeStyle=orthogonalEdgeStyle;startArrow=none;endArrow=block;endFill=1;exitX=0.5;exitY=1.013;exitPerimeter=0;entryX=0.5;entryY=-0.011;entryPerimeter=0;lucidId=YFHeIt78k30r;" edge="1" parent="SK3FrKkUtnqnR4MGILkf-25" source="SK3FrKkUtnqnR4MGILkf-26" target="SK3FrKkUtnqnR4MGILkf-27">
                    <mxGeometry width="100" height="100" relative="1" as="geometry">
                        <Array as="points"/>
                    </mxGeometry>
                </mxCell>
                <mxCell id="SK3FrKkUtnqnR4MGILkf-30" value="" style="html=1;jettySize=18;whiteSpace=wrap;fontSize=13;strokeColor=#3a414a;strokeOpacity=100;strokeWidth=1.5;rounded=1;arcSize=12;edgeStyle=orthogonalEdgeStyle;startArrow=none;endArrow=block;endFill=1;entryX=0.5;entryY=0;entryPerimeter=0;lucidId=VKHeAV0qq-E_;exitX=0.5;exitY=1;exitDx=0;exitDy=0;" edge="1" parent="SK3FrKkUtnqnR4MGILkf-25" source="SK3FrKkUtnqnR4MGILkf-35" target="SK3FrKkUtnqnR4MGILkf-28">
                    <mxGeometry width="100" height="100" relative="1" as="geometry">
                        <Array as="points"/>
                        <mxPoint x="100" y="614.2317880794702" as="sourcePoint"/>
                    </mxGeometry>
                </mxCell>
                <mxCell id="SK3FrKkUtnqnR4MGILkf-31" style="edgeStyle=orthogonalEdgeStyle;rounded=0;orthogonalLoop=1;jettySize=auto;html=1;entryX=0.5;entryY=0;entryDx=0;entryDy=0;fontFamily=Helvetica;fontSize=15;fontColor=default;" edge="1" parent="SK3FrKkUtnqnR4MGILkf-25" source="SK3FrKkUtnqnR4MGILkf-32" target="SK3FrKkUtnqnR4MGILkf-34">
                    <mxGeometry relative="1" as="geometry"/>
                </mxCell>
                <mxCell id="SK3FrKkUtnqnR4MGILkf-32" value="View Payment History&amp;nbsp;&amp;nbsp;" style="html=1;overflow=block;blockSpacing=1;whiteSpace=wrap;fontSize=15;align=center;spacing=9;strokeOpacity=100;fillOpacity=100;rounded=1;absoluteArcSize=1;arcSize=9;fillColor=#ffffff;strokeWidth=1.5;lucidId=voHeB.X~6i6X;" vertex="1" parent="SK3FrKkUtnqnR4MGILkf-25">
                    <mxGeometry y="322.8079470198675" width="180" height="61.871523178807955" as="geometry"/>
                </mxCell>
                <mxCell id="SK3FrKkUtnqnR4MGILkf-33" style="edgeStyle=orthogonalEdgeStyle;rounded=0;orthogonalLoop=1;jettySize=auto;html=1;entryX=0.5;entryY=0;entryDx=0;entryDy=0;fontFamily=Helvetica;fontSize=15;fontColor=default;" edge="1" parent="SK3FrKkUtnqnR4MGILkf-25" source="SK3FrKkUtnqnR4MGILkf-34" target="SK3FrKkUtnqnR4MGILkf-35">
                    <mxGeometry relative="1" as="geometry"/>
                </mxCell>
                <mxCell id="SK3FrKkUtnqnR4MGILkf-34" value="Track Program Participation History and Hours" style="html=1;overflow=block;blockSpacing=1;whiteSpace=wrap;fontSize=15;align=center;spacing=9;strokeOpacity=100;fillOpacity=100;rounded=1;absoluteArcSize=1;arcSize=9;fillColor=#ffffff;strokeWidth=1.5;lucidId=voHeB.X~6i6X;" vertex="1" parent="SK3FrKkUtnqnR4MGILkf-25">
                    <mxGeometry y="416.96026490066225" width="180" height="61.871523178807955" as="geometry"/>
                </mxCell>
                <mxCell id="SK3FrKkUtnqnR4MGILkf-35" value="Receive Notifications (Reminders / Confirmations)&amp;nbsp;&amp;nbsp;" style="html=1;overflow=block;blockSpacing=1;whiteSpace=wrap;fontSize=15;align=center;spacing=9;strokeOpacity=100;fillOpacity=100;rounded=1;absoluteArcSize=1;arcSize=9;fillColor=#ffffff;strokeWidth=1.5;lucidId=voHeB.X~6i6X;" vertex="1" parent="SK3FrKkUtnqnR4MGILkf-25">
                    <mxGeometry y="516.4927152317881" width="180" height="61.871523178807955" as="geometry"/>
                </mxCell>
                <mxCell id="SK3FrKkUtnqnR4MGILkf-36" style="edgeStyle=orthogonalEdgeStyle;rounded=0;orthogonalLoop=1;jettySize=auto;html=1;entryX=0.53;entryY=0.034;entryDx=0;entryDy=0;entryPerimeter=0;fontFamily=Helvetica;fontSize=15;fontColor=default;" edge="1" parent="SK3FrKkUtnqnR4MGILkf-25" source="SK3FrKkUtnqnR4MGILkf-27" target="SK3FrKkUtnqnR4MGILkf-32">
                    <mxGeometry relative="1" as="geometry"/>
                </mxCell>
                <mxCell id="SK3FrKkUtnqnR4MGILkf-37" value="Start" style="html=1;overflow=block;blockSpacing=1;whiteSpace=wrap;fontSize=15;align=center;spacing=3.8;strokeOpacity=100;fillOpacity=100;rounded=1;absoluteArcSize=1;arcSize=9;fillColor=#ffffff;strokeWidth=1.5;lucidId=tnHeX0-MYK-N;shape=ellipse;perimeter=ellipsePerimeter;" vertex="1" parent="1">
                    <mxGeometry x="-488" y="190" width="120" height="53.80132450331126" as="geometry"/>
                </mxCell>
                <mxCell id="SK3FrKkUtnqnR4MGILkf-38" style="edgeStyle=orthogonalEdgeStyle;rounded=0;orthogonalLoop=1;jettySize=auto;html=1;exitX=0;exitY=0.5;exitDx=0;exitDy=0;entryX=1.008;entryY=0.4;entryDx=0;entryDy=0;entryPerimeter=0;" edge="1" parent="1" source="SK3FrKkUtnqnR4MGILkf-22" target="SK3FrKkUtnqnR4MGILkf-26">
                    <mxGeometry relative="1" as="geometry">
                        <mxPoint x="-367.2663341176471" y="523.5587345637543" as="targetPoint"/>
                    </mxGeometry>
                </mxCell>
                <mxCell id="SK3FrKkUtnqnR4MGILkf-39" value="Yes" style="edgeLabel;html=1;align=center;verticalAlign=middle;resizable=0;points=[];" vertex="1" connectable="0" parent="SK3FrKkUtnqnR4MGILkf-38">
                    <mxGeometry x="0.1608" relative="1" as="geometry">
                        <mxPoint as="offset"/>
                    </mxGeometry>
                </mxCell>
                <mxCell id="SK3FrKkUtnqnR4MGILkf-40" style="edgeStyle=orthogonalEdgeStyle;rounded=0;orthogonalLoop=1;jettySize=auto;html=1;exitX=0.5;exitY=1;exitDx=0;exitDy=0;entryX=0.489;entryY=-0.015;entryDx=0;entryDy=0;entryPerimeter=0;" edge="1" parent="1" source="SK3FrKkUtnqnR4MGILkf-37" target="SK3FrKkUtnqnR4MGILkf-24">
                    <mxGeometry relative="1" as="geometry"/>
                </mxCell>
            </root>
        </mxGraphModel>
    </diagram>
</mxfile>